<?xml version="1.0" encoding="utf-8"?>
<!-- Generator: Adobe Illustrator 26.3.1, SVG Export Plug-In . SVG Version: 6.00 Build 0)  -->
<svg version="1.1" id="Ebene_2_00000133522186802940748740000013169646170818781081_"
	 xmlns="http://www.w3.org/2000/svg" xmlns:xlink="http://www.w3.org/1999/xlink" x="0px" y="0px" viewBox="0 0 56.6 155.8"
	 style="enable-background:new 0 0 56.6 155.8;" xml:space="preserve">
<style type="text/css">
	.st0{fill:#FFFFFF;}
</style>
<g id="Ebene_1-2">
	<g id="Gruppe_158" transform="translate(913.35 383.535)">
		<g id="Gruppe_157" transform="translate(0 0)">
			<path id="Pfad_33" class="st0" d="M-900.4-227.7c-1.7,0-3.4-0.7-4.5-2c-0.9-0.8-1.1-2.2-0.2-3.2c0.1-0.1,0.2-0.2,0.3-0.3
				c1.4-1.5,5-5.4,5.9-6.4c1.6-1.9,1.7-3.8,1.7-6l0-0.8c0-2,0.1-23.5,0.1-25.4c0.1-1.6,1.2-15.2,1.2-15.9c0.1-1,0.1-2,0.2-3
				c0.2-2.2,0.3-4.6,0.3-6.8c0-1.2,0-2.5,0.1-3.7c0.1-1.3,0.1-2.7,0.1-4.1c0-0.9-0.1-1.8-0.1-2.8c-0.1-1.2-0.1-2.4-0.1-3.6
				c0.1-2-0.1-4-0.4-6c-0.2-1.9-0.7-3.7-1.4-5.5c-1.2-2.1-2.2-4.2-3.2-6.4c-0.5-1.6-1.2-3.1-2.1-4.6c-0.4-1.1-0.9-2.1-1.4-3.1
				c-1.5-2.3-5-9.9-5.6-11.1c-0.6-1.2-1.1-2.5-1.3-3.8c-0.8-3.3-1.3-5.7-1.7-8.1c-1-5.5-1.6-11.6,0.5-18.1c0.9-2.7,2.1-4.3,4-4.9
				c0.5-0.2,1-0.3,1.4-0.3c1,0,1.2,0.8,1.5,2.5l0.1,0.5c0.4,2.3,0.6,4.7,0.7,7c0,0.2,0,0.4,0,0.7c0.1,0.5,0,1,0,1.5
				c-0.7,4.2-0.1,8.6,1.8,12.4c1.1,2.3,2.3,4.9,3.6,7.4c1,1.8,2.1,3.5,3.3,5.2l0.3,0.4l0.2-0.5c0.3-1.2,0.6-2.4,0.8-3.6
				c0.2-1,0.4-1.9,0.5-2.5c0.5-2.1,1.8-3.8,3.7-4.8c0.2-0.1,0.5-0.2,0.8-0.2c0.6-0.3,1.2-0.4,1.9-0.4c0.3,0,0.6,0,0.8,0.1l0.1,0.1
				c3.2,1.2,5.2,2.1,6.2,6c1,3.7,1.3,5.5-0.3,9l-0.1,0.3l0.3,0.1c1.6,0.6,3.1,1.3,4.5,2.1c0.8,0.4,1.6,0.9,3.1,1.6l0.4,0.2
				c1,0.8,1.9,1.6,2.8,2.5v0l0.1,0.1c0.2,0.2,0.6,0.6,1,1c1.7,2.3,3,5,3.9,7.8c0.4,1.8,0.9,4,1.6,6.7c0,0.2,0.1,0.5,0.2,0.9
				c0.7,3.3,1.6,6.5,2.8,9.7c0.2,0.5,0.4,1.1,0.7,1.6c1,2,1.6,4.1,1.8,6.3c0,0.6,0.1,1.2,0.3,1.7c0.2,0.8,0.3,1.6,0.3,2.5
				c-0.1,1.2-1.2,3.8-2.5,4c-0.1,0-0.3,0-0.4,0c-1.1,0-2.2-0.4-3.1-1.1c-1.8-2.2-2.8-3.5-3-7.1c-0.2-4-4.6-17.7-6.8-22.5l0,0l-0.1,0
				l0,0v0l-0.4-0.2c-0.1,0.1-0.1,0.2-0.1,0.3s-0.1,0.1-0.1,0.2c0,0.1-0.1,0.1-0.1,0.2c-0.1,0.1-0.1,0.1-0.2,0.2l0,0l-0.1,0.1
				c-0.1,0.5-0.2,1.1-0.3,1.5c-0.1,0.3-0.1,0.6-0.1,0.7c-0.1,0.2-0.1,0.4-0.2,0.6c-0.4,0.9-0.6,1.9-0.3,2.9c0.5,2.2,1,3.9,1.6,5.9
				c0.2,0.7,0.4,1.4,0.6,2.1c0.2,0.8,1,7,1,8c0,0.8,0,7.4,0,13.2c0,4.5,0,8.3,0,8.9c0,1.1-0.1,3.1-0.2,4.5c0,0.7-0.1,1.1-0.1,1.2
				c0.1,1.5,0.4,3,0.7,4.5c0.3,1.4,0.5,2.8,0.7,4.2c0.1,2.2,0.2,4.4,0.1,6.6c-0.2,2.9,0,5.9,0.3,8.8c0.1,0.8,0.2,1.5,0.3,2.2
				c0.5,3.5,0.9,6,3,8.1c0.9,0.9,1.6,1.5,2,1.9c0.5,0.4,0.7,0.7,1,0.9c1.2,1.3,2.6,2.3,4.1,3.2c1.3,0.6,1.8,1.2,1.9,2
				c0,0.8-0.2,0.9-0.9,1.4c-0.9,0.6-2,1.1-3,1.4l-0.7,0.2c-0.6,0.2-1.2,0.2-1.8,0.2l-0.7,0c-0.2,0-0.3,0-0.5,0c-0.4,0-0.7,0-1.1-0.1
				c-0.3,0-0.6-0.1-1.1-0.1c-0.8,0-1.5-0.1-2.2-0.3c-0.5-0.1-1-0.2-1.7-0.3c-2.7-0.4-4.1-1.4-5.7-4.1c-0.5-0.7-0.8-1.6-1-2.4
				c-0.2-1-0.5-1.9-0.9-2.9c-0.4-1.1-0.8-2.3-1-3.5c-0.2-1.6-0.3-3.3-0.4-4.8c-0.1-1.1-0.1-2.2-0.2-3.3c-0.1-1.1-0.2-2.2-0.3-3.3
				c-0.1-0.7-0.2-1.4-0.2-2.1c-0.1-0.7-0.2-1.4-0.3-2.2c-0.3-1.7-0.4-3.4-0.4-5.1c0.1-3.8-0.2-7.6-0.8-11.3
				c-0.2-0.8-0.3-3.1-0.5-5.1c-0.1-1.2-0.2-2.3-0.2-2.8c0-0.2-0.1-0.6-0.1-1.1c-0.1-1.9-0.4-3.8-0.8-5.6l-0.5,0.1c0,0.1,0,0.8,0,1.8
				c0,4-0.1,8.3-0.1,8.6c0,0.5,0.1,1.1,0.2,1.6c0.2,1.1,0.3,2.3,0.2,3.4c-0.2,1.3-0.4,5.2-0.4,6c0.2,3.2-1.3,19.5-1.6,21.5
				c-0.1,0.8,0.2,1.7,0,2.5c-0.2,1-0.2,2-0.3,3c-0.6,4.6-2.9,7.1-5.4,9.3l-0.6,0.5c-0.8,0.6-1.6,1-2.5,1.2l-0.5,0.2
				c-0.6,0.1-1.1,0.4-1.5,0.8c-0.2,0.2-0.3,0.3-1.5,0.5C-899.1-227.8-899.7-227.7-900.4-227.7 M-907.7-380.9c-2.4,0-3.5,5.2-3.6,8.1
				c0,0,0,0.1,0,0.1c-0.3,5,0.1,10,1.3,14.9c0.9,3.3,1.9,6.6,3,10c0.6,1.5,1.3,2.9,2.3,4.2c0.5,0.8,1,1.5,1.4,2.2
				c0.8,1.4,1.4,2.9,2,4.2c0.7,1.7,1.5,3.4,2.4,5c0.6,1.2,1.2,2.3,1.7,3.5c0.2,0.5,0.4,0.9,0.6,1.4l0.4,0.9c0.4,0.9,0.9,1.9,1.3,2.9
				c0.6,1.7,1.2,3.4,1.7,5.1l0.2,0.7c0.3,0.7,0.4,1.4,0.5,2.1c0,0.5-0.1,1-0.2,1.6c-0.1,0.6-0.2,1.3-0.1,1.9l0,0.3
				c0.5,4.4,0.6,8.9,0.3,13.3c-0.1,1-0.1,1.9,0,2.9c0,1-0.1,2-0.3,2.9c-0.1,0.6-0.2,1.1-0.2,1.6l-0.2,1.7c-0.4,4.3-0.3,8.8-1.1,13.2
				c-0.4,4.7-0.5,9.3-0.4,14c0.2,1.1-0.2,4.7-0.1,5.4c0.1,0.8-0.2,4.3-0.1,5.2c0,0.3-0.2,2.7-0.2,3.7c0,8.3-2.4,11.4-3.2,12.2
				c-0.5,0.5-1.1,0.8-1.8,1.2c-1.4,0.8-2.9,1.7-3.1,2.7c0,0.4,0.1,0.7,0.4,1c0.5,0.6,1.2,1,1.9,1c0.1,0,0.2,0,0.3,0
				c0.2,0,0.4,0,0.5-0.1c0.4,0,0.8-0.1,1.2-0.2c1.7-0.4,7.7-3.5,9.1-7.3c0.4-1.5,0.7-3.1,0.9-4.7c0-0.4,0.1-0.7,0.1-1.1
				c0-0.5,0.1-1,0.1-1.6c0.1-1.6,0.2-3.2,0.3-4.8c0.2-3.8,0.5-7.8,0.5-11.6c0-2.1,0.2-4.1,0.6-6.1c0.4-2.5,0.6-5,0.5-7.5
				c-0.3-4.6-0.4-9.2-0.1-13.8c0-0.5,0.1-1.1,0.1-1.7c0.2-2.6,0.4-6.5,1.4-7.6c0.5-0.6,0.9-0.8,1.3-0.8c0.4,0.1,0.7,0.2,0.9,0.5
				l0.1,0.1c0.3,0.2,0.5,0.6,0.7,0.9c0.1,1,0.2,1.6,0.3,2.3c0.1,0.4,0.1,0.9,0.2,1.4c0.1,0.8,0.2,1.6,0.4,2.3
				c0.2,0.9,0.3,1.8,0.4,2.7c0.2,3.4,0.3,6.8,0.5,10.1l0.1,3.6c0,0.1-0.1,0.2-0.1,0.3c0,0.9,0.1,1.7,0.4,2.6
				c0.1,0.4,0.2,0.8,0.3,1.1c0.3,2.1,0.5,4.2,0.5,6.3c0,2.2,0.2,4.3,0.5,6.4c0.1,0.9,0.2,1.9,0.2,2.8c0,0.8,0.1,1.6,0.2,2.4
				c0.2,1.2,0.4,2.3,0.7,3.4c0.2,0.7,0.3,1.4,0.4,2.1c0.2,0.8,0.3,1.6,0.4,2.4c0.2,1,0.4,2.1,0.6,3.1c0,0.1,0,0.3,0.1,0.6
				c0.5,3.3,0.7,4.2,0.9,4.4c0,0,0,0.1,0,0.1c0.2,0.7,0.9,2.7,2,3.4c2.4,1.4,6.2,3,9,3c1,0.1,1.9-0.2,2.7-0.8c0.7-0.5,1-1,0.9-1.5
				c-0.2-1-1.8-1.5-3-1.9c-2.8-1.9-5.4-3.8-6.7-8.8c-0.1-0.5-0.2-1.1-0.3-1.6c-0.5-1.8-0.8-3.6-0.9-5.5c-0.1-1.5-0.3-3-0.6-4.4
				c-0.4-2.2-0.5-4.4-0.3-6.6c0.1-2,0.1-4-0.1-5.9c-1-5.9-1.5-11.9-1.4-17.9c0.1-1.3,0.3-16.6-0.1-19.1c-0.8-4.6-1.6-8.7-2.3-12.7
				l-0.5,0c0,0.1,0,0.2,0,0.2c0,0.1-0.6-0.3-0.6-0.3l-0.6-0.8c-0.3-0.3-0.6-0.6-0.9-0.9l-0.6-0.6c-0.1-0.1-0.2-0.2-0.3-0.4
				c-0.2-0.3-0.5-0.5-0.9-0.7l-0.2-0.1c-0.2-0.1-0.4-0.3-0.6-0.4c-0.2-0.1-0.3-0.2-0.5-0.3c-1.1-0.6-3.9-2.3-4.3-3.4
				c-0.1-0.1-0.1-0.2-0.2-0.3c-1-1.5-1.9-2.9-0.6-5.3c0.2-0.3,0.4-0.7,0.5-1c0.2-0.5,0.5-0.9,0.8-1.3l0.1-0.1
				c0.5-0.4,1.1-0.6,1.8-0.6c0.3,0,0.7,0.1,1,0.2l0.3,0.3c0.1,0.1,0.2,0.3,0.3,0.4c0.2,0.3,0.4,0.5,0.6,0.7c0.2,0.2,0.3,0.5,0.4,0.8
				c0.1,0.3,0.2,0.6,0.4,0.8c0,0.1,0.1,0.2,0.1,0.3c0,0.1,0.1,0.2,0.1,0.3l0,0.1c0.1,0.3,0.2,0.4,0.4,0.4h0.2l0.1-0.2
				c0.1-0.3,0.3-0.5,0.4-0.8c0.3-0.6,0.7-1.1,1.2-1.6c0.1-0.1,0.2-0.3,0.3-0.4c0-0.1,0.1-0.1,0.3-0.2c0.3-0.2,0.5-0.4,0.7-0.7
				c0.4-0.3,0.9-0.6,1.3-0.8l0.5-0.1c0.4-0.1,0.7-0.2,1.1-0.2c0.1,0,0.3-0.1,0.4-0.1c0.2,0,0.3-0.1,0.5-0.1c0.1,0,0.2,0,0.2,0
				c0.3,0,0.6,0,0.9,0.1c0.3,0,0.6,0.1,0.8,0.3c0.5,0.4,0.8,0.9,0.9,1.5c0.1,0.7,0,1.4-0.1,2c-0.2,0.7-0.4,1.4-0.6,2.1l-0.3,0.9
				c-0.2,0.2-0.3,0.5-0.4,0.7l0.2,0.1c0.1,0.2,0.3,0.4,0.4,0.5c0.3,0.3,0.5,0.6,0.6,0.9c0,0.1,0,0.2,0,0.2c0.1,0.5,0.3,1,0.5,1.4
				c0.3,0.7,0.6,1.4,0.8,2.1c0.2,0.6,0.4,1.3,0.7,1.8c0.2,0.3,0.9,2.6,1.2,3.5c0,0,2.7,8.5,3.6,11.4c0.4,2.4,1.6,8,3.5,8
				c0.2,0,0.4-0.1,0.6-0.2c1.2-1.9,1.2-3.3,0.6-5.8c-0.5-2-1.2-4-2-5.9c-0.3-1.6-0.8-3.1-1.3-4.7c-1.2-3.1-3.3-12.1-4-15l-1.5-3.2
				c-0.9-1.9-2.1-3.7-3.5-5.3c-0.6-0.6-1.3-1.1-2.1-1.3c-0.3-0.1-0.5-0.2-0.8-0.3c-0.6-0.3-1.1-0.6-1.5-1.1c-0.5-0.5-1-0.8-1.7-1
				l-0.3-0.1c-0.8-0.3-1.6-0.7-2.3-1.2c-0.4-0.4-1-0.7-1.6-0.7c-0.4,0-0.8,0.1-1.2,0.4c-0.2,0.1-0.4,0.2-0.6,0.3
				c-0.4,0.2-0.9,0.4-1.3,0.6c-0.8,0.5-1.8,0.9-2.8,0.9c-1,0.2-2.1,0.3-3.1,0.3c-0.9-0.2-1.8-0.5-2.6-1c-1.2-0.7-7.1-9.5-9.7-14.6
				c-2.2-4.3-4.1-9.1-2.9-14.6c0.1-3.4,0-6.7-0.4-10.1c0-0.1,0-0.3-0.1-0.4c0-0.4-0.1-0.9-0.9-1
				C-907.6-380.9-907.7-380.9-907.7-380.9 M-883.5-330.5l-0.1,0c-0.2,0.1-0.4,0.2-0.6,0.4c-0.2,0.3-0.5,0.7-0.7,1.1
				c-0.3,0.5-0.4,1-0.3,1.5l0,0.1c0,0.1,0,0.2,0,0.4c0,0.1,0,0.2,0.1,0.4c0,0.1,0.1,0.2,0.1,0.4c0,0.3,0.1,0.6,0.3,0.8
				c0.1,0.1,0.1,0.2,0.2,0.2c0.1,0.1,0.1,0.2,0.2,0.3c0.2,0.2,0.3,0.4,0.5,0.5c0.3,0.3,0.6,0.6,0.9,0.8c0.1,0.1,0.2,0.2,0.4,0.3
				c0.1,0.1,0.2,0.1,0.3,0.2c0.1,0.1,0.1,0.1,0.2,0.2c0.1,0.1,0.2,0.2,0.4,0.3c0.5,0.3,0.9,0.6,1.4,0.9l1.1,0.8
				c0.2,0.1,0.3,0.2,0.5,0.3l0.1,0.1c0.1,0.1,0.2,0.2,0.3,0.4c0.1,0.2,0.2,0.3,0.4,0.3c0.2,0,0.3-0.1,0.4-0.3c0-0.1,0.1-0.1,0.1-0.2
				l0.1-0.1c0.1-0.1,0.1-0.2,0.2-0.3l0-0.1c0-0.1,0.1-0.3,0.1-0.4c0,0,0-0.1,0.1-0.1c0.1-0.2,0.2-0.3,0.2-0.5l0.1-0.1l0-0.1l0-0.1
				l0,0c0.2-0.2,0.3-0.5,0.3-0.7c0,0,0.1-0.4,0.2-0.5c0,0,0.1-0.1,0.1-0.1l0.1-0.1c0.1-0.2,0.2-0.4,0.2-0.7l0-0.1l0,0
				c0,0,0.1-0.1,0.1-0.1c0.3-0.7,0.8-1.5,1.2-2.1c0.5-0.8,0.9-1.7,1.2-2.6c0.6-0.6,0.5-1.6-0.1-2.2c-0.1-0.1-0.3-0.2-0.5-0.3
				c-0.1,0-0.2-0.1-0.3,0c-0.1,0-0.1,0-0.2,0c-0.1,0-0.2,0-0.2,0.1l-0.2,0.1h0c-0.2,0-0.4,0-0.5,0l-0.1,0c-0.6,0-1.2,0.3-1.6,0.7
				c0,0-0.1,0.1-0.1,0.1l-0.5,0.5h0l-0.2,0.2l-0.1,0.1c-0.1,0.1-0.2,0.3-0.3,0.5c-0.1,0.4-0.2,0.7-0.4,1.1c-0.2,0.4-0.4,0.8-0.4,1.2
				c0,0.3,0,0.6,0,0.9c0,0.4-0.1,0.6-0.4,0.7c-0.1,0-0.2,0.1-0.3,0.1l-0.2,0.1l-0.2,0c-0.5,0-1-0.4-1.2-0.9l-0.1-0.5
				c0,0,0-0.1,0-0.2l0.1-0.1c0.1,0,0.2-0.1,0.3-0.2c0,0,0.1-0.1,0.1-0.1l0.1-0.1l-0.1-0.1c0,0,0-0.1,0-0.2l0-0.3l-0.1,0
				c-0.2-0.5-0.5-0.9-0.9-1.3l-0.7-0.7l-0.1-0.1l0,0C-883.1-330.4-883.2-330.5-883.5-330.5L-883.5-330.5
				C-883.5-330.5-883.5-330.5-883.5-330.5z M-887.9-355.5c-0.6,0-1.2,0.2-1.7,0.7c-0.1,0.1-0.2,0.3-0.3,0.4
				c-2.5,2.6-3.9,6.2-3.6,9.9c0.2,2.5,1.3,3.7,3.3,3.7c0.1,0,0.2,0,0.3,0c3.2-0.2,5.5-1.4,7.1-3.6c0.1-0.1,0.2-0.3,0.3-0.5
				c1-2.1-0.1-7-2-8.5c-0.6-0.5-1.2-1-1.8-1.4l-0.8-0.6C-887.2-355.5-887.6-355.5-887.9-355.5 M-891-345.2c0.7,1.3,2.4,1.8,3.7,1.1
				c1.9-0.8,3.4-2.9,3.1-4.5c0-0.1-0.1-0.1-0.4-0.3c-0.5,0.5-1,1-1.4,1.5c-1.9,2.1-3.6,1.8-4.6-0.8
				C-891.5-347.7-891.7-346.4-891-345.2"/>
		</g>
	</g>
</g>
</svg>
