<?xml version="1.0" encoding="utf-8"?>
<!-- Generator: Adobe Illustrator 26.3.1, SVG Export Plug-In . SVG Version: 6.00 Build 0)  -->
<svg version="1.1" id="Ebene_2_00000044152968337134217850000011854213036040165817_"
	 xmlns="http://www.w3.org/2000/svg" xmlns:xlink="http://www.w3.org/1999/xlink" x="0px" y="0px" viewBox="0 0 87.5 136.8"
	 style="enable-background:new 0 0 87.5 136.8;" xml:space="preserve">
<style type="text/css">
	.st0{fill:#FFFFFF;}
</style>
<g id="Ebene_1-2">
	<g id="Gruppe_147" transform="translate(0 394.617)">
		<g id="Gruppe_152" transform="translate(0 0)">
			<path id="Pfad_26" class="st0" d="M10.8-390.7c0.2-0.9,0.4-1.9,0.7-2.8c0.2-0.5,0.8-0.7,1.2-1.1c0.2,0.6,0.6,1.2,0.5,1.6
				c-0.6,1.7-0.5,3.6,0.4,5.2c0.1,0.3,0.1,0.9,0,1c-0.3,0.1-1,0.1-1.1,0c-0.7-1.2-1.2-2.4-1.8-3.7L10.8-390.7"/>
			<path id="Pfad_27" class="st0" d="M19.8-389.6c-0.3,1-0.7,1.9-1.1,2.8c-0.1,0.3-0.8,0.4-1.2,0.3c-0.1,0-0.4-0.6-0.3-0.9
				c0.2-1.9,0.5-3.7,0.8-5.6c0.1-0.3,0.4-0.6,0.6-1c0.3,0.3,0.7,0.5,0.8,0.9C19.5-392.1,19.6-391.1,19.8-389.6"/>
			<path id="Pfad_28" class="st0" d="M15.8-392.5c0.2,0.5,0.3,1,0.4,1.6c-0.1,1.1-0.2,2.3-0.4,3.4c-0.1,0.4-0.3,0.7-0.4,1
				c-0.3-0.2-0.5-0.4-0.8-0.7c-0.9-1.4-0.8-3.2,0.2-4.5C15.1-392,15.4-392.2,15.8-392.5"/>
			<path id="Pfad_29" class="st0" d="M59-373.3c0.9,2.6,2.7,2.9,4.6,0.8c0.5-0.5,1-1,1.4-1.5c0.3,0.2,0.4,0.2,0.4,0.3
				c0.3,1.6-1.1,3.8-3.1,4.5c-1.3,0.7-3,0.2-3.7-1.1C57.8-371.6,58-372.8,59-373.3"/>
			<path id="Pfad_30" class="st0" d="M87.5-260.7c-0.5-1.7-1.3-3.3-2.3-4.8c-3.3-4.2-5.6-9.1-6.6-14.4c-0.7-4.2-0.9-8.4-1.2-12.6
				c-0.4-5.3-3.3-20.1-3.2-25.4c0-1.7-0.3-3.5-0.4-5.3l0,0c0-0.8,0.2-1.6,0.1-2.4c-0.1-2.3,0-5.2-0.1-6.8c-0.3-4.8-0.1-9.6,0-14.4
				c0-1.1-0.1-2.2,0-3.3c0.2-0.1,0.3-0.1,0.5-0.2c0.9,1.2,1.6,2.5,2.2,3.9c1.2,2.9,1.2,6.1-0.1,9c-1.1,2.5-2.3,5-1.2,7.8
				c0.3,0.8,0.8,1.8,1.5,2c0.9,0.2,1.9,0,2.6-0.5c3-2.7,5.2-5.9,5.1-10.2c0-0.6,0.1-1.3,0.3-1.9c0.7-3.5,1.1-7-0.3-10.5
				c-0.6-1.7-1.4-3.4-2.4-4.9c-1.3-2-2.9-3.8-4.3-5.7c-1.7-2.3-2.8-5.1-5.5-6.6c-0.6-0.4-1.2-0.7-2-1.1c0.8-1.2,1.5-2.5,1.9-3.9
				c1.5-4.6-0.7-9.7-5.2-11.7c-1.6-0.9-3.6-1.1-5.4-0.7c-1.5,0.3-2.8,1.1-3.8,2.3c-3.3,3.6-4.7,7-4.3,11.9c0.1,2.1,1.1,4.1,2.8,5.3
				c0.6,0.3,0.8,1,0.5,1.5c-0.1,0.1-0.1,0.2-0.2,0.3c-1.1,1.4-2.3,2.8-3.6,4c-1.8,1.6-3.8,2.9-5.7,4.4c-0.7,0.5-1.5,1-2.3,1.5
				c-0.3,0.2-0.6,0.2-0.9,0.1c-1.6-0.7-3.2-1.5-4.8-2.3c-0.7-0.4-1.3-0.9-2-1.3c-1.2-0.7-2.4-1.4-3.6-2.2v0l-3-2.8
				c-0.8-1.2-1.9-2.1-2.8-3.2c-0.5-0.6-0.9-1.2-1.4-2c1.3,0.1,2.3,0.2,3.2,0.2c1.7,0,3.5,0.1,5.2,0c2.6-0.2,5.2-0.3,7.8-0.7
				c2.1-0.3,2.5-2.3,1-3.8c-0.9-0.9-2.2-1.4-3.5-1.4c-0.6,0-1.3-0.2-1.8-0.4c-0.3-0.2-0.6-0.6-0.6-1c0.1-0.4,0.3-0.7,0.7-0.8
				c1.6-0.3,2.1-1.3,2.5-2.7c0.3-1.4,0.9-2.7,1.7-3.9c1.8-2.1,2.3-4.6,2.8-7.1c0.1-0.3-0.5-1-0.9-1.2c-0.6-0.1-1.2,0-1.7,0.2
				c-2.2,0.8-2.9,2.8-3.7,4.8c-0.5,1.2-0.9,2.4-1.3,3.7c0.1-3.1-2.1-5.3-3.1-8c-0.3-0.7-1.4-2.4-2.2-1.6c-0.3,0.6-0.6,1.1-1,1.6
				c-0.7,0.9-0.9,2.3-2.5,2.6c-0.9,0.2-2.7,1.7-2.8,2.6c-0.2,2.3,0.6,4.7,1,7c0.4,1.3,1,2.5,1.7,3.7c-1.8,0.9-5.5,0.7-8.6-0.5
				c0.3-0.3,0.6-0.6,1-0.9c1.1-0.6,2.1-1.4,3.1-2.2c1.8-2,1.1-5.7-1.4-5.1c-0.5,0.1-0.9-0.7-1.4-1c-0.8-0.5-1.6-1.2-2.4-1.3
				c-3.4-0.1-6.7,0-10.1-0.1c-1.1,0-1.4,0.4-1.4,1.5c-0.1,3.4,0.6,6.8,2,9.9c-1.3,0.1-2.5,0.1-3.7,0.3c-1.7,0.2-3.4,0.5-5.1,0.9
				c-0.7,0.2-1.2,0.8-1.4,1.5c-0.1,1.8,1.3,3.4,3.1,3.5c0.4,0,0.8,0,1.2-0.2c1.6-0.5,3.3-0.8,5-0.9c2.6,0,5.2,0.3,7.9,0.4
				c1.2,0.1,2.4,0,3.6,0c-1.9,5.6-0.5,9.7,4.1,12.8l2.3,2.3l3.5,2.5c2.3,2.5,5.2,4.5,8.3,5.9c2.9,1.4,5.9,2.1,8.9,0.6
				c1.3-0.6,2.5-0.7,3.7-1.3c1.4-0.8,2.9-1.4,4.4-2.2c0.1,0.3,0.1,0.5,0.2,0.8c-0.1,4.2-0.5,8.5-0.8,12.7c0,0.8-0.1,1.7-0.1,2.6
				c0,0.4-0.1,0.7-0.1,1c-0.7,4.5-1.4,6.8-2.3,11.3c-1.6,8.1-4.4,25.6-5.9,33.7c-1,5-2,9.9-5.2,14c-1.9,2.4-3.3,4.1-5.2,6.5
				c-0.7,0.8-1,3.1,0,3.9c3.5,2.8,4.9,3.2,8.5,0.1c2.9-2.7,5.4-5.9,7.3-9.4c2-3.3,3.2-7.1,4.6-10.7c2.4-6,4.2-21.6,5.1-28
				c0.1-1,0.4-1.9,0.8-2.9c0.2-0.5,0.9-0.7,1.4-1c0.3,0.4,0.6,0.9,0.9,1.4c0.2,0.8,0.4,1.6,0.5,2.4c0.6,2.5,0.9,14.3,1.4,16.7
				c1.1,6.1,1.8,12.3,3,18.4c1,4.8,3.2,9.3,6.5,13c2,2.3,7.4,4.1,10,2.6C87.2-258.9,87.6-259.8,87.5-260.7 M23.7-380.8
				c0.3,0.4,0.4,0.9,0.1,1.3c-0.5,0.9-1.1,1.6-1.9,2.2c0.2-0.6,0.3-1.3,0.3-1.9C22-380.4,22.6-381.6,23.7-380.8 M55.5-370.4
				c-0.9-3.1-0.3-6.5,1.7-9.1c1.2-1.8,2.7-4.1,6.5-3.7c2,0.5,3.7,1.7,4.8,3.4c2,2.6,2.4,6,0.2,8.4c-1.5,1.6-3.1,3.1-4.8,4.5
				c-0.3,0.3-0.9,0.2-1.4,0.3c-0.3,0-0.6,0-0.9,0C58.9-366,56.2-367.7,55.5-370.4 M38.1-377.6c1.8-1.9,1.6-4.5,2.5-6.7
				c0.5-1.3,1.1-2.5,1.9-3.6c0.2-0.4,0.8-0.5,1.2-0.7c0.1,0.1,0.3,0.2,0.4,0.2c-0.1,0.7-0.3,1.4-0.6,2.1c-1.4,1.9-2.4,4-3,6.3
				c-0.3,1.2-0.6,2.6-2.3,3.1C38.1-377.2,38-377.5,38.1-377.6 M33.5-388.9c1.1-1.3,1.1,1.5,1.8,2.4c-1.4,0.4-2.5,0.6-2.9-0.4
				C32.2-387.3,33.1-388.2,33.5-388.9 M30.9-379.8c0,0,0-1.7,0.1-2.5c0-0.6,0.2-1.3,0.4-1.9c0.1-0.3,0.5-0.7,0.7-0.6
				c1.2,0.7,3.3-0.8,3.7,0.8c0.5,2.4,0.3,5,0.4,7.5c0,0.4-0.2,0.9-0.2,1.4c-0.1,1.9-0.1,1.9-2,2c-2.7,0.1-2.7-0.3-3-3.7
				C30.8-377.9,30.9-378.8,30.9-379.8 M29.5-377.2c-0.3-0.5-0.5-1.1-0.7-1.7c-0.3-1.6-0.5-2.5-0.7-4.1c-0.2-1.4,0.6-2.3,2.2-3.2
				C30-383.1,29.8-380.3,29.5-377.2 M9.8-382.2c0-1.1,0.5-1.4,1.6-1.3c2.3,0.2,4.7,0.3,7,0.3c0.9-0.1,1.7,0.5,1.9,1.4
				c0,0.1,0,0.1,0,0.2c0.3,2,0,4.1-0.9,5.9c-0.3,0.6-0.5,1.1-0.9,1.9c-1.5,0.1-3.1,0.1-4.7,0.2c-1.4,0.1-1.9-1-2.4-1.8
				C10.3-377.5,9.7-379.8,9.8-382.2 M13.3-370.2c-3.2-0.4-6.1,0.6-9.1,0.9c-0.5,0-0.9,0.2-1.3,0.3c-0.8,0-1.1-0.3-1.3-1.1
				c-0.4-0.9,0.7-0.9,1.1-1c2.6-0.3,5.2-0.5,7.9-0.7c2.6-0.2,5.2-0.5,7.8-0.4c2.2,0,4.5,0.5,6.7,0.6c4.2,0.1,8.4,0.1,12.6,0.2
				c1,0,2,0.1,3,0.2c2.8,0.2,2,1.1,1.5,1.3c-1.1,0.1-2.2,0.3-3.3,0.4c-1,0.1-2,0.2-3,0.2c-1.3,0-2.5-0.1-3.8-0.1
				c-0.4,0-0.8-0.1-1.2-0.1C24.9-369.3,19-369.5,13.3-370.2 M83.4-260.4c-1.7,0.1-3.4-0.4-4.9-1.3c-1.7-0.8-2.8-3.1-3.7-4.9
				c-2.7-5-3.3-10.6-4.4-16c-1.1-5.5-1.8-20.3-2.8-25.8c-0.3-1.4-0.4-2.9-0.8-4.3s-1-2.7-2.8-2.7c-2.2,0.1-3.9,1.3-4.1,3.2
				c-0.6,6.3-2.3,21.8-4.5,27.6c-2.8,7.4-5.6,14.9-11.4,20.7c-0.7,0.7-1.5,1.4-2.4,2.1c-1.1,1-2.8,0.9-3.9-0.2
				c-0.1-0.1-0.1-0.1-0.2-0.2c-0.8-2.6,3.7-4.9,5.6-7.3c2.7-3.3,4.5-7.3,5.3-11.5c0.9-5.4,3.6-20,4.6-25.3
				c1.2-6.4,2.2-12.8,3.4-19.2c0-0.1,0-0.1,0-0.2l0.1-0.1c1-2.9,1.4-6,1.4-9.1c-0.2-4,0-8,0-12.1c0-1.3,0.2-2.6,0.4-3.9
				c0.1-0.4,0.3-1.3,0.1-1.6c-0.3,0.3-0.6,0.6-0.9,0.9c-0.4,0.5-0.9,0.8-1.4,1.1c-2.7,1.7-5.4,3.2-8.3,4.6c-1.5,0.7-3.1,0.9-4.7,0.6
				c-4.5-1-7.9-3.4-11.5-6.7c-0.4-0.4-5.2-3.7-6.5-5.6l-2.3-2.9c-0.5-1.3-1.1-2.9-0.5-4.1c0.4-0.8,1.3-1.2,2.1-1.2
				c0.7,0.1,1.5,1.2,2.3,2.8c1.7,2.3,8.4,7.7,9.2,8.2c0.9,0.5,1.7,1,2.6,1.5c1,0.5,1.9,1.2,2.7,1.9c1.1,1.1,2.4,1.6,3.7,0.8
				c1.4-0.8,2.8-1.7,4.2-2.6c2.4-1.7,4.9-3.2,6.6-5.7c0.9-1.2,2-2.3,3.1-3.7c0.3,0.8,0.5,1.7,0.7,2.5c0.2,0.7,0.4,2.7,1,2.5
				c0.3-0.2,0.7-0.8,0.8-0.9c1.2-1.4,2.6-1.6,4.2-0.6c0.3,0.2,1.4,1.1,1.7,1.1c0.5-0.1,0.5-1.2,0.5-1.4c0.1-1.5,0.1-3,0-4.5
				c-0.1-1-0.9-1.2-1.7-0.6c-0.7,0.6-1.5,1.1-2.1,1.8c-0.4,0.6-1.2,0.7-1.8,0.3c-0.1-0.1-0.2-0.1-0.2-0.2c1.7-1.5,3.4-2.9,5.1-4.3
				c0.3-0.2,0.6-0.3,1-0.2c2,0.8,4,1.7,5.2,3.6c1.5,2.3,3,4.5,4.6,6.7c1,1.3,2.5,2.4,3.3,3.8c1.5,2.3,2.2,5,2,7.8
				c-0.3,3.2-0.7,6.4-1,9.6c0.1,1.4-0.3,2.8-1.2,4l0,0c-0.8,0.7-1.6,1.4-2.5,2c-1.3,0.7-2.1,0.1-2-1.3c0.1-0.8,0.3-1.6,0.6-2.3l0,0
				l1-2.9c0.2-0.5,0.4-0.9,0.5-1.4c0.9-5.8-0.1-11.1-4.7-15.2c-0.4-0.4-1-0.5-1.5-0.3c-0.8,0.3-1.2,1.1-0.9,1.9
				c0.3,0.8,0.4,1.6,0.4,2.4c0,4.3-0.1,8.6-0.1,12.9c-0.4,4.8-0.4,9.6-0.1,14.4c0.4,10,3.3,29.4,4.4,39.3c0.7,6.2,3.2,12.1,7.1,16.9
				c0.6,0.9,1,1.8,1.4,2.8C85.5-261.2,84.6-260.4,83.4-260.4"/>
		</g>
	</g>
</g>
</svg>
