<?xml version="1.0" encoding="UTF-8"?><svg id="Ebene_2" xmlns="http://www.w3.org/2000/svg" viewBox="0 0 25.98433 25.72304"><defs><style>.cls-1{fill:#fff;}</style></defs><g id="Ebene_1-2"><g id="Gruppe_210" transform="translate(0 0)"><g id="Gruppe_212" transform="translate(0 0)"><path id="Pfad_163" class="cls-1" d="M25.85263,12.57855c-.01-.021-.022-.037-.032-.057-.00067-.12566-.00835-.25119-.023-.376-.08525-.55612-.52965-.98785-1.088-1.057-.783-.2-1.565-.415-2.348-.623s-1.575-.417-2.361-.628l-1.18-.318c-.389-.03969-.76159-.17731-1.083-.4-.012-.013-.02-.027-.031-.04-.1-2.474-.166-4.953-.224-7.106,.00064-.23598-.05489-.46873-.162-.679,.05232-.41196-.10136-.82329-.411-1.1-.44863-.28885-1.0328-.25322-1.443,.088-.1959,.23252-.32697,.51262-.38,.812-.10334,.36407-.22993,.72114-.379,1.069-.61425,1.35984-1.35837,2.65719-2.222,3.874l-.6,.9c-.2,.3-.306,.531-.694,.532-.3632-.03351-.72185-.10524-1.07-.214-.414-.09-.82833-.182-1.243-.276-.824-.19-1.642-.4-2.461-.612-.583-.151-1.2-.193-1.766-.4-.2927-.10372-.56387-.26032-.8-.462-.26-.221-.473-.182-.8-.169-.38,.015-.762,.012-1.142,.02-.40776-.03064-.81724-.03064-1.225,0-.438,.079-.513,.416-.52,.778-.073-.077-.125,.183-.144,.5-.02572,.1407-.02741,.28474-.005,.426v.01c.012,.253,.05,.456,.12,.464-.02291,.31917,.09046,.6331,.312,.864,.38,.3,.939,.225,1.339,.525,.46338,.46623,.84804,1.00456,1.139,1.594,.92815,1.30813,1.96517,2.53549,3.1,3.669,.26667,.28333,.53667,.56533,.81,.846l.049,.049-.422,.578-1.236,1.685c-.788,1.077-1.589,2.145-2.345,3.246-.05845,.19909-.06839,.40928-.029,.613l-.211,.309,.216,.171c-.022,.249-.051,.62,.024,.679,.18984,.18277,.3987,.34469,.623,.483,.493,.234,.586-.289,.621-.642,.17299,.27602,.3818,.52788,.621,.749,.28154,.178,.61136,.2643,.944,.247,.35547-.0615,.69734-.18505,1.01-.365,.394-.17267,.786-.349,1.176-.529,.75467-.34733,1.50233-.70933,2.243-1.086,.466-.237,1.016-.524,1.45-.073,.205,.213,.345,.468,.559,.681,.31733,.316,.63367,.63333,.949,.952,.573,.576,1.146,1.151,1.731,1.715,.458,.441,.95,1.087,1.612,1.2,.47647,.10676,.96931-.09229,1.238-.5,.15285-.32231,.23567-.67336,.243-1.03,0-.012,.011-.023,.013-.035,.10052-.44141,.15812-.8915,.172-1.344,.019-.783,.031-1.565,.043-2.348,.012-.812,.027-1.623,.047-2.436,.23298-.18456,.50058-.32057,.787-.4,.382-.159,.766-.311,1.151-.462,1.507-.592,3.024-1.162,4.525-1.768,.555-.224,1.081-.545,1.162-1.194,.01449-.12982,.0215-.26037,.021-.391,.022-.041,.049-.08,.066-.123,.1388-.35404,.12615-.74955-.035-1.094"/></g></g></g></svg>