<?xml version="1.0" encoding="UTF-8"?><svg id="Ebene_2" xmlns="http://www.w3.org/2000/svg" viewBox="0 0 64.10485 62.50931"><defs><style>.cls-1{fill:#003063;}</style></defs><g id="Ebene_1-2"><g><path id="Pfad_154" class="cls-1" d="M33.66637,62.49342c-10.033,.272-18.119-2.956-24.648-9.17C.55537,45.26742-2.63163,32.99342,2.40837,20.52742,5.58537,12.67042,11.23337,6.96942,18.30837,2.88242,24.59437-.75158,31.60037-.64758,38.51037,1.52142c13.495,4.233,22.369,12.965,25.2,26.98,.69804,3.67192,.46704,7.4601-.672,11.02-4.616,13.883-15.202,22.943-29.372,22.972m-1.424-60.208c-6.608-.025-12.3,1.292-17.029,4.665C9.12537,11.29342,4.48637,17.05342,3.68237,24.86942c-.644,6.257-2.375,12.449,1.17,18.75,3.42507,6.421,8.92374,11.49281,15.6,14.389,6.068,2.662,12.181,2.657,18.613,1.494,6.15221-1.05927,11.72846-4.26858,15.735-9.056,3.694-4.279,5.362-9.579,6.668-14.988,.87225-3.41691,.6151-7.02436-.733-10.283-2.86892-7.51185-8.03885-13.92465-14.771-18.322-4.492-2.96-9.088-4.713-13.722-4.568"/><path id="Pfad_155" class="cls-1" d="M23.35038,23.83642c1.17-3.695,1.88-6.979,3.29-9.93,.9449-1.4904,2.40373-2.58238,4.1-3.069,3.36438-1.106,6.99915-1.07473,10.344,.089,.35947,.07331,.6964,.23097,.983,.46,.958,1.1-1.056,7.106-2.486,7.507-3.335,.936-3.74,1.42-4.113,5.133,.632,.041,1.259,.129,1.885,.114,2.713-.066,2.995,.162,3.055,2.788,.038,1.636,.007,3.272,.007,5.129-.70332,.12565-1.42001,.15927-2.132,.1-2.275-.552-3.02,.255-3.03,2.585-.02,4.775-.326,9.548-.518,14.323-.006,.148-.074,.3-.069,.442,.144,3.881,.144,3.908-3.938,3.683-2.067-.114-4.863,.388-5.985-.734s-.568-3.909-.677-5.971c-.2-3.727-.43-7.457-.462-11.188-.013-1.607-.424-2.421-2.118-2.231-1.939,.217-2.48-.775-2.289-2.531,.21342-1.47925,.30074-2.97396,.261-4.468-.125-1.986,.747-2.517,2.53-2.251,.45109,.05472,.90682,.05975,1.359,.015m14.784,1.91899c-.7358-.0459-1.47389-.04089-2.209,.015-2.2,.338-2.7-.891-2.727-2.733-.054-3.738,1.22-5.289,4.876-5.39,2.729-.076,2.109-2.311,2.53-3.73,.521-1.762-1.187-1.575-2.147-1.762-7.132-1.373-12.109,2.926-11.58,9.95,.188,2.5-.772,3.509-3.224,3.5-.789,0-2.2,.041-2.262,.3-.29826,1.28376-.35287,2.61209-.161,3.916,.078,.477,1.135,1.1,1.763,1.124,2,.062,2.359,1.026,2.353,2.846-.12442,4.54746,.01849,9.0983,.428,13.629,.6,5.228-.369,3.941,4.885,4.3,1.588,.109,2.062-.482,2.078-2.02,.052-5.219,.256-10.436,.34-15.655,.053-3.292,.294-3.6,3.462-3.742,.5373-.05374,1.07137-.13586,1.6-.246l-.005-4.30201Z"/></g></g></svg>