<?xml version="1.0" encoding="UTF-8"?><svg id="Ebene_2" xmlns="http://www.w3.org/2000/svg" viewBox="0 0 51.97884 55.40023"><defs><style>.cls-1{fill:#fff;}</style></defs><g id="Ebene_1-2"><g id="Gruppe_199" transform="translate(0 0)"><g id="Gruppe_200" transform="translate(0 0)"><path id="Pfad_149" class="cls-1" d="M11.38532,29.32642c-2.586-.9-6.945-2.127-9.061,.476-1.874,2.3-.093,5.24,2.284,6.253,2.622,1.117,5.545,.542,8.17,1.9,1.19633,.63387,2.28918,1.44617,3.241,2.409,1.5369,1.7686,2.81621,3.74547,3.8,5.872,1.1,2.314,1.715,4.856,2.83,7.148,.478,.982,1.1,2.066,2.382,2.014,3.034-.123,3.488-4.943,3.275-7.039-.443-4.377-3.029-8.552-5.927-11.743-3.00399-3.30531-6.78468-5.80949-11-7.286m13.861,16.57099c.461,1.232,1.885,7.69-1.09,5.458-.866-.65-1.329-3.336-1.806-4.394-.76414-1.75158-1.66527-3.44015-2.695-5.05-2.94-4.479-8.131-9.022-13.853-8.305-.288-.555-.185-1.461,.341-2.744,.483-.265,1.914,.228,2.446,.346,1.85826,.43727,3.65048,1.11852,5.33,2.026,3.56334,1.87452,6.61114,4.59641,8.875,7.926,1.00112,1.47723,1.82417,3.06759,2.452,4.738"/><path id="Pfad_150" class="cls-1" d="M33.60631,53.95642c8.081-1.9,5.833-12.05,3.483-17.581-3.0735-7.08764-8.2686-13.0482-14.87-17.061-3.30285-2.03678-6.91754-3.51779-10.7-4.384-2.644-.594-6.86-1.677-9.3,.011-1.854,1.279-1.795,3.479-.378,5.092,2.095,2.381,5.88,2.752,8.995,2.987,2.24216,.61648,4.41008,1.4766,6.465,2.565,9.70087,5.55969,15.44757,16.1053,14.861,27.271,.0085,.63673,.53156,1.14601,1.16829,1.13751,.09342-.00124,.18634-.01384,.27671-.03751m-7.061-22.921c-2.62891-3.0208-5.83503-5.48574-9.43-7.25-1.78251-.84255-3.63994-1.51649-5.548-2.013-1.27-.345-2.554-.634-3.821-.992-.63467-.16733-1.26267-.35733-1.884-.57-.086,0-.156-.017-.236-.024-.703-.45621-1.03657-1.31006-.829-2.122,.26-2.219,1.1-1.561,3.057-1.316,1.19178,.14852,2.37382,.36689,3.54,.654,4.87056,1.20895,9.42175,3.45777,13.341,6.592,3.58732,2.85272,6.58075,6.38089,8.811,10.385,2.248,4.075,6.318,13.937,.927,16.821-.12411-7.45785-2.93976-14.61951-7.928-20.165"/><path id="Pfad_151" class="cls-1" d="M47.06032,26.83542c-3.6009-7.57937-9.147-14.06851-16.073-18.806C23.99587,3.33805,15.87635,.60312,7.47132,.10842,5.19932-.02958,1.89932-.39958,.51232,1.91242c-1.205,2.009-.133,4.472,1.644,5.737,1.38222,.7892,2.93451,1.23311,4.525,1.294,2.63452,.29259,5.24663,.76029,7.819,1.4,.518,.144,1.028,.31,1.539,.474,3.11772,1.10838,6.13281,2.4866,9.011,4.119,1.70883,1.03164,3.34348,2.18144,4.892,3.441,2.16589,1.77072,4.13339,3.77108,5.868,5.966,5.462,7.262,7.448,15.761,8.857,24.723,.237,1.506,.573,3.682,2.3,4.249,2.342,.77,3.952-1.86,4.455-3.731,1.885-7-1.383-16.5-4.358-22.75m.006,24.088c-.843-.307-.749-4-.9-5.045-.88992-6.36103-2.97128-12.49722-6.13499-18.087-2.23014-3.86998-5.10713-7.32907-8.506-10.227-.787-.7-1.59-1.391-2.426-2.033-5.1741-3.96141-11.16377-6.72364-17.536-8.087-.849-.18-1.7-.316-2.561-.443l-.033-.01c-.827-.227-1.67-.41-2.493-.65-.4-.118-4.306-1.68-4.378-3.117,.272-.738,2.141-.681,2.924-.784,3.737-.49,8.178,.677,11.751,1.68,14.85648,4.14828,26.57188,15.5862,31.075,30.339,1.03968,3.43094,1.65789,6.97567,1.841,10.556,.059,1.217,.409,7.014-2.628,5.909"/></g></g></g></svg>