<?xml version="1.0" encoding="UTF-8"?><svg id="Ebene_2" xmlns="http://www.w3.org/2000/svg" viewBox="0 0 48.96699 70.85698"><defs><style>.cls-1{fill:#fff;stroke:#fff;}</style></defs><g id="Ebene_1-2"><g id="Gruppe_219"><path id="Pfad_165" class="cls-1" d="M10.87441,39.23398c-.425-1.205,.547-2.8,.943-3.932,.524-1.5,1.134-2.953,1.794-4.392,1.31786-2.97963,2.86065-5.8546,4.615-8.6,3.456-5.248,7.776-9.6,12.242-13.967,2.012-1.967,4.043-3.966,6.2-5.78,.325-.273,1.258-1.124,1.475-1.119,.639,.013,.445,.058,.572,.6,.0537,.5283,.06273,1.06018,.027,1.59,.059,1.583,.173,3.163,.212,4.747,.06295,6.51796-.46993,13.02804-1.592,19.449-.528,3.32-1.2,6.472-2.029,9.731-.849,3.35-1.248,6.8-2.061,10.169-.094,.39,.977,.23,1.065-.134,.813-3.369,1.212-6.818,2.061-10.169,.855-3.375,1.537-6.647,2.086-10.085,1.21442-7.03133,1.70431-14.16869,1.462-21.3-.036-.785-.095-1.569-.125-2.355,.06778-.81002,.05371-1.62481-.042-2.432-.151-.568-.3-.778-.937-.753-.85402,.20786-1.63446,.64651-2.256,1.268-1.381,1.048-2.614,2.3-3.887,3.472-5.0521,4.43759-9.67027,9.34607-13.792,14.659-2.28454,3.16713-4.25422,6.54986-5.881,10.1-.794,1.677-1.545,3.375-2.169,5.123-.458,1.282-1.528,3.038-1.051,4.392,.131,.371,1.188,.065,1.065-.285"/><path id="Pfad_166" class="cls-1" d="M9.66941,39.87998c2.861,.627,5.311,2.012,8,3.168s5.388,2.315,8.069,3.5c2,.885,4.41,2.846,6.67,2.9,1.171,.028,1.358-.588,1.584-1.631,.086-.4-.985-.23-1.064,.134-.265,1.219-.72,.848-1.861,.327-.944-.431-1.826-1.005-2.763-1.458-2.071-1-4.213-1.857-6.321-2.773-3.826-1.662-7.6-3.853-11.66-4.743-.34-.074-1.252,.447-.652,.578"/><path id="Pfad_167" class="cls-1" d="M22.07541,15.45398l-.1,.222,.858-.356c-2.534-.279-5.079-.739-7.616-.083-2.31501,.62379-4.41541,1.86868-6.074,3.6-1.9586,2.16073-3.66491,4.53736-5.086,7.084-1.427,2.364-3.392,5.171-3.555,8.005-.01363,.08093,.03149,.1603,.108,.19,1.423,.636,2.977,.309,4.486,.283,.8-.014,1.608-.021,2.412-.08,1.25-.092,2.515-.575,3.756-.584,.4,0,1.13-.609,.414-.6-1.611,.012-3.123,.573-4.74,.639-1.25358,.11412-2.51244,.15985-3.771,.137-1.393-.1-1.679-.6-1.314-1.81,.31899-.91524,.7287-1.79629,1.223-2.63,.741-1.377,1.485-2.749,2.309-4.079,1.632-2.633,3.379-5.5,5.808-7.473,3.345-2.716,6.976-2.463,10.99-2.021,.33204,.0695,.6727-.07184,.858-.356l.1-.222c.143-.327-.913-.214-1.065,.134"/><path id="Pfad_168" class="cls-1" d="M38.78041,21.36898c2.974,2.517,5.9,5.572,7.462,9.184,1.58,3.655,1.094,7.65,.647,11.5-.22363,1.80659-.58636,3.59324-1.085,5.344-.06695,.71589-.2204,1.42103-.457,2.1-.765,.916-1.865-.449-2.407-.888-2.951-2.2362-5.51506-4.94147-7.59-8.008-.188-.3-1.223,.046-.989,.417,1.24197,1.93462,2.72412,3.70405,4.411,5.266,1.49776,1.53628,3.12994,2.93552,4.877,4.181,2.857,1.82,3.226-3.155,3.661-4.765,.57326-2.26634,.91633-4.58475,1.024-6.92,.25859-2.26842,.13828-4.56404-.356-6.793-1.325-4.436-4.756-8.119-8.211-11.042-.286-.242-1.278,.172-.989,.417"/><path id="Pfad_169" class="cls-1" d="M33.37741,16.75598c-1.584-1.758-4.844-.994-6.536,.243-2.598,1.895-1.689,5.425,.702,7.025,2.2,1.474,5.129,1.885,6.388-.978,.59308-1.33922,.72224-2.83807,.367-4.259-.221-.851-.528-2.367-1.422-2.778-.314-.144-1.287,.313-.848,.515,.984,.452,1.462,3.218,1.416,4.141-.04186,.82029-.22523,1.62717-.542,2.385-.08521,.26112-.21403,.50591-.381,.724l-2.356,.674c-.4129-.13099-.80264-.32604-1.155-.578-1.589-.878-2.974-2.54-2.678-4.475,.369-2.415,4.227-4.249,6.05-2.226,.246,.273,1.263-.112,.989-.417"/><path id="Pfad_170" class="cls-1" d="M28.93842,30.54598c-.77-1.737-4.331-1.808-5.831-1.178-1.31465,.56107-2.37314,1.59175-2.969,2.891-.671,1.686,.662,3.265,1.829,4.4,1.859,1.808,5.114,3.121,7.04,.7,.96525-1.22369,1.23833-2.85575,.724-4.327-.327-1.1-.482-2.574-1.675-3.081-.316-.135-1.287,.328-.847,.515,1.079,.459,1.883,3.344,1.786,4.425-.05878,.37279-.15942,.73776-.3,1.088-.4,1.169-.477,1.164-1.831,1.558-1.3,.379-1.371,.4-2.368-.183-.55669-.30685-1.0747-.67916-1.543-1.109-.59854-.5965-1.11629-1.26889-1.54-2-.821-1.366-.135-2.686,.984-3.675,1.044-.923,4.663-1.563,5.473,.264,.163,.368,1.209,.04,1.065-.285"/><path id="Pfad_171" class="cls-1" d="M15.17741,41.82797c-.93388,1.4825-1.98171,2.89008-3.134,4.21-.524,.6-2.38,2.517-2.117,3.461,.224,.8,1.941,.923,2.577,1.122,2.161,.675,4.294,1.43,6.448,2.128,1.681,.545,3.3,1.231,4.962,1.8,.552,.189,1.2,.483,1.727,.084,.813-.618,.705-2.586,.807-3.446,.3147-1.63914,.43486-3.30969,.358-4.977-.043-.364-1.018-.091-1.065,.209-.005,.033-.01,.065-.015,.1-.064,.413,1.008,.23,1.065-.134l.015-.1-1.064,.209c.07816,1.50749-.02965,3.01887-.321,4.5-.083,.65-.118,1.305-.223,1.952,0,0-.514,1.663,.089,1.194-.3,.236-3.044-1.111-3.572-1.285-1.488-.49-2.983-.955-4.465-1.462-1.3-.446-2.606-.879-3.914-1.307-.57324-.11883-1.13115-.30234-1.663-.547-.35333,.056-.49033-.09801-.411-.462-.13372-.26896-.06071-.59482,.175-.781,.62085-1.1585,1.42145-2.21124,2.372-3.119,.86131-1.05435,1.65012-2.1659,2.361-3.327,.261-.417-.8-.32-.991-.022"/><path id="Pfad_172" class="cls-1" d="M15.26741,53.66499c-2.958-1.194-6.543,2.91499-7.6,5.23399-.1,.229,.373,.23599,.46,.228,.37538-.04428,.74285-.1402,1.092-.285,.66699-.23506,1.35522-.40486,2.055-.507,.581,.487-.8,3.838-.91,4.52499-.14698,1.29655-.08179,2.6084,.193,3.884,.107,.71201,.124,2.866,.719,3.394,1.023,.908,2.366-1.271,2.783-1.73801,.974-1.091,2.039-2.22501,2.919-3.38699,.697-1.06703,1.2751-2.20715,1.724-3.39999l-.956,.32401c1.408,.51199,.883,2.642,2.007,3.217,.29378,.0977,.6173,.03307,.851-.17,.832-.82001,.911-2.5,.8-3.591-.20098-2.28888-1.23587-4.42413-2.908-6-.773-.661-2.331-2.021-3.418-1.746-1.231,.312-1.846,2.41499-1.947,3.46201-.022,.231,.3,.254,.46,.228,.89469-.19063,1.7468-.54381,2.514-1.04201l-.863-.091c-.023,1.983-2.142,3.55-2.353,5.60001-.01,.10001,.03,.13699,.108,.19099,2.4,1.636,6.726-5.686,4.231-7.27-.293-.186-1.275,.244-.847,.515,1.9,1.20599-1.67,6.623-2.4,6.11501-.374-.26199,2.311-4.412,2.321-5.287,0-.39999-.672-.2-.863-.091-.54549,.3063-1.11706,.56364-1.708,.769l.459,.228c.09-.924,.494-2.448,1.354-2.929l-.754,.10001c2.16039,.84381,3.88502,2.52946,4.778,4.67,.556,1.45799,1.548,4.644,.176,6l.85-.17c-.409-.21001-.672-1.533-.873-1.937-.29-.58299-.486-1.045-1.134-1.28-.35524-.12764-.75157,.00668-.956,.32401-.67049,1.56284-1.56487,3.01978-2.655,4.325-1.01,1.188-1.994,2.957-3.292,3.8l.754-.10001c-.524-.224-.627-1.966-.711-2.435-.30428-1.31914-.4387-2.67177-.4-4.02499,.156-1.715,1.443-3.731,1.122-5.42-.017-.091-.135-.125-.206-.146-1.329-.409-2.687,.66499-3.976,.784l.459,.228c.7-1.539,3.674-5.39999,5.685-4.58501,.318,.12801,1.287-.33701,.847-.515"/><path id="Pfad_173" class="cls-1" d="M31.78642,6.11698c1.06228,1.21901,2.35331,2.21786,3.8,2.94,1.1,.5,2.394,.591,3.427,1.191,.19578,.06366,.41058,.02085,.567-.113l.153-.12c.316-.248-.389-.258-.569-.117l-.153,.12,.567-.113c-1.0478-.42852-2.1196-.7958-3.21-1.1-1.49841-.70852-2.83381-1.71976-3.922-2.97-.169-.18-.845,.081-.659,.278"/><path id="Pfad_174" class="cls-1" d="M35.17041,4.23098c-.55388,.22928-1.01602,.63585-1.314,1.156l.66,.015c.31438-.5558,.67039-1.08698,1.065-1.589,.208-.263-.5-.175-.615-.066-.64031,.55749-1.25082,1.14831-1.829,1.77l.661,.015c.29171-.41456,.67056-.76031,1.10999-1.013l-.575-.061c.01395,.35369-.10442,.69989-.332,.971-.186,.324,.512,.144,.615,.066,.511-.388,.825-.987,1.324-1.357l-.64-.014c-.26539,.68337-.60368,1.33615-1.009,1.947-.183,.311,.536,.16,.661,.015,.731-.848,1.215-1.882,1.936-2.706l-.685,.037c-.09559,.7294-.35545,1.42759-.76,2.042-.22359,.70269-.53434,1.37459-.925,2l.661,.015c.484-.9,.991-1.788,1.477-2.7,.32715-.82004,.72883-1.60834,1.2-2.355l-.685,.037c-.212,1.919-1.4,3.521-1.971,5.321-.01012,.05451,.02081,.1083,.073,.127,1.58,.621,2.645-4.264,3.184-4.9l-.685,.037c0,1.716-1.509,3.145-1.695,4.848-.033,.305,.595,.1,.685-.037,.9-1.381,1.134-3.053,1.94-4.479l-.684,.031c-.252,1-.607,1.967-.865,2.959l.71-.089c.161-.681,1.345-3.27-.224-3.07-.594,.078-1.06,.721-1.424,1.118-.782,.852-1.278,1.863-1.981,2.769l.661,.015c.422-.623,.894-1.454,.371-2.162-.22488-.38702-.71712-.5245-1.11-.31-1.7,1.057,2.015,3.554,2.607,4.025l.612-.31c-1.114-.747-2.221-2.157-3.581-2.47-.151-.035-.546,.035-.572,.237-.119,.927,1.657,1.912,2.356,1.124,.773-.871-1.358-1.7-1.98-1.736-.17753-.01196-.35051,.05938-.468,.193-.821,1.248,1.307,1.912,2.214,2.016,.159,.018,.537-.023,.572-.237,.242-1.5-4.538-1.6-1.648,.943,.524,.46,1.562,1.125,2.132,.369,.619-.823-.959-3.088-1.748-3.323-.959-.285-1.115,.533-.828,1.264,.414,1.054,1.945,2.723,3.245,2.452,2.035-.423,.393-4.052-.573-2.33-.412,.735,.05,2.171,1.045,1.907,1.342-.356,1.216-2.8,.743-3.718-.086-.165-.361-.108-.495-.051-.941,.405-.993,2.988,.008,3.328,.21875,.07269,.45977,.0082,.613-.164,.66677-1.11231,.90765-2.42865,.678-3.705-.044-.237-.7-.068-.71,.14-.03492,.73389-.01353,1.46938,.064,2.2-.05437,.70101,.01329,1.40613,.2,2.084,.1,.215,.507,.079,.639-.037,.29314-.17156,.3917-.54828,.22013-.84142-.05209-.089-.12572-.16348-.21413-.21658-.168-.144-.463-.035-.614,.081-.339,.26-.737,.714-1.185,.646l-.435,.385c.705,.1,1.353-.024,2.069,.036,.187,.015,.753-.306,.355-.394-.794-.178-1.455-.7-2.239-.8-.129-.017-.729,.089-.547,.331,.474,.631,2.547,1.537,3.244,.823,.055-.056,.1-.125,.045-.2-.521-.638-1.683-1.219-2.4-.475-.822,.856,.453,1.248,1.132,1.351,.20229,.03625,.40907-.03355,.548-.185,.24-.353,.142-.841,.214-1.28,.038-.23-.392-.151-.495-.1-.576,.28-1.462,.752-2.05,.214-.512-.468,.39-2.169,.53-2.457,.5926-.84188,.89931-1.85175,.875-2.881-.044-.268-.6-.017-.685,.088-.50331,.78237-.81192,1.6739-.9,2.6-.065,.279,.6,.118,.685-.037,.76224-1.2611,1.29418-2.64768,1.571-4.095,.03-.236-.385-.144-.5-.1-1.3,.506-1.831,2.287-2.9,3.106l.615,.066c.3852-.66883,.8588-1.28269,1.408-1.825,.34423-.25907,.63808-.57902,.867-.944,.147-.3-.432-.191-.551-.113-.85529,.68588-1.74548,1.32707-2.667,1.921l.551,.113c.33906-.52824,.78122-.98264,1.3-1.336l-.64098-.012c-.26588,.47008-.63143,.87625-1.071,1.19-.318,.277,.4,.243,.569,.116,.438-.33,.731-.75,1.14-1.094,.571-.481,.935-.955,.863,.151-.05,.776-.334,1.49-.327,2.275,0,.236,.668,.058,.71-.14,.165-.781,.369-1.552,.548-2.329l-.71099,.089c-.08961,1.24353-.03425,2.49327,.165,3.724,.039,.248,.673,.055,.71-.14,.144-.761,.637-2.552,.006-3.233-.164-.177-.6-.01-.684,.183-.33672,1.2788-.51241,2.59465-.523,3.917-.039,.287,.65,.135,.71-.089,.32-1.2,.878-2.723,.061-3.854-.1-.143-.444-.036-.549,.034-.468,.31-.434,.6-.613,1.142-.4,1.214-.712,2.4-1,3.651-.061,.261,.653,.153,.71-.089,.206-.879,.373-1.779,.647-2.64,.129-.4,.328-1.607,.7-1.854l-.55,.034c.768,1.063,.187,2.548-.111,3.666l.71-.089c.00936-1.32349,.18372-2.64065,.51901-3.921l-.684,.183c.524,.566,.062,2.413-.057,3.044l.71-.14c-.18163-1.19823-.23693-2.41222-.165-3.622,.025-.291-.658-.138-.71,.089-.18,.778-.383,1.548-.548,2.329l.71-.14c-.006-.588,.914-3.063-.047-3.409-1.01701-.361-2.37501,1.754-2.909,2.156l.569,.116c.50638-.36716,.92114-.84626,1.212-1.4,.114-.276-.567-.069-.639-.013-.55963,.37747-1.03468,.86717-1.395,1.438-.157,.309,.439,.171,.551,.113,.9218-.59399,1.81232-1.23518,2.668-1.921l-.551-.113c-.257,.526-.785,.79-1.164,1.21-.42625,.47746-.79881,1.00026-1.111,1.559-.18,.328,.51,.146,.615,.065,.926-.706,1.523-2.5,2.616-2.93l-.494-.1c-.26665,1.41006-.78202,2.76145-1.522,3.991l.684-.037c.08257-.88907,.37492-1.74587,.853-2.5l-.685,.088c.252,1.551-2.493,4.1-1.261,5.589,.783,.946,2.113,.018,2.9-.363l-.5-.1-.248,.638c-.024,.036-.046,.113,0,.146,.02733,.13333,.05467,.264,.082,.392l.547-.185c-.52-.079,.107-.314,.03-.486-.011-.025-.491-.176-.693-.253-.42948-.11564-.82117-.34182-1.136-.656l-.547,.332c.729,.1,1.491,.633,2.24,.8l.355-.394c-.64-.053-1.272,.071-1.91-.018-.221-.031-.836,.324-.435,.385,1.036,.159,1.419-.325,2.188-.915l-.614,.081c.02733,.22133,.05534,.44267,.084,.664l.639-.037c-.14107-.47844-.18993-.97932-.14399-1.476-.09509-.89667-.13251-1.79853-.112-2.7l-.71,.14c.2026,1.20431-.01976,2.44159-.629,3.5l.613-.164c-.541-.184-.857-2.45-.292-2.693l-.5-.051c.33286,.64548,.42129,1.38948,.249,2.095-.163,.647-.534,1.356-.693,.279-.134-.911,.047-.752,.105-.066,.017,.2,.169,.7,.038,.879-.475,.654-1.373-.184-1.72-.489-.176-.154-1.352-1.808-1.172-1.855,.26-.067,1.226,1.523,1.281,1.723,.351,1.284-.826,.373-1.212-.149-.946-1.275,.873-.8,.757-.082l.572-.237c-.046-.005-2.735-.772-2.01-1.276,.22366,.07943,.43929,.17988,.644,.3,.738,.762-.589,.521-.481-.322l-.572,.237c1.307,.3,2.371,1.7,3.451,2.428,.169,.113,.807-.156,.612-.311-.81091-.52918-1.55905-1.14883-2.23-1.847-.2896-.31887-.48154-.71421-.55299-1.139,.272,.08533,.30534,.32733,.1,.726-.11109,.34755-.28014,.67381-.5,.965-.188,.277,.528,.186,.661,.015,.485-.625,1.461-2.893,2.274-3.051,.14267-.31333,.26334-.32467,.362-.034,.14585,.09176,.1897,.28438,.09795,.43023-.00835,.01328-.01769,.0259-.02795,.03777-.07271,.64021-.22314,1.26918-.448,1.873-.062,.263,.648,.149,.71-.089,.258-.993,.612-1.953,.865-2.959,.07-.28-.6-.111-.685,.037-.8,1.424-1.041,3.1-1.94,4.479l.685-.037c.186-1.706,1.69-3.117,1.695-4.848,0-.32-.578-.091-.685,.037-.44905,.71173-.7882,1.48712-1.006,2.3-.37886,.59767-.69678,1.23184-.949,1.893-.062,.638,.311-.151,.485-.416,.21186-.42322,.38975-.8626,.532-1.314,.49483-.96866,.83977-2.00681,1.023-3.079,.036-.323-.59-.074-.685,.037-.4793,.742-.88139,1.53111-1.2,2.355-.49,.9-.993,1.8-1.477,2.7-.171,.318,.537,.169,.661,.015,.35835-.54838,.63586-1.14551,.82398-1.773,.46545-.71904,.77227-1.52904,.89999-2.376,0-.323-.578-.086-.685,.037-.721,.826-1.2,1.858-1.936,2.707l.661,.015c.4274-.64313,.78286-1.33125,1.06-2.052,.094-.291-.563-.07-.639-.013-.511,.38-.8,.961-1.324,1.356l.615,.066c.2114-.3225,.34176-.69129,.38-1.075,.025-.272-.461-.12-.575-.061-.53027,.29599-.98534,.71-1.33,1.21-.2,.252,.519,.178,.661,.015,.54984-.58661,1.13031-1.14372,1.739-1.669l-.615-.066c-.39428,.50204-.74996,1.03323-1.064,1.589-.172,.3,.536,.185,.66,.015,.22982-.3687,.55127-.67154,.933-.879,.465-.172,.042-.411-.28-.292"/></g></g></svg>