<?xml version="1.0" encoding="UTF-8"?><svg id="Ebene_2" xmlns="http://www.w3.org/2000/svg" viewBox="0 0 27.51093 42.42714"><defs><style>.cls-1{fill:#fff;}</style></defs><g id="Ebene_1-2"><g id="Gruppe_202"><g id="Gruppe_201"><path id="Pfad_152" class="cls-1" d="M.27727,25.813c1.382,1.511,3.086,.819,5.222,2.957,1.009,.95,1.116,.864,.9,.463,.283,.278,.579,.526,.865,.794,.481,1.843,2.226,3.331,4.246,4.552,3.269,1.974,7.19,3.233,7.626,4.054,.116,.217-.558,2.143-.1,1.931,.22029-.447,.47647-.8754,.766-1.281,.129,.076,.423,.268,.762,.5,.268,.185,.477,.334,.685,.478,.07045-.08176,.15966-.14524,.26-.185,.01191,.11614-.00139,.23348-.039,.344,.31967,.1952,.60963,.43532,.861,.713-1.43,2.151,4.963,.95,4.765,1.041-.607-.142-3.514-.258-3.095-.071-.42253-.62697-.77656-1.29748-1.056-2,.582-.417,2.262,2.4,2.8,.89,.114-.326-.535-.976-1.363-1.63,2.134,.677,3.675,1.036,2.945,.4-4.588-3.99401-8.883-8.57401-13.476-12.57401-1.94089-1.31326-3.95296-2.5181-6.027-3.609,4.34-2.073,8.594-7.674,11.833-10.919,1.408-1.408,8.3-12.959,6.866-11.844-1.485,1.155-2.949,2.338-4.4,3.528,.20536-.37069,.33455-.77868,.38-1.2,.086-.139,.169-.278,.249-.415,1,.609,.436,.1,.2-.326,.084-.144,.165-.283,.245-.415,.075,.01,.163,.023,.273,.04-.09-.018-.185-.02-.273-.04,.43303-.61686,.78806-1.28494,1.057-1.989-.449,.394-1.273,1.008-2.335,1.774-.183-.03-.367-.076-.55-.1,.388-.172,.487-.493,.292-.968,.082,.083-1.9,.725-1.616,.536,.131-.091-4.333,4.33-7.862,7.815-2.75448,2.13373-5.22928,4.60584-7.366,7.358-1.942,1.724-3.417,3.352-.271,.377-.27617,.41629-.526,.84947-.748,1.297-.732,1.036-1.535,1.969-2.237,3.043-.638,.048-.8,.511-.182,1.6-.874,1.1-1.878,2.234-1.1,3.076m22.825,15.881l-.082-.794c.275-.169,.464-.058,.082,.794M3.30427,25.654c-.015,.02-.03,.043-.077,.106,0,0,.049-.063,.077-.106m5.945,6.658c-1.3-.811-.9-1.269,0,0m.839,.5c.051,.023,.039-.139,.011-.056,.129-.6,.44,.281-.011,.056m11.949,6c-.75679-.12034-1.46216-.45844-2.03-.973,.492,.185,1.005,.372,1.524,.556,.10865,.19899,.28991,.34837,.506,.417M1.81027,23.42c-.178,.066-.307,.1-.251,.018,.04031-.06482,.10072-.11469,.172-.142,.026,.045,.052,.078,.079,.124"/></g></g></g></svg>