<?xml version="1.0" encoding="utf-8"?>
<!-- Generator: Adobe Illustrator 26.3.1, SVG Export Plug-In . SVG Version: 6.00 Build 0)  -->
<svg version="1.1" id="Ebene_2_00000014620138933311854760000015223491958888626079_"
	 xmlns="http://www.w3.org/2000/svg" xmlns:xlink="http://www.w3.org/1999/xlink" x="0px" y="0px" viewBox="0 0 27.5 42.4"
	 style="enable-background:new 0 0 27.5 42.4;" xml:space="preserve">
<style type="text/css">
	.st0{fill:#FFFFFF;}
</style>
<g id="Ebene_1-2">
	<g id="Gruppe_203" transform="translate(612.241)">
		<g id="Gruppe_201-2" transform="translate(0)">
			<path id="Pfad_152-2" class="st0" d="M-585,25.8c-1.4,1.5-3.1,0.8-5.2,3c-1,1-1.1,0.9-0.9,0.5c-0.3,0.3-0.6,0.5-0.9,0.8
				c-0.5,1.8-2.2,3.3-4.3,4.6c-3.3,2-7.2,3.2-7.6,4.1c-0.1,0.2,0.6,2.1,0.1,1.9c-0.2-0.4-0.5-0.9-0.8-1.3c-0.1,0.1-0.4,0.3-0.8,0.5
				c-0.3,0.2-0.5,0.3-0.7,0.5c-0.1-0.1-0.2-0.1-0.3-0.2c0,0.1,0,0.2,0,0.3c-0.3,0.2-0.6,0.4-0.9,0.7c1.4,2.2-5,1-4.8,1
				c0.6-0.1,3.5-0.3,3.1-0.1c0.4-0.6,0.8-1.3,1.1-2c-0.6-0.4-2.3,2.4-2.8,0.9c-0.1-0.3,0.5-1,1.4-1.6c-2.1,0.7-3.7,1-2.9,0.4
				c4.6-4,8.9-8.6,13.5-12.6c1.9-1.3,4-2.5,6-3.6c-4.3-2.1-8.6-7.7-11.8-10.9c-1.4-1.4-8.3-13-6.9-11.8c1.5,1.2,2.9,2.3,4.4,3.5
				c-0.2-0.4-0.3-0.8-0.4-1.2c-0.1-0.1-0.2-0.3-0.2-0.4c-1,0.6-0.4,0.1-0.2-0.3c-0.1-0.1-0.2-0.3-0.2-0.4c-0.1,0-0.2,0-0.3,0
				c0.1,0,0.2,0,0.3,0c-0.4-0.6-0.8-1.3-1.1-2c0.4,0.4,1.3,1,2.3,1.8c0.2,0,0.4-0.1,0.5-0.1c-0.4-0.2-0.5-0.5-0.3-1
				c-0.1,0.1,1.9,0.7,1.6,0.5c-0.1-0.1,4.3,4.3,7.9,7.8c2.8,2.1,5.2,4.6,7.4,7.4c1.9,1.7,3.4,3.4,0.3,0.4c0.3,0.4,0.5,0.9,0.7,1.3
				c0.7,1,1.5,2,2.2,3c0.6,0,0.8,0.5,0.2,1.6C-585.2,23.8-584.2,25-585,25.8 M-607.8,41.7l0.1-0.8C-608,40.7-608.2,40.8-607.8,41.7
				 M-588,25.7c0,0,0,0,0.1,0.1C-588,25.8-588,25.7-588,25.7 M-594,32.3C-592.7,31.5-593.1,31-594,32.3 M-594.8,32.8
				C-594.9,32.8-594.9,32.7-594.8,32.8C-595,32.2-595.3,33-594.8,32.8 M-606.8,38.8c0.8-0.1,1.5-0.5,2-1c-0.5,0.2-1,0.4-1.5,0.6
				C-606.4,38.6-606.5,38.7-606.8,38.8 M-586.5,23.4c0.2,0.1,0.3,0.1,0.3,0c0-0.1-0.1-0.1-0.2-0.1
				C-586.5,23.3-586.5,23.4-586.5,23.4"/>
		</g>
	</g>
</g>
</svg>
