<?xml version="1.0" encoding="UTF-8"?><svg id="Ebene_2" xmlns="http://www.w3.org/2000/svg" viewBox="0 0 64.10952 62.96481"><defs><style>.cls-1{fill:#003063;}</style></defs><g id="Ebene_1-2"><g><path id="Pfad_156" class="cls-1" d="M32.90327,62.96481c-13.056-.334-23.03101-5.9-29.821-16.733C-.09372,41.16381-.39772,35.36781,.32527,29.40681c.65732-4.20076,1.94022-8.27935,3.806-12.1,2.42816-5.42173,6.49713-9.94437,11.633-12.93C20.29828,1.61781,25.33528-.30019,30.60827,.03881c6.22701,.4,12.5,1.449,17.95599,4.939,2.5,1.6,5.293,2.992,7.276,5.112,7.10001,7.582,9.545,16.684,7.65401,26.89-2.548,13.748-11.627,21.31-24.33499,25.244-2.024,.626-4.27499,.524-6.255,.74m-.439-2.011c5.68201,.371,10.60001-1.628,15.265-4.5,7.827-4.821,13.049-11.727,14-20.81,1.13499-10.825-1.285-20.633-11.543-26.916-5.5-3.367-11.239-5.882-17.714-6.391-7.89999-.622-14.2,3.052-20.237,7.573-3.30765,2.47434-5.70917,5.96837-6.834,9.943-.41701,1.355-.944,2.675-1.394,4.021-3.03799,9.078-2.87399,17.375,3.689,25.392,6.60699,8.071,15.07899,10.924,24.76601,11.69"/><path id="Pfad_157" class="cls-1" d="M28.24727,47.05181c-.17509-.85832-.297-1.72664-.36501-2.6-.069-6.267-.05701-12.535-.172-18.8-.026-1.415,.414-2.084,1.815-2.168,1.62454-.18834,3.25771-.29281,4.89301-.313,.76215,.15046,1.48767,.44801,2.136,.876,2.62871-.39629,5.27751-.64534,7.93401-.746,2.444,.03,3.88501,1.724,5.03201,3.87,3.077,5.753,2.452,11.879,1.99399,17.973-.04901,.653-1.30701,1.586-2.125,1.737-2.2262,.31233-4.46669,.51259-6.713,.6-.19717-.86218-.34244-1.73541-.435-2.615-.15199-3.354-.12801-6.72-.39301-10.064-.22099-2.794-1.638-4.747-3.005-4.316-2.106,.663-2.394,2.721-2.49001,4.554-.14,2.678-.01801,5.371,.036,8.057,.06,2.952-.278,3.4-3.12399,3.653-1.554,.139-3.116,.193-5.01801,.306m1.519-1.841c.80795-.10444,1.62137-.16121,2.436-.17,1.845,.1,2.5-.7,2.343-2.533-.17067-1.8589-.17502-3.72932-.013-5.589,.15416-1.77842,.52353-3.53156,1.10001-5.221,.47772-1.5674,1.9639-2.60606,3.60001-2.516,1.55569-.05914,2.94112,.97701,3.32401,2.486,.46222,1.25829,.79527,2.56032,.994,3.886,.39999,3.159,.661,6.337,.99001,9.63l5.40501-.321c.133-5.347,.452-10.616-1.349-15.729-1.94601-5.525-7.616-6.687-11.811-2.467-.76027,.6358-1.56908,1.21122-2.41901,1.721l-.252-2.913-4.34599-.461-.00204,20.19699Z"/><path id="Pfad_158" class="cls-1" d="M15.68128,35.15281c0-3.2-.047-6.411,.043-9.613,.017-.588,.513-1.6,.91499-1.665,1.97583-.35768,3.98117-.52677,5.989-.505,.76546,.24,1.35056,.86148,1.54401,1.64,.14101,6.477,.14301,12.958,.151,19.438,0,1.464-.47301,2.375-2.284,2.146-2.123-.269-5.05,.536-6.2-.588-1.10001-1.074-.394-4.025-.44299-6.153-.035-1.566-.007-3.133-.007-4.7h.3m6.70801-9.718l-4.868-.362v19.716c1.08876,.06388,2.18124-.00868,3.252-.216,.64301-.221,1.536-1.022,1.547-1.58,.11301-5.74,.07001-11.483,.07001-17.557"/><path id="Pfad_159" class="cls-1" d="M24.74627,16.61081c-.10001,3.529-1.57201,5.212-4.495,5.123-2.37708-.10144-4.22185-2.11069-4.12039-4.48777,.00238-.05581,.00584-.11156,.01039-.16723,.28357-2.45408,2.28709-4.35096,4.75301-4.5,2.13733,.00813,3.86337,1.74737,3.85524,3.8847-.00018,.04811-.00125,.09622-.00323,.1443m-1.474,.255c0-1.811-.908-2.753-2.42799-2.7-1.58282,.30218-2.73026,1.68261-2.73801,3.294,.013,1.44,1.47099,3.069,2.814,2.942,2.3-.218,1.961-2.227,2.351-3.539"/></g></g></svg>