<?xml version="1.0" encoding="utf-8"?>
<!-- Generator: Adobe Illustrator 26.3.1, SVG Export Plug-In . SVG Version: 6.00 Build 0)  -->
<svg version="1.1" id="Ebene_2_00000021825394014735604060000013099460584153497492_"
	 xmlns="http://www.w3.org/2000/svg" xmlns:xlink="http://www.w3.org/1999/xlink" x="0px" y="0px" viewBox="0 0 27.2 20.9"
	 style="enable-background:new 0 0 27.2 20.9;" xml:space="preserve">
<style type="text/css">
	.st0{fill:#FFFFFF;}
</style>
<g id="Ebene_1-2">
	<g id="Gruppe_1" transform="translate(1259.218 26.657)">
		<path id="Pfad_2" class="st0" d="M-1257.5-26.7c-1,0-1.7,0.8-1.7,1.7c0,1,0.8,1.7,1.7,1.7h23.7c1,0,1.7-0.8,1.7-1.7
			c0-1-0.8-1.7-1.7-1.7H-1257.5z M-1257.5-17.9c-1,0-1.7,0.8-1.7,1.7c0,1,0.8,1.7,1.7,1.7h23.7c1,0,1.7-0.8,1.7-1.7
			c0-1-0.8-1.7-1.7-1.7H-1257.5z M-1257.5-9.2c-1,0-1.7,0.8-1.7,1.7s0.8,1.7,1.7,1.7h23.7c1,0,1.7-0.8,1.7-1.7c0-1-0.8-1.7-1.7-1.7
			C-1233.8-9.2-1257.5-9.2-1257.5-9.2z"/>
	</g>
</g>
</svg>
