<?xml version="1.0" encoding="UTF-8"?><svg id="Ebene_2" xmlns="http://www.w3.org/2000/svg" viewBox="0 0 28.37102 28.31073"><defs><style>.cls-1{fill:#fff;}</style></defs><g id="Ebene_1-2"><path id="Pfad_1" class="cls-1" d="M27.90258,25.62666l-6.962-6.962c3.87593-5.13289,2.85697-12.43599-2.27592-16.31192C13.53177-1.5232,6.22867-.50423,2.35273,4.62866-1.5232,9.76155-.50423,17.06464,4.62865,20.94058c2.01966,1.52508,4.48114,2.35075,7.01192,2.35207,2.54447,.01191,5.02068-.82253,7.039-2.372l7,6.923c.29681,.30264,.70412,.47127,1.128,.467,.42242-.00304,.82705-.17056,1.128-.467,.59319-.62521,.57854-1.60971-.033-2.217Zm-16.21799-5.484c-4.7038-.00671-8.51155-3.82534-8.50484-8.52915S7.00509,3.10196,11.70889,3.10867c2.25141,.00321,4.40996,.89774,6.00369,2.48798,1.6162,1.58636,2.51516,3.7635,2.489,6.028,.00208,2.26128-.89307,4.43101-2.489,6.033-1.59123,1.6085-3.76551,2.50483-6.028,2.485Z"/></g></svg>