<?xml version="1.0" encoding="UTF-8"?><svg id="Ebene_2" xmlns="http://www.w3.org/2000/svg" viewBox="0 0 37.00308 62.20339"><defs><style>.cls-1{fill:#fff;}</style></defs><g id="Ebene_1-2"><g id="Gruppe_195" transform="translate(0 0)"><path id="Pfad_148" class="cls-1" d="M2.27985,61.83499c4.74733-3.95867,9.29267-8.131,13.636-12.517,.21955-.12303,.40352-.30079,.534-.516,4.6323-7.56814,8.83592-15.39045,12.591-23.43,1.865-3.9,3.517-7.9,5.342-11.815,.256-.549,1.93-2.5,2.186-3.755,.28518-.14188,.45599-.44238,.432-.76-.13448-.88825-.51757-1.7203-1.105-2.4-.75824-2.76622-2.78556-5.00771-5.462-6.039-2.62336-.94996-5.52294-.7715-8.01,.493-.82038,.09029-1.57243,.49936-2.094,1.139-.04127,.07059-.02976,.16013,.028,.218l.006,.006c-1.763,1.879-2.763,4.444-3.895,6.746-1.716,3.483-3.349,7.005-4.943,10.547-3.116,6.921-6.115,13.875-10.025,20.401-.19981,.30811-.24279,.69235-.116,1.037-.23001,.1417-.3842,.37923-.42,.647-.03836,.22388-.01271,.45405,.074,.664-.08417,.26499-.11077,.5449-.078,.821,.03481,.31005,.12276,.6118,.26,.892-.26377,1.4317-.43745,2.87855-.52,4.332C.21777,52.64302-.016,56.76562,.00085,60.89099c.02188,.74637,.64467,1.33368,1.39103,1.31181,.33105-.0097,.64702-.14058,.88797-.36781M30.80085,6.23299c.71404,.44001,1.39306,.93448,2.031,1.479,.333,.286,.608,.56,.872,.818,.04867,.18533,.09767,.37267,.147,.562,.02391,.07663,.05751,.14989,.1,.218-1.649,1.614-2.36,3.831-3.322,5.977-1.67533,3.73333-3.42533,7.43333-5.25,11.1-3.349,6.739-7.049,13.252-10.728,19.806-.74337-.61574-1.51843-1.19219-2.322-1.727,.031-.052,.062-.1,.094-.155,3.72001-5.94151,7.03036-12.12988,9.908-18.522,1.26667-2.84133,2.447-5.71833,3.541-8.631,1.401-3.743,2.389-7.761,4.929-10.925M13.72085,21.03299c1.453-3.356,2.938-6.7,4.5-10,1.1-2.328,2.658-4.79,3.3-7.362,.22933-.10067,.45833-.20067,.687-.3,.23,.042,.472,.081,.738,.127,1.78024,.2521,3.52523,.70982,5.2,1.364,.60913,.25972,1.20458,.55043,1.784,.871-1.59483,2.28157-2.81957,4.80057-3.629,7.464-1.46667,4.08-3.1,8.094-4.9,12.042-1.55,3.38267-3.20933,6.71333-4.978,9.992-.938,1.73333-1.909,3.44833-2.913,5.145-.557,.942-1.13,1.875-1.7,2.809-.159,.259-.311,.474-.44,.663-2.21955-1.37873-4.59179-2.49488-7.069-3.326,3.52156-6.30486,6.66771-12.81219,9.422-19.488M3.34585,41.897c.919,.472,1.852,.919,2.778,1.378-.81636-.29597-1.65154-.53717-2.5-.722-.08555-.22139-.19344-.43349-.322-.633,.014-.008,.03-.014,.044-.023m-.092,7.33c.174-1.835,.923-4.026,.6-5.869,1.72038,.65337,3.38176,1.45261,4.966,2.389,.24779,.30761,.59317,.5214,.979,.606h.022c1.057,.666,2.105,1.395,3.174,2.2-1.82067,1.77533-3.67133,3.51733-5.552,5.226-.91665-1.52124-2.58714-2.42466-4.362-2.359,.057-.73,.1-1.461,.172-2.191"/></g></g></svg>