<?xml version="1.0" encoding="utf-8"?>
<!-- Generator: Adobe Illustrator 26.3.1, SVG Export Plug-In . SVG Version: 6.00 Build 0)  -->
<svg version="1.1" id="Ebene_2_00000174575413371869255460000010416527895464385438_"
	 xmlns="http://www.w3.org/2000/svg" xmlns:xlink="http://www.w3.org/1999/xlink" x="0px" y="0px" viewBox="0 0 131.9 123.9"
	 style="enable-background:new 0 0 131.9 123.9;" xml:space="preserve">
<style type="text/css">
	.st0{fill:#FFFFFF;}
</style>
<g id="Ebene_1-2">
	<g id="Gruppe_162" transform="translate(1184.218 0)">
		<g>
			<g>
				<g id="Gruppe_161" transform="translate(0 0)">
					<path id="Pfad_35" class="st0" d="M-1135.2,22.1c-1.1,0.4-2.4,0.4-3.5,0.2c0.1-0.5,0.3-1,0.7-1.4c0.2-0.4,0.7-0.6,1.2-0.4
						c0.1,0,0.1,0.1,0.2,0.1c0.5,0.2,1,0.4,1.5,0.6c0.2,0.1,0.5,0.1,0.5,0.5C-1134.8,21.8-1135,22-1135.2,22.1 M-1141.8,15.5
						c-0.3,0.6-0.8,0.5-1.3,0.3c-0.5-0.1-0.9-0.6-1.5-0.4c0.3,0.9,0.5,1.7,1.6,1.9c0.5,0.1,0.5,0.5,0.4,0.9
						c-0.2,1.6-0.7,3.1-1.4,4.6c-0.1,0.3-0.4,0.5-0.7,0.5c-2.8,0.2-5.6,0.6-8.5,0.7c-1.5,0.1-3-0.2-4.5-0.3c-0.3,0-0.6-0.2-0.8-0.5
						c-1.1-1.7-1.7-3.7-2.9-5.4c-0.3-0.4,0-0.7,0.2-0.9c1.6-1.3,3.3-2.5,5-3.5c0.6-0.3,1.4-0.4,2.1-0.1c1.8,0.6,3.5,1.3,5.3,1.9
						c0.2,0.1,0.5,0.2,0.8,0.2c0.5-0.1,1.3,0,1.4-0.6c0.1-0.5-0.7-0.5-1.2-0.7c-1.4-0.5-2.9-1.1-4.3-1.6c-0.3-0.1-0.7-0.2-0.7-0.6
						c0-0.3,0.4-0.4,0.6-0.5c3-2.2,6.6-3,10.3-3.4c1.6-0.2,2.6,0.8,2.2,2.3C-1140.2,12.1-1140.9,13.8-1141.8,15.5 M-1149.4,35.3
						c-0.8,0.9-1.4,1-2.2,0c-0.4-0.5-0.7-1-1.1-1.6c-1.3-1.5-1.9-3.5-2.8-5.4c-0.3-0.5,0.2-0.6,0.5-0.7c2.8-0.3,5.6-0.6,8.5-0.9
						c0.6-0.1,0.7,0.2,0.5,0.7c-0.5,1.6-1.6,2.8-2.1,4.4C-1148.3,33.1-1148.8,34.2-1149.4,35.3 M-1161.4,23.8
						c-1.2,0.1-2.3,0.1-3.5,0.1c-1-0.1-1.9,0-2.9,0.3c-1,0.3-2,0.2-3-0.2c-0.6-0.2-0.7-0.5-0.2-0.9c1.2-0.9,2.4-1.7,3.7-2.5
						c1.2-0.7,2.3-1.4,3.3-2.2c0.4-0.4,0.8-0.2,1,0.2c0.8,1.4,1.7,2.8,2.4,4.2C-1160.1,23.5-1160.9,23.7-1161.4,23.8 M-1165.1,12.5
						c-0.7-1-1.4-2.1-1.8-3.2c-0.2-0.7,0.2-0.7,0.6-0.6c2.5,0.9,5.1,1.7,7.6,2.7c0.5,0.2,0.7,0.5,0.2,1c-0.7,0.6-1.4,1.3-2,2
						c-0.8,0.9-2.3,0.9-3.2,0.1c-0.1-0.1-0.3-0.3-0.4-0.5C-1164.4,13.5-1164.8,13-1165.1,12.5 M-1129,21.6c-0.1,0-0.2,0-0.3,0
						c-2.3-0.4-4.1-1.8-6.2-2.8c-0.4-0.2-0.2-0.6-0.1-0.8c1.8-3,2.2-6.6,4-9.7c0.7-1.3,0-2.3-1.3-3.2c-2.1-1.3-4.6-1.7-6.9-1.2
						c-5,0.9-9.9,2.8-14.1,5.6c-1.3,0.9-3,1-4.3,0.3c-1.1-0.5-2.1-1.3-3.3-1.4c-1.4-0.3-2.8-0.8-4.1-1.5c-0.7-0.3-1.3-0.6-1.9-0.9
						c-1.1-0.5-2.5-0.1-3.1,0.9c-0.8,0.9-0.2,1.6,0.4,2.3c1.2,1.5,2.6,2.9,3.7,4.5c0.3,0.4,0.6,0.7,0.9,1.1c1,1.3,0.9,1.5-0.4,2.4
						c-1.9,1.2-3.7,2.4-5.6,3.7c-0.6,0.4-0.8,1.3-1.6,1.5c-1.5,0.2-2.3,1.2-3.4,2c-1.2,0.9-1.8,2.3-1.7,3.8c0,1.5,1.1,2.2,2.7,1.9
						c0.6-0.1,1.2-0.3,1.8-0.4c4.6-0.5,9.3-1,13.9-1.6c1.6-0.2,2,0,2.5,1.5c0.5,1.5,1.4,2.8,2,4.3c0.9,2.2,2.7,3.9,3.5,6.2
						c0.3,0.6,0.6,1.2,1.1,1.6c0.7,0.8,1.8,1.2,2.9,1c1.1-0.3,1.5-1.2,1.7-2.2c0.2-1.2,0.4-2.4,0.6-3.6c0.3-1.8,1.1-3.4,2.3-4.7
						c1.1-0.8,1.7-2.1,1.7-3.5c0-0.7,0.5-1.4,1.2-1.5c2.1-0.6,4.2-1,6.4-1.3c1.9,0,3.7-0.2,5.6-0.4c1.8-0.3,2-1.1,1.4-2.7
						C-1127.3,22-1128.1,21.5-1129,21.6"/>
					<path id="Pfad_36" class="st0" d="M-1052.3,120.5c0.1-2.9,0-5.6-2.4-7.9c-0.6-0.6-1.7-1-1.4-2.1c0.4-1.4-0.6-2.3-1.3-3.4
						c-0.2-0.4-0.9-0.9-1.1-0.9c-1.1,0.4-1-0.4-1.3-1.1c0.4,0.3,0.7,0.5,0.9,0.1c0.2-0.3,0.5-0.7,0.2-1.1c-0.4-0.4-0.8-0.9-1.2-1.3
						c-1-1-1.9-1.9-1.8-3.4c0.1-0.6-0.5-1-0.9-1.4c-0.6-0.6-1.4-0.3-2-0.8c-1.3-1.2-2.5-2.7-3.4-4.2c-0.1-0.1-0.1-0.2-0.1-0.3
						c0.8-1.4-0.3-1.5-1.3-1.8c-0.5-0.1-0.9-0.4-0.7-0.9c0.3-0.8-0.2-1.3-0.8-1.6c-0.6-0.2-1-0.8-0.9-1.4c0.1-0.7-0.4-1.3-1-1.6
						c-0.7-0.2-1.4-0.1-0.9-1.1c0.1-0.2-0.2-0.4-0.5-0.5c-1.2-0.3-1.9-1.4-1.8-2.6c0-0.5-0.3-1-0.7-1.2c-0.7-0.5-1.4-0.9-2-1.4
						c-0.3-0.2-0.7-0.5-0.6-1c0.2-0.7-0.4-1.3-0.5-2c0-0.4-0.4-0.5-0.7-0.3c-0.9,0.5-1.4,0-1.9-0.6c-1-1.3-2.1-2.6-3.3-3.7
						c-0.9-0.7-1.6-1.7-2.1-2.7c-0.5-1.4-0.7-1.8-2.2-2.1c-0.4-0.1-0.9-0.1-1.2-0.5c-1.2-1.7-3.1-2.8-4.1-4.7
						c-0.6-1.3-1.8-2.3-3.2-2.8c-0.5-0.2-1.1-0.5-1-0.9c0.2-1.2-0.7-1.6-1.5-2.2c-1.1-0.8-2.2-1.5-3.3-2.4
						c-3.8-2.9-7.8-5.6-11.9-8.1c-1.7-0.9-3.4-1.9-5-3c-0.8-0.6-1.7-1-2.7-1.2c-0.6-0.1-1.5-0.6-1.9,0c-0.4,0.7,0.4,1.2,0.9,1.7
						c1.3,1.2,2.6,2.4,3.8,3.8c0.8,0.9,1.7,1.8,2.7,2.5c2.3,1.8,4.4,3.8,7.1,4.9c0.2,0.1,0.4,0.3,0.5,0.5c0.6,0.8,1.4,1.4,2.4,1.6
						c0.7,0.2,1.2,0.5,1.3,1.3c0,0.5,0.5,1,1,1c0.2,0,0.5,0.1,0.6,0.3c1.1,1.5,2.9,2.3,4.2,3.6c0.3,0.3,0.6,0.4,0.9,0.2
						c0.4-0.4,0.7-0.2,1,0.1c1,0.8,1.9,1.8,2.7,2.8c0.5,0.7,0.9,1.4,1.9,1.5c0.4,0.1,0.8,0.4,0.8,0.9c0,1.4,1.2,1.9,2.2,2.6
						c0.6,0.4,1.5,0.7,1.6,1.4c0.1,1,0.8,1.5,1.6,2c2.8,1.8,5.1,4.3,6.7,7.2c0.8,1.5,1.2,3.3,2.9,4.3c0.7,0.5,1.4,1.2,1.8,1.9
						c1.1,1.7,2.4,3.3,3.8,4.8c0.2,0.1,0.3,0.3,0.3,0.6c0.2,1,0.7,1.9,1.4,2.7c0.5,0.7,1,1.4,1.4,2.2c0.6,1.6,2.2,2.6,2.8,4.1
						c0,0.1,0.1,0.1,0.2,0.1c0.8,0.5,1.2,1.4,1.2,2.3c-0.1,1.1,0.6,2.2,1.7,2.6c0.4,0.1,0.7,0.4,0.9,0.7c0.2,0.4,0.6,0.8-0.2,0.9
						c-0.6,0.1-0.5,0.5-0.2,0.9c0.8,1.3,1.5,2.6,2.2,4c1,1.9,1.7,4,2.2,6.1c0.1,0.4,0.2,0.9,0.4,1.1c1.1,1.1,2,2.3,2.8,3.6
						c0.2,0.3,0.6,0.4,1,0.2C-1054,123.1-1052.4,122.6-1052.3,120.5"/>
					<path id="Pfad_37" class="st0" d="M-1115.9,26.9c2.1,0.8,4.4,0.8,6.6,1.3c1.1,0.3,2.3,0.6,3.5,0.9c0.6,0.2,1.4,0.5,2.4,0.9
						c0.2,0.1,0.3,0.2,0.5,0.2c0.5,0.2,1,0.4,1.6,0.6c0.2,0.1,0.5,0.2,0.7,0.3c3,1.2,5.8,2.7,8.5,4.4c2.6,1.7,5.2,3.6,7.6,5.6
						c2.1,1.7,4.3,3.3,6.3,5.2c2.9,2.6,5.6,5.3,8.4,7.9c1.9,1.8,2,1.7,2.8-0.7c0.5-1.2,0.3-2.5-0.5-3.4c-0.5-0.5-1.1-0.6-1.6-1
						c-1.7-1.2-3.3-2.6-4.7-4.1c-3.4-3-7.4-5.5-10.4-9c-1.6-2.2-8.4-5.9-13-8.3c-0.6-0.4-1.2-0.7-1.9-1c-0.8-0.4-1.7-0.8-2.5-1.1
						c0,0,0,0-0.1,0h0c-3-1.2-6.1-2.2-9.2-3c-1.9-0.7-4-1-6-0.9c-1.8,0.2-2.5,1-2.1,2.7C-1118.7,25.9-1117.3,26.4-1115.9,26.9"/>
					<path id="Pfad_38" class="st0" d="M-1111.8,73.2c-0.5-3.8-3-6.8-5.4-9.5c-1.9-2.5-4.1-4.8-6.4-7c-2.2-1.9-3.8-4.4-5.9-6.4
						c-0.5-0.5-1-0.8-1.6-0.9c-0.7-0.1-1,0-1.1,0.7c-0.1,1.3,0.2,2.7,1,3.8c1.8,3.4,4.4,6.3,7,9.1c2.5,2.9,4.8,6,6.9,9.2
						c0.8,1.1,1.5,2.2,2.3,3.3c0.4,0.6,0.9,1.1,1.6,1.4c0.7,0.3,1.5,0.2,2.2-0.2c0.6-0.3,0.4-0.9,0.2-1.5
						C-1111.4,74.6-1111.6,73.9-1111.8,73.2"/>
					<path id="Pfad_39" class="st0" d="M-1097.9,43.1c-4.7-3.1-9.6-5.9-14.7-8.4c-1-0.5-2-0.9-3.1-1.1c-0.5-0.1-1.1-0.4-1.4,0.2
						c-0.3,0.5-0.2,1.2,0.2,1.6c0.2,0.3,0.5,0.6,0.9,0.8c2.8,1.6,5.6,3.2,8.5,4.7c2.6,1.5,5.4,2.5,7.7,4.4c1.5,1.2,3.1,2.3,4.8,3.4
						c0.5,0.3,0.9,0.7,1.2,1.1c0.7,1.2,2.1,1.9,3.5,1.9c0.3,0,0.7,0.2,0.9-0.2c0.2-0.4,0.1-0.8-0.1-1.1c-0.4-0.7-1.2-1-1.7-1.6
						C-1093.2,46.8-1095.4,44.8-1097.9,43.1"/>
					<path id="Pfad_40" class="st0" d="M-1127.9,7.4c0.7-1.2,1.4-2.4,2-3.7c0.3-0.7,0-1.5-0.7-1.9c-0.8-0.5-1.3,0-1.8,0.4
						c-1.2,1.4-1.4,3.4-0.4,5C-1128.5,7.5-1128.2,8-1127.9,7.4"/>
					<path id="Pfad_41" class="st0" d="M-1123.1,27.6c0.6-1,1.1-1.9,1.5-2.9c0.3-0.5,0.1-1.1-0.4-1.4c-0.5-0.4-1.2-0.5-1.8-0.3
						c-1,0.6-1.6,3.3-1,4.3C-1124.2,27.9-1123.4,28.1-1123.1,27.6"/>
					<path id="Pfad_42" class="st0" d="M-1147.6,46.6c-0.4-0.5-0.9-0.9-1.5-1.2c-0.3-0.1-0.5-0.2-0.7,0.1c-1,1.3-1.2,3.1-0.4,4.6
						c0.4,0.6,0.8,0.7,1.3,0.1c0.5-0.6,1-1.2,1.4-1.9C-1147,47.9-1147.1,47.1-1147.6,46.6"/>
					<path id="Pfad_43" class="st0" d="M-1183.5,28c-0.6,0.8-0.8,1.8-0.6,2.7c0.1,0.6,0.7,1,1.3,0.9c0.1,0,0.2-0.1,0.3-0.1
						c0.8-0.3,1.4-2.5,0.9-3.2C-1182.2,27.5-1183.2,27.3-1183.5,28"/>
					<path id="Pfad_44" class="st0" d="M-1175.1,3.8c0.8-0.8,1-2,0.6-3.1c-0.3-0.8-0.7-0.9-1.3-0.4c-1.2,0.7-1.6,2.1-0.9,3.3l0,0
						C-1176.2,4.5-1175.7,4.5-1175.1,3.8"/>
				</g>
			</g>
		</g>
	</g>
</g>
</svg>
