<?xml version="1.0" encoding="UTF-8"?><svg id="Ebene_2" xmlns="http://www.w3.org/2000/svg" viewBox="0 0 64.11151 62.96481"><defs><style>.cls-1,.cls-2{fill:#003063;}.cls-2{stroke:#003063;}</style></defs><g id="Ebene_1-2"><g><path id="Pfad_160" class="cls-1" d="M32.90326,62.96481c-13.056-.334-23.03101-5.9-29.82098-16.733C-.09372,41.16381-.39774,35.36781,.32528,29.40681c.65732-4.20076,1.94022-8.27935,3.806-12.1,2.42816-5.42173,6.49713-9.94437,11.633-12.93C20.29825,1.61781,25.33526-.30019,30.61026,.03881c6.22699,.4,12.5,1.449,17.95599,4.939,2.5,1.6,5.293,2.992,7.276,5.112,7.10001,7.582,9.54501,16.684,7.65399,26.89-2.548,13.748-11.62701,21.31-24.33499,25.244-2.02399,.626-4.27499,.524-6.255,.74m-.43799-2.011c5.68201,.371,10.60001-1.628,15.26501-4.5,7.827-4.821,13.04901-11.727,14-20.81,1.13501-10.825-1.285-20.633-11.543-26.916-5.5-3.367-11.23901-5.882-17.71399-6.391-7.89999-.622-14.20001,3.052-20.237,7.573-3.30765,2.47434-5.70917,5.96837-6.83401,9.943-.41699,1.355-.944,2.675-1.39401,4.021-3.03799,9.078-2.87399,17.375,3.689,25.392,6.60699,8.071,15.07901,10.924,24.76599,11.69"/><path id="Pfad_161" class="cls-2" d="M48.33227,31.11481c-.01199-.026-.02701-.047-.04001-.072-.00113-.1591-.01114-.31802-.03-.476-.10782-.70336-.66983-1.24945-1.37601-1.337-.991-.259-1.98099-.525-2.97198-.788s-1.99399-.529-2.991-.8c-.49802-.13334-.9957-.26667-1.49301-.4-.49197-.04781-.96375-.21986-1.371-.5-.01392-.01629-.02692-.03331-.039-.051-.12201-3.131-.20999-6.268-.28299-8.993,.00055-.29851-.0697-.5929-.20499-.859,.06436-.51989-.12988-1.03836-.51999-1.388-.5679-.36511-1.30698-.31978-1.82599,.112-.24768,.29431-.41388,.64841-.48199,1.027-.13101,.46077-.29135,.91269-.48001,1.353-.77802,1.71994-1.72003,3.36087-2.81299,4.9-.254,.378-.51001,.756-.76401,1.135s-.388,.673-.87799,.673c-.45963-.04245-.91345-.13329-1.354-.271-.52267-.116-1.04498-.23333-1.56699-.352-1.043-.24-2.07901-.506-3.11499-.774-.73801-.191-1.51401-.245-2.23401-.5-.37015-.13175-.7131-.33-1.01199-.585-.32901-.279-.60001-.23-1.01401-.214-.48099,.019-.96399,.015-1.44601,.025-.51593-.039-1.03406-.039-1.54999,0-.55499,.1-.64899,.526-.659,.985-.09201-.1-.15799,.225-.18201,.626-.03317,.17794-.03555,.36026-.00699,.539-.00027,.00433-.00027,.00867,0,.013,.01401,.321,.06201,.577,.15201,.588-.0293,.40416,.11426,.80177,.39499,1.094,.48199,.386,1.189,.284,1.69501,.665,.58676,.59014,1.07376,1.27169,1.44199,2.018,1.1727,1.65573,2.48337,3.20927,3.918,4.644,.34003,.358,.68167,.71466,1.02499,1.07,.01999,.021,.04099,.041,.06201,.061l-.534,.732-1.56,2.132c-1,1.363-2.01199,2.715-2.96799,4.108-.07379,.25206-.08649,.51807-.03699,.776l-.26801,.391,.27301,.216c-.02701,.315-.064,.784,.03101,.859,.24057,.23109,.50507,.43591,.789,.611,.625,.3,.741-.366,.78601-.812,.21896,.34935,.48325,.66813,.78601,.948,.35782,.22634,.77722,.33573,1.20001,.313,.448-.07764,.87888-.23334,1.27301-.46,.49866-.218,.995-.441,1.48901-.669,.95468-.44,1.901-.898,2.83899-1.374,.59-.3,1.28601-.664,1.836-.092,.26001,.27,.43701,.592,.70801,.862,.39999,.4,.80002,.80167,1.20001,1.205,.72501,.729,1.45099,1.457,2.19199,2.171,.57999,.558,1.20001,1.376,2.04001,1.524,.60291,.13538,1.22672-.11622,1.56699-.632,.19333-.40672,.29831-.84978,.30801-1.3,0-.016,.013-.029,.017-.045,.12701-.55836,.20001-1.12766,.21799-1.7,.02399-.991,.039-1.982,.05399-2.972,.01501-1.028,.03299-2.055,.05899-3.083,.29675-.23153,.63672-.40152,1-.5,.483-.2,.96899-.394,1.45599-.585,1.90799-.749,3.827-1.47,5.728-2.237,.70001-.283,1.36899-.69,1.47101-1.512,.01831-.16436,.02731-.32962,.02701-.495,.02701-.052,.06201-.1,.08301-.155,.17587-.44783,.15997-.94825-.04401-1.384m-27.513,10.7c-.00601-.174,0-.347,0-.519l.009-.012c0,.061-.00699,.108-.00699,.1v.435l-.00201-.004Zm-.15701-.184l-.01199,.122c-.06091,.10521-.16977,.17366-.29099,.183,.14398-.2,.28864-.4,.43399-.6-.01971,.11303-.05328,.2232-.10001,.328l-.03101-.033Zm16.37686,3.83398c-.888,.182-1.478-.368-2.077-.93-.79999-.752-1.58099-1.526-2.35699-2.3-.75565-.65604-1.45569-1.37349-2.09299-2.145-.28629-.59098-.99744-.838-1.58841-.55173-.05151,.02496-.1012,.05361-.14859,.08573-.97601,.46-1.92899,.966-2.90799,1.421-.49332,.22934-.98868,.454-1.48599,.674-.46625,.26669-.96835,.46504-1.491,.589-.39636,.03241-.79376-.04839-1.146-.233-.34064-.23986-.62491-.55109-.83301-.912,.715-.98,1.439-1.954,2.155-2.932l.97501-1.333c.36264-.40733,.67737-.85492,.93799-1.334,.08182-.26065,.1087-.53543,.07901-.807,.259-.3145,.27014-.76508,.02701-1.092,.01474-.24622-.0051-.49329-.05899-.734-.11499-.436-.61899-.795-.92001-1.107-.39136-.40667-.78101-.815-1.16901-1.225-.74799-.795-1.487-1.6-2.19299-2.432-.66864-.79287-1.27954-1.63269-1.828-2.513-.27304-.54332-.64627-1.03019-1.10001-1.435,.505-.01,1.01199-.011,1.51599-.026,.34082-.06935,.69437-.03986,1.01901,.085,.33319,.25992,.69009,.48793,1.06601,.681,.41272,.14387,.83786,.24931,1.26999,.315,2.026,.368,4.02301,.968,6.035,1.413,.40466,.14561,.83475,.2072,1.26401,.181,.435-.092,.64401-.638,.87299-.977,.564-.837,1.13199-1.672,1.66599-2.528,.52194-.82439,.99411-1.67925,1.414-2.56,.20801-.444,.39999-.9,.56601-1.36,.11212-.46554,.26505-.9203,.457-1.359,.39319-.59905,1.16595-.81948,1.81601-.518,.21594,.08435,.39658,.23994,.51199,.441,.078,2.868,.17099,6.162,.29999,9.419,.02081,.17094,.09024,.33233,.20001,.465,0,.092,.00699,.184,.01001,.276-.04037,.33976,.09125,.6773,.35101,.9,.43005,.22514,.896,.37369,1.37701,.439,.56866,.15466,1.13766,.308,1.707,.46,1.10001,.3,2.20801,.586,3.31201,.88,.89999,.239,1.862,.409,2.73199,.737,.17389,.06363,.33606,.15553,.48001,.272-.58981,.43556-1.25546,.75769-1.96301,.95-2,.786-4.01401,1.533-6,2.349-.44986,.11006-.86832,.3222-1.22299,.62-.1817,.30663-.25232,.66644-.20001,1.019-.11847,.15366-.18814,.33933-.20001,.533-.03699,1.243-.056,2.486-.07401,3.73-.01501,.99-.03,1.979-.05399,2.969,0,.2-.026,.42-.04999,.637-.14594,.42559-.51474,.73595-.95901,.807"/></g></g></svg>