<?xml version="1.0" encoding="utf-8"?>
<!-- Generator: Adobe Illustrator 26.3.1, SVG Export Plug-In . SVG Version: 6.00 Build 0)  -->
<svg version="1.1" id="Ebene_2_00000023241112008442120350000002089519440250442684_"
	 xmlns="http://www.w3.org/2000/svg" xmlns:xlink="http://www.w3.org/1999/xlink" x="0px" y="0px" viewBox="0 0 80.7 160"
	 style="enable-background:new 0 0 80.7 160;" xml:space="preserve">
<style type="text/css">
	.st0{fill:#FFFFFF;}
</style>
<g id="Ebene_1-2">
	<g id="Gruppe_218" transform="translate(1181.378 381.535)">
		<g id="Gruppe_159" transform="translate(0 0)">
			<path id="Pfad_34" class="st0" d="M-1119.6-377.3c-0.1-0.7-0.2-1.4-0.2-2.1c0-0.3,0.1-0.6,0.2-0.9c0.1-0.2,0.5-0.2,0.8-0.1
				c0.4,0.6,0.9,1.2,1.3,1.8c0.2,0.3,0.3,0.7,0.3,1c0.1,0.3-0.3,0.6-0.6,0.6c-0.3,0-0.7,0.1-1,0.2
				C-1119.4-376.7-1119.6-376.8-1119.6-377.3 M-1109.2-370.3c0.2,0.1,0.5,0.1,0.7,0.2c0.3,0.1,0.4,0,0.5-0.3
				c0.1-0.6,0.2-1.2,0.1-1.7c-0.1-0.7-0.7-1-1.1-1.6c-0.1,0.2-0.2,0.4-0.3,0.5c-0.2,0.1-0.3,0.4-0.3,0.6c0,0.2-0.1,0.4-0.3,0.6
				c-0.4,0.3-0.5,0.4-0.3,0.8C-1110.1-370.8-1109.7-370.4-1109.2-370.3 M-1106.9-361.7c0.1,0.3,0.2,0.7,0.4,1c0.1,0,0.2,0,0.4,0.1
				c0.2,0,0.4,0,0.7,0c0.6,0.1,1.2,0.3,1.8,0.4c0.5,0.1,0.7-0.2,0.5-0.7c0-0.2-0.1-0.3-0.3-0.4c-0.5-0.4-1.1-0.8-1.6-1.3
				c-0.1,0-0.2,0-0.3,0c-0.4,0-0.8-0.3-0.9-0.7c0-0.2-0.2-0.3-0.3-0.3c0,0-0.1,0-0.1,0c-0.4,0.2-0.6,0.6-0.5,1
				C-1107-362.3-1107-362-1106.9-361.7 M-1108.7-356.7c0,0.7,0,1.4,0.1,2.1c0,0.1,0.1,0.2,0.2,0.3c0.4,0.2,0.8,0.3,1.2,0.4
				c0.3,0.1,0.6,0,0.8-0.2c0.3-0.1,0.1-0.4,0.1-0.6c0-0.5-0.2-1-0.6-1.2c-0.3-0.2-0.5-0.4-0.6-0.7c-0.1-0.2-0.3-0.4-0.5-0.5
				C-1108.4-357.3-1108.6-357.3-1108.7-356.7 M-1129.3-379.5c0,0.6,0.2,1.2,0.5,1.7c0.3-0.3,0.7-0.4,1.1-0.1
				c0.2,0.1,0.3,0.2,0.5,0.3c0.2,0.2,0.5,0.2,0.7,0c0.2-0.1,0.3-0.3,0.1-0.5c-0.2-0.2-0.3-0.4-0.4-0.6c-0.1-0.4-0.2-0.9-0.5-1.2
				c-0.4-0.6-1-1.1-1.6-1.4c-0.2-0.2-0.5,0-0.5,0.3c0,0.3,0,0.7,0.1,1C-1129.3-380-1129.3-379.8-1129.3-379.5 M-1126.2-361.4
				L-1126.2-361.4c0.1,0.2,0.2,0.3,0.3,0.5c0.1,0.2,0.2,0.3,0.3,0.5c0.2,0.2,0.4,0.4,0.7,0.5c0.1,0,0.2,0.1,0.3,0.1
				c0.4,0.2,0.9,0.2,1.3,0l0,0c0,0,0.1,0,0.1,0c0,0,2.7-0.8,2.7-2.3c0-1.5-0.6-2.6-1.5-2.4c0,0,0,0-0.1,0c-0.1,0-0.2,0.1-0.3,0.1
				c-0.5,0.1-1.2,0.1-1.5,0.6c0,0.2-0.1,0.4-0.1,0.6c-0.2-0.2-0.4-0.5-0.6-0.5c-0.3,0-0.5,0.1-0.7,0.2
				C-1125.3-363.7-1126.9-362.9-1126.2-361.4C-1126.2-361.4-1126.2-361.4-1126.2-361.4z M-1138.5-373.8c0.3,0.7,0.9,0.9,1.5,1.1
				c0.3,0.1,0.5-0.1,0.6-0.3c0,0,0-0.1,0-0.1c0.2-0.1,0.5-0.1,0.5-0.2c0-0.2,0-0.4-0.1-0.6c-0.1-0.2-0.1-0.3-0.2-0.5
				c0-0.1-0.1-0.2-0.1-0.3c-0.4-0.5-1-0.7-1.3-1.2c-0.1-0.1-0.3-0.2-0.4-0.2c-0.2-0.1-0.4-0.2-0.5-0.3c-0.3-0.2-0.4-0.2-0.5,0.2
				c-0.2,0.5-0.1,1.1,0.2,1.6C-1138.7-374.3-1138.6-374.1-1138.5-373.8 M-1101.5-222.1c-1.2,0.4-2.6,0.6-3.9,0.5
				c-2.7,0.1-5.4-0.3-7.9-0.9c-0.8-0.2-1.7-1.6-1.9-2.1c-1.6-3-2.6-6.3-2.9-9.7c-0.3-2.4-0.6-4.8-0.8-7.2c-0.2-2.4-0.2-4.9-0.7-7.3
				c-0.4-2.8-0.6-5.5-0.7-8.3c-0.2-2.4-0.7-4.8-1.1-7.2c-0.2-1.4-0.4-2.9-0.6-4.3c-0.2-1.2-0.4-2.4-0.7-3.5
				c-0.3-1.4-0.7-2.8-1.1-4.1l-0.3,0c-0.1,0.1-0.2,0.3-0.2,0.4c-0.1,2.1-0.1,4.3,0.1,6.4c0.1,1.1,0.2,2.3,0.1,3.4
				c0,0.7,0.2,1.3,0.3,2c0,0.6-0.2,1.2-0.2,1.8c0.1,2.4,0.3,4.8,0.4,7.2c0.1,0.7,0.3,1.3,0.3,2c0.1,0.8,0.1,1.5,0.1,2.3
				c0,1-0.2,2-0.2,3c0.1,2.9,0.3,5.8,0.5,8.7c0.1,1.4,0.4,2.7,0.4,4.1c0,1.3-0.1,2.7-0.2,4c0,0.6,0.1,1.2,0,1.7
				c-0.2,0.8-0.5,1.6-0.9,2.4c-0.2,0.6-0.8,1.1-1.5,1.1c-0.5,0.1-1,0.2-1.6,0.3c-1.5,0-2.5,0.3-4,0.3c-0.4,0-1.1,0.1-1.5,0.1
				c-1,0-2-0.1-3.1-0.2c-1.1-0.1-3-0.6-3.4-1.5c-0.3-0.6-0.9-2.1-0.1-2.9c1.4-1.4,2.9-1.5,4.6-2.6c0.8-0.4,1.3-1.2,1.4-2.1
				c-0.1-1.5,0-2.9,0.1-4.4c0.1-1.5-0.3-3.1-0.2-4.6c0.1-2.8,0.1-5.5,0.1-8.3c0-2.9-0.5-5.8-0.5-8.8c0-1.9,0.3-3.8,0.4-5.7
				c0.1-2,0-4,0.1-6c0-0.7,0.1-1.3,0.1-2c-0.1-0.9-1-10.9-0.8-12.4c0.1-1.8-0.1-3.7-0.5-5.5c-0.4-2.1-1-4.2-1.6-6.4
				c-0.1-0.3-0.2-0.6-0.4-0.9c-1-2.3-2.2-4.6-3.4-6.9c-1.1-2-1.9-4.1-3-6c-1.2-2-1.8-4.2-3.4-6c-1.1-1.2-1.1-2-2.3-3.1
				c-0.8-0.8-2.1-2.3-2.9-3.1c-1-0.8-1.8-1.8-2.5-3c-0.6-1.1-0.8-2.3-0.7-3.5c0.2-1.6,0.3-3.2,0.5-4.8c0.2-1.2,0.6-2.3,0.8-3.4
				c0.5-2.7,1-5.4,1.4-8.2c0.2-1.3,0.7-2.5,1.4-3.6c0,0,0,0,0-0.1c-0.4,0.1-0.7,0.2-0.8,0.3c-0.4,0.1-0.9,0.1-1.3,0.1
				c-0.2,0-0.3,0-0.4,0.1c-0.5,0.2-0.9,0.3-1.4,0.5c-0.4,0.1-0.7,0.3-1,0.6c-0.6,0.5-0.3,1-0.2,1.5c0.2,0.5,0.4,1,0.6,1.5
				c0.1,0.3,0.3,0.7,0.6,0.9c0.1,0.1,0.2,0.3,0.1,0.5c0,0.6-0.1,1.1-0.2,1.6c-0.1,0.5-0.4,0.6-0.9,0.7c-0.5,0-0.9,0-1.4,0.1
				c-0.2,0-0.4,0.1-0.6,0.2c-0.4,0.2-0.9,0.4-1.3,0.5c-0.7,0.2-1-0.2-1-0.9c0.1-0.6,0-1.3-0.3-1.9c-0.1-0.2-0.3-0.4-0.4-0.7
				c0,0-0.2-1.8-1.9-0.6c-0.3,0.2-0.3,0.3-0.2,0.6c0.1,0.1,0.1,0.3,0.1,0.4c0.1,0.6,0.3,1.1,0.6,1.6c0.3,0.4,0.4,0.9,0.3,1.3
				c0,0,0,0.1,0,0.1c-0.2,0.3-0.3,0.7-0.3,1.1c0,0.3-0.3,0.4-0.5,0.4c-0.6,0-4.1,1.1-4.3,1.1c-0.2,0-0.4,0-0.5,0
				c-0.2,0-0.4-0.2-0.4-0.4c0-0.1,0-0.1,0-0.2c0.2-1.1-0.1-2.2-0.9-3c-0.1-0.2-0.3-0.2-0.5-0.1l0,0c-0.2,0.1-1,0-1.2,0l-0.2,0.1
				c0.2-0.1,0.5-0.1,0.1,0.1c-0.6,0.3-0.1,0.6,0,1.3c0,0.1,0.5,1,0.6,1.1c0.1,0.1,0.2,0.2,0.2,0.4c0.1,0.4,0.1,0.9,0.1,1.3
				c-0.1,0.3-0.4,0.5-0.7,0.6c-1.1,0.5-2.2,1-3.3,1.2c-0.2,0.1-0.4,0.2-0.7,0.2l-0.2,0c-0.2,0.1-0.5,0.2-0.7,0.3
				c-1.5,0.7-2.1,0.9-2.8,0.9c-0.2,0.1-0.5,0.1-0.7-0.1c-0.8-0.1-0.8-0.2-0.7-0.3c-0.1-0.1-0.1-0.2-0.2-0.3
				c-0.4-0.4-0.1-0.4-0.1-1.4c0-0.1,0-0.2,0-0.3c-0.1-1.4-0.3-2.8-0.5-4.2c0,0,0-0.1,0-0.1c-0.7-1.2-1.2-2.5-1.7-3.8
				c-0.1-0.2-0.1-0.3-0.2-0.5l0,0c-0.2-0.7,0-1.4,0.4-2c0.1-0.3,0.4-0.5,0.6-0.6c0.1,0,0.2-0.1,0.2-0.1c0.2-0.1,0.5-0.2,0.8-0.2
				c0.4-0.1,0.7-0.3,1-0.5c0.2-0.2,0.5-0.3,0.8-0.3c0.4-0.1,0.7-0.2,1-0.3c1.2-0.4,2.5-0.8,3.7-1.2l0.2-0.1c0.1,0,0.2,0,0.3-0.1
				l0.1,0c0,0-0.1,0,0.1,0c1.8-0.2,3.5-1,5.3-1.3l0,0c0.7-0.2,1.4-0.4,2.1-0.6c0.1-0.1,0.2-0.1,0.3-0.1l0.1,0l0.6-0.2
				c0.5-0.2,0.9-0.3,1.4-0.4h0.1c2.2-0.6,4.3-1.2,5.9-1.6c0.3-0.1,0.6-0.2,0.9-0.3c0.1,0,0.1,0,0.2,0c0.5-0.1,0.9-0.2,1.2-0.3
				c0.1-0.1,0.3-0.1,0.4-0.1c1.8-0.4,10.2-3.3,10.5-3.4c1.8-0.7,4-1.3,4-1.3c0.4-0.2,0.8-0.4,1.2-0.5c1.1-0.4,1.5-1.4,1.9-2.4
				c0.3-0.8,0.8-1.6,1.4-2.2c1.5-1.4,3.1-2.6,4.7-3.8c1.8-1.2,3.9-2,6-2.3c1.4-0.3,2.9-0.3,4.3,0c1,0.2,5.7,1.8,6.4,3.3
				c0.7,1.2,1.1,2.6,1.3,4c0,0.7,0,1.2-0.7,1.5c-0.3,0.2-0.5,0.9-0.5,1.4c-0.1,2.2-1,4.2-2.4,5.8c-0.3,0.4-0.6,0.8-0.9,1.2
				c-1.5,2.4-3.9,2.9-6.5,3.1c-1.9,0.1-3.8-0.2-5.7-0.7c0.3,0.3,0.5,0.6,0.7,0.9c1,2,1.8,4,2.4,6.2c0.8,2.5,1.7,5,2.6,7.6
				c0.6,1.9,1.2,3.8,1.7,5.8c0.4,1.4,0.6,2.9,1.1,4.4c0.5,1.6,0.7,3.3,0.5,5c-0.1,1.3,0.1,2.6,0.1,3.8c0,1.7,0,3.5,0,5.2
				c0,0.6,0,1.1,0,1.7c0.1,2.6,0.3,5.1,0.4,7.7c0,1.2-0.1,2.5-0.1,3.7c0,1.9-0.1,3.9-0.1,5.8c0,1.3,0.3,2.5,0.4,3.8
				c0.1,0.4,0.1,0.8,0.1,1.2c-0.1,2,0.1,4,0.6,6c1,3.3,2.3,6.6,3.2,9.9c0.3,1,0.8,1.9,1.1,2.8c0.7,1.8,0.7,3.7,1.4,5.5
				c0.1,0.4,0.2,0.8,0.2,1.2c0.1,0.4,0.6,5.2,0.6,6.1c0,0.5,0,1.1,0,1.6c0.2,0.9,0.4,1.8,0.5,2.7c0.1,0.7,0.6,3.4,0.7,4
				c0.2,1.1,0.4,2.1,0.5,3.2c0.2,1.4,0.3,2.7,0.4,4.1c0.1,1.1,0.4,2.1,0.6,3.2c0,1.1,0.1,2.3,0.4,3.4c0.2,0.9,1.2,7.2,1.3,7.1
				c0,0,0.1,0.1,0.1,0.1c0.2,0.9,2,1.8,2.9,2.3c1.9,0.9,3.9,1.9,3.1,3.9C-1101-222.9-1101.2-222.2-1101.5-222.1 M-1144.7-354.4
				c0,0,0.1,0,0.2-0.1c0.3-0.1,0.5-0.1,0.8-0.2c0.2-0.1,0.4-0.1,0.6-0.1c0.3,0,1.2-0.2,1.2-0.2l2.5-0.5l8-1.9c0,0,2.4,1.1,3,1.3
				c1.9,0.6,3.8,1.3,5.9,1.1c1.3-0.1,2.7,0.1,3.7-0.9c0.9-0.8,1.6-1.8,2.1-2.9c0.8-1.8,1.3-3.8,2.1-5.6c0.4-0.7,0.3-1.6-0.1-2.2
				c-1-1.4-2-2.7-3.9-3c-0.7-0.1-1.4-0.3-2.1-0.5c-2-0.7-4.3-0.4-6.1,0.8c-1.9,1.2-3.6,2.8-4.9,4.7c-0.1,0.2-0.3,0.4-0.4,0.6
				c-0.5,0.6-0.8,1.3-0.9,2.1c-1.1,0.5-2.1,1-3.2,1.7l0,0c-0.7,0.4-1.4,0.7-2.1,1h0c-0.2,0.1-0.4,0.1-0.6,0.2l0,0
				c-1.7,0.5-5.2,1.8-5.2,1.8c-0.2,0.1-1.8,0.7-1.9,0.7c-0.2,0.1-4.1,1.4-4.4,1.5c-0.4,0.1-0.8,0.1-1.1,0.2c-1,0.2-1.9,0.4-2.9,0.6
				c-0.2,0-0.9,0.2-1,0.3c-0.4,0.2-0.8,0.3-1.2,0.4c-0.9,0.3-3.8,1-4,1.1c-0.2,0.1-4.2,1-4.4,1c-0.1,0-0.2,0.1-0.3,0.1
				c-1,0.1-1.9,0.4-2.9,0.7c-0.4,0.2-0.9,0.2-1.3,0.4c-0.6,0.3-1.3,0.5-2,0.6l0,0c-0.1,0.1-0.2,0.1-0.3,0.1c-0.3,0-0.6,0.1-0.9,0.3
				c-0.8,0.4-1.5,0.7-2.3,0.9c-0.3,0.1-0.5,0.2-0.8,0.3c-0.2,0.1-0.4,0.2-0.6,0.3c-0.3,0.1-0.7,0.2-1,0.4c-0.2,0.1-0.4,0.2-0.6,0.3
				c-0.1,0-0.3,0.1-0.4,0.2c-0.2,0.1-0.3,0.2-0.5,0.3l-0.1-0.1c0,0.1,0,0.1-0.1,0.2c0,0.4-0.2,0.7,0,1.1c0.3,0.6,0.4,1.2,0.4,1.8
				c0,0.3,0.2,0.6,0.3,0.9c0.2,0.5,0.4,1,0.6,1.5c0.1,0.4,0.2,0.7,0.2,1.1c0,0.3,0.1,0.8,0.1,0.9c0.1,0.1,0.1,0.2,0.1,0.3
				c0,0.1,0.9,1.1,1.5,0.6c0,0,0,0,0,0c0.7-0.2,1.3-0.4,2-0.6c0.4-0.1,0.7-0.3,1.1-0.4c0.2-0.1,0.4-0.1,0.6-0.2
				c0.3-0.1,0.5-0.2,0.7-0.4c0.1-0.1,0.2-0.3,0.1-0.5c-0.4-0.7-0.7-1.4-0.9-2.2c-0.1-0.5-0.8-1.2,1.1-1.7c0.1,0,1.2-0.2,1.2-0.2
				c0.5-0.2,1.5-0.5,1.6-0.5c1.9-1.1,2,1.2,2.2,1.5c0.2,0.4,0.3,0.9,0.3,1.4c0.1,0.3,0.2,0.6,0.4,0.9c0.4,0.2,1.7-0.5,2-0.6
				c0.6-0.2,0.9-0.8,0.7-1.4c0-0.1,0-0.1-0.1-0.2c-0.1-0.1-0.1-0.2-0.1-0.3c0-0.4-0.2-0.9-0.5-1.2c-0.3-0.3-0.7-0.9-0.5-1.3
				c0.1-0.2,0.2-0.4,0.4-0.6c0.7-0.4,1.4-0.7,2.1-0.8c0.2,0,1.4-0.6,1.8,0.2c0.1,0.1,1.5,2.6,1.5,2.6c0.3,0.6,0.5,0.6,1.2,0.3
				c0.1,0,0.1,0,0.2,0c0.6-0.2,1-0.4,0.8-1.1c-0.2-0.4-0.4-0.7-0.5-1.1c-0.3-0.6-0.7-1.2-1.3-1.6c-0.2-0.1-0.3-0.4-0.3-0.6
				c0-0.6,0.3-1.1,0.8-1.5c0.6-0.6,1.3-1,2.1-1.2c1-0.1,2-0.4,3.1-0.7c0.4-0.1,0.7-0.1,1.1-0.2c0.1,0,0.1,0,0.2,0
				C-1150.3-352.8-1145-353.9-1144.7-354.4 M-1138.6-326.6c0.5-1.8,1.9-3.2,3.7-3.7c2-0.7,4.2-0.3,5.7,1.2c0.7,0.6,1.4,1.1,2.1,1.7
				c0-1.2-0.1-2.3-0.4-3.5c-0.6-2.3-1.5-4.6-2.2-6.8c-0.3-0.8-0.6-1.5-0.8-2.3c-0.3-1.2-0.6-2.4-1-3.6c-0.1-0.3-0.2-0.7-0.3-1v0
				c-0.1-0.5-0.2-1-0.4-1.4c0,0,0,0,0,0c-1.3-4.7-0.3-7.7,0.4-8.6c-0.9,0.1-1.7,0.4-2.6,0.5c-0.1,0-1.6,0.3-1.7,0.3
				c-1,0.1-2,0.3-3,0.6c-1,0.1-2.1,0.2-3.2,0.3c-0.7,0.1-1.5,0.2-2.2,0.4c-0.4,0-0.7,0.2-1.1,0.4c-0.1,0.1-0.3,0-0.4,0.1
				c-0.2,0.1-1.2,0.3-2.2,0.6c0.3,0.4,0.4,0.8,0.5,1.3c0.4,1.7,0.5,8.8,0.5,8.8l0,0c0,2.4,0.1,4.8,0,7.2c-0.1,1.4,0.4,2.9,1.3,4
				c1.1,1.5,2.4,3,3.7,4.4c1,1,2.1,1.9,3.3,2.8c0-0.5,0-0.7,0-1C-1138.8-324.9-1138.8-325.7-1138.6-326.6 M-1102.9-223.3
				c2.8-2.4-3.8-1.9-5.7-4.7c-0.8-1.2-0.7-2.8-1.1-4.2c-0.4-1.3-0.6-2.7-0.8-4c-0.4-2.3-0.6-4.5-0.9-6.8c-0.2-1.2-0.4-2.7-0.5-3.9
				c-0.1-1,0-2.1-0.2-3.1c-0.2-1.3-0.5-2.7-0.7-4c-0.2-0.7-0.4-1.4-0.5-2.1c-0.1-1.7-0.1-3.4-0.1-5.1c0-0.4,0-0.7,0-1.1
				c-0.1-1.2-1.3-7.1-1.9-8.8c-0.3-0.7-0.6-1.5-1-2.2c-0.2-0.4-2.5-8.1-3.1-10.2c0,0-2-5.4-2.2-8c0-0.1,0-0.1,0-0.2
				c-0.1-2.5,0.1-6.5,0.2-9c0.1-1.7,0.1-6.6,0-9.5c0-0.1,0-0.2,0-0.3c0-0.6,0-1.3,0-1.9v0l0,0c0-0.5,0-1,0-1.5
				c0.1-2.2,0.3-4.5,0.4-6.7c0.1-1.6,0-3.2,0-4.8c0-0.3-0.1-0.7-0.1-1c-0.2-1.2-1.1-4.8-1.2-5.4c-0.4-1.6-0.7-3.3-1.2-4.9
				c-0.8-2.5-1.7-4.9-2.5-7.3c-0.4-1.1-0.6-2.2-1-3.3c-0.5-1.5-1.1-2.9-1.8-4.3c-0.5-0.9-0.6-1.1-1.8-1.1c-0.6,0.7-0.9,1.7-0.8,2.7
				c0.2,1.3,0.5,2.6,0.8,3.8c0.6,2.2,1.4,4.4,2.1,6.6c0.2,0.7,0.7,1.3,1,2c0.5,1.4,0.9,2.8,1.3,4.3c0.5,1.4,0.8,2.8,0.9,4.3
				c0.1,1.6,0.1,2.1,0.1,3.2c0,0.4,0.1,0.8,0.1,1.3c0,0.7,0,1.4,0,2.1c0.1,1.1-0.2,1.1-0.5,2.2c-0.6,1.7-1.5,3.3-2.8,4.5
				c-0.7,0.7-1.1,0.6-1.6-0.2c-0.3-0.4-0.4-0.9-0.6-1.4c0-0.2,0.1-0.5,0.2-0.7c0.5-0.6,1-1.1,1.5-1.6c1.2-1.6,1.2-3.8,0.1-5.4
				c-0.4-0.5-0.7-0.9-1.1-1.3c-0.8-1.1-1.9-2-3.2-2.5c-0.4-0.1-0.9-0.1-1.3,0.1c-0.6,0.4-1.1,0.8-1.7,1.3c-0.7,0.4-1.1,1.2-1,2
				c0,1,0,1.9,0,2.9c0,1.2,0.5,2.4,1.3,3.3c0.3,0.3,0.5,0.6,0.6,1c0.1,0.5,0.1,1.2-0.5,1.2c-0.6,0.1-1.3-0.1-1.8-0.5
				c-1-0.9-1.8-1.9-2.5-3c-0.7-1.3-1.6-2.5-2.6-3.6c-1.9-2-3.7-4.2-5.5-6.2c-0.9-1-0.5-4.6-0.5-5.3c0-3.5,0.4-5.3,0.3-8.8
				c0-1.7,0.4-6.1-0.8-5.6c-0.9,0.5-0.6,1.2-0.8,2.2c-0.1,0.9-0.9,5.2-1.1,7.1c-0.1,1.4-0.9,4.3-0.9,5.6c0,2.1-1.2,4.4,0,6.2
				c0.8,1.4,1.8,2.7,2.9,4c1.4,1.3,1.7,1.9,3.1,3.2c0.8,0.8,1.5,2.5,2.3,3.3c0.9,1.1,2.1,4,2.6,4.8c0.8,1.3,1.6,2.7,2.3,4.1
				c0.7,1.7,1.6,3.3,2.6,4.9c2.1,3,3.6,6.4,4.5,9.9c0.3,1.6,0.5,3.2,0.5,4.9c0.2,1.3,0.4,2.7,0.6,4c0.2,1,0.3,15.4,0.4,15.9
				c0.1,0.5,0.1,1.1,0.1,1.6c-0.2,1-0.2,2.1-0.2,3.1c0.2,1.1,0.3,2.2,0.2,3.3c-0.2,1.4-0.3,2.9-0.2,4.3c0,1.1,0,2.1,0.1,3.2
				c0,0.8,0.1,5.1,0.1,5.2c-0.1,1.6-0.2,5.1-0.2,5.2c0.2,1.7,0.3,3.3,0.4,5c-0.1,1.8,0,3.5,0.5,5.3c0.3,0.7-0.1,1.6-0.8,1.9
				c-0.8,0.3-1.2,0.8-2,1.1c-0.4,0.1-0.7,0.3-1.1,0.4c-1.2,0.3-3.7,0.7-3.5,1.9c0.4,0.6,1,1,1.8,1c0.4,0.1,0.9,0.1,1.3,0.1
				c2.1-0.1,4-0.5,6.1-0.6c0.6,0,1.3,0,1.9-0.1c0.3-0.1,0.7-0.4,0.8-0.6c0.3-1.4,0.4-2.8,0.5-4.2c0-1.6-0.1-3.3-0.2-4.9
				c0-1.7,0-3.5,0-5.2c-0.1-2.3-0.1-4.7,0.1-7c0.2-1.7-0.3-3.4-0.4-5.1c-0.1-3.2-0.2-6.5-0.1-9.7c0-1.9-0.2-3.8-0.6-5.6
				c-0.4-1.8-0.5-3.7-0.4-5.6c0.2-1.4-0.3-6.7,1.6-6.6c0.7,0,1.2,0.5,1.3,1.2c0.1,0.6,0.3,1.3,0.5,1.9c0.4,1.5,1,3,1.3,4.5
				c0.5,2,0.9,4,1.2,6c0.5,3.2,0.9,6.4,1.4,9.7c0.2,1.4,0.3,2.9,0.4,4.3c0.1,1.5,0.2,3,0.3,4.5c0.1,1,0.4,2.1,0.5,3.1
				c0.2,1.5,0.4,3,0.6,4.4c0.3,2.6,0.6,5.3,1,7.9c0.2,1.3,1.4,6.3,1.5,7.1s0.7,1.5,0.8,2.3c0.2,0.7,0.8,1.3,1.5,1.4
				c0.9,0.3,1.9,0.4,2.9,0.5c1.5,0.1,3.1,0.6,4.6,0.6C-1104.1-222.9-1103.4-223-1102.9-223.3 M-1163.5-354.2
				C-1163.5-354.2-1163.5-354.2-1163.5-354.2C-1163.6-354.2-1163.6-354.2-1163.5-354.2 M-1134.9-320.6c0.6,0.9,1.8,1.2,2.7,0.7
				c1.4-0.6,2.3-2.2,2-3.3c0,0-0.1-0.1-0.3-0.2c-0.3,0.4-0.7,0.7-1,1.1c-1.3,1.6-2.5,1.4-3.3-0.4c-0.6,0.5-0.8,1.4-0.3,2
				C-1134.9-320.6-1134.9-320.6-1134.9-320.6"/>
		</g>
	</g>
</g>
</svg>
