<?xml version="1.0" encoding="utf-8"?>
<!-- Generator: Adobe Illustrator 26.3.1, SVG Export Plug-In . SVG Version: 6.00 Build 0)  -->
<svg version="1.1" id="Ebene_2_00000147900197375971700820000017359450914066610563_"
	 xmlns="http://www.w3.org/2000/svg" xmlns:xlink="http://www.w3.org/1999/xlink" x="0px" y="0px" viewBox="0 0 165.8 134.2"
	 style="enable-background:new 0 0 165.8 134.2;" xml:space="preserve">
<style type="text/css">
	.st0{fill:#FFFFFF;}
</style>
<g id="Ebene_1-2">
	<g id="Gruppe_217" transform="translate(270.351 392.617)">
		<g id="Gruppe_153">
			<path id="Pfad_31" class="st0" d="M-114.1-274.9c-0.2-0.8-0.9-1.5-1.7-1.6h0c-0.5,0.1-1.1,0.4-1.4,0.8c-0.1,0.1-0.2,0.2-0.3,0.3
				c-0.4,0.4-1,0.6-1.6,0.7c-1.1,0-1.7-1.4-1.9-2.6c0-0.2-0.1-0.4-0.2-0.6c0-0.1-0.1-0.2-0.1-0.2c-0.3-0.8-0.5-1.6-0.8-2.4l0-0.1
				c-0.6-1.8-1.2-3.7-1.8-5.6l0,0c-2.1-7.1-4.3-14.5-6.4-21.8c-0.8-2.7-1.4-5.5-1.8-8.3c-0.2-2.2-0.3-5.7-0.3-9.1
				c0-2.9-0.1-5.7-0.2-7.5c-0.3-2.9,0-5.8,0.8-8.6c1.6-5.1,3.4-10.3,5.1-15.4l1-2.9c0.3-0.9,0.6-1.8,1-2.7l0,0c0.5-1.3,1-2.6,1.4-4
				c0.3-1.3,0.6-2.6,0.6-3.9l0-0.2c0.1-0.7,0.2-1.4,0.2-2.1c0.3-1.9,0.4-3.9,0.4-5.8c-0.3-4.8-1.9-7.3-4.9-7.6c-0.1,0-0.2,0-0.3,0
				c-1.7,0-1.8,1.7-1.9,2.4l-0.1,1.2c-0.2,3.3-0.3,6.8-0.8,10.1c-0.4,3-1.1,5.9-2,8.8c-0.6,1.9-1.3,3.7-2.1,5.5
				c-0.1,0.2-0.2,0.4-0.3,0.6c-1-3.4-2.6-7-6.4-8.1c-0.2-0.1-0.4-0.1-0.5-0.2c-0.3-0.1-0.6-0.1-1-0.1c-0.3,0-0.5,0-0.8,0
				c-0.3,0-0.5,0-0.7,0c-0.4,0-0.8,0.1-1.2,0.2c-1.6,0.6-2.9,1.7-3.7,3.2c-0.9,1.9-1.2,4-0.9,6.1c0.2,1.2,0.3,2.4,0.4,3.7l0,0.1
				c-0.1-0.2-0.2-0.5-0.2-0.8c-0.1-0.4-0.2-0.8-0.4-1.1c-0.4-1-0.7-2-0.9-3c-0.2-0.7-0.4-1.6-0.7-2.5c-0.1-0.4-0.3-0.9-0.5-1.4
				c-0.2-0.6-0.5-1.2-0.6-1.8c-0.3-1.1-0.7-2.3-1-3.4c-0.9-3.4-1.9-6.7-3.2-9.9c-1.1-2.8-2.2-4-3.5-4c-1.2,0-2.3,1-3.7,3.2
				c-1,1.5-1.8,3.2-2.6,4.9c-0.8,1.8-1.8,3.5-2.8,5.1c-2.2,3.4-4.6,6.7-7,9.9c-0.4,0.5-0.8,1.1-1.2,1.6c0.4-1.1,0.6-2.3,0.5-3.4
				c-0.1-3.1-1.4-6.1-3.6-8.3c-1.3-1.2-3-1.9-4.8-1.9c-1.2,0-2.4,0.3-3.4,1c-3.6,2.5-5.7,9.6-4.4,14.9c-0.2-0.4-0.3-0.8-0.4-1.2
				c-0.1-0.4-0.2-0.8-0.4-1.3c0-0.1-0.1-0.3-0.1-0.4c-0.1-0.3-0.2-0.7-0.4-1c-3.4-5.6-5.8-9.6-7.5-12.9c-0.3-0.6-0.7-1.1-1.1-1.6
				c-0.6-0.8-1.2-1.7-1.6-2.6c-1.1-2.3-2.8-4.3-4.9-5.7c-0.4-0.3-0.9-0.5-1.4-0.6c-0.1,0-0.2,0-0.4,0.1c-0.1-0.1-0.2-0.2-0.2-0.2
				c-0.5-0.4-1.1-0.6-1.7-0.5c-0.3,0-0.7,0-1,0.2c-0.8,0.6-1.4,1.5-1.5,2.5c-0.4,2.3-0.8,4.7-1.1,7c-0.2,1.2-0.4,2.3-0.5,3.5
				c-0.8,4.9-2.5,9.6-5.2,13.8c0.2-0.8,0.3-1.7,0.3-2.5c0-0.5,0.1-1,0.2-1.5c0.4-2.6,0-6.6-2.2-9.1c-1.4-1.6-3.6-2.5-5.7-2.4
				c-0.2,0-0.4,0-0.5,0c-1.8,0.1-5,0.9-6,3.5c-2.2,5.7-1.9,8.3,0.3,13.6c0.1,0.2,0.2,0.5,0.4,0.7c-0.9-0.8-1.7-1.6-2.5-2.5
				c-1.1-1.2-2.2-2.3-3.5-3.3c-2.2-1.6-3.7-3.6-6-6.6l-0.1-0.1c-0.1-0.1-8.9-11.4-12.3-14c-0.3-0.2-0.6-0.3-1-0.3
				c-0.6,0-1.1,0.3-1.5,0.8l-0.1,0.1l0,0.1c-1.2,2.6-0.9,5.7,0.9,8c3.9,5.6,13,16.9,17.7,21.2c1.5,1.4,2.9,2.9,4.2,4.5l0,0
				c0.9,1,1.8,2,2.7,3c1.5,1.3,2.2,3.2,2,5.2c-0.1,0.9-0.2,1.9-0.4,3.1c-0.5,4.1-1.1,9.7-1.5,12.7c-0.1,0.3-0.1,0.7-0.2,1l0-0.1
				l-0.4,1.4c0,0.1-0.1,0.2-0.1,0.4l-3.9,15.3c-0.8,2.3-1.7,4.7-2.4,7c-1.1,3.3-2.3,6.7-3.6,10c-1.6,4.1-3.5,6.5-6,7.5
				c-0.8,0.3-1.7,0.5-2.6,0.7c-0.7,0.2-1.3,0.5-1.9,0.9c-2,1.4-1.3,4-0.9,5c0.8,2.1,2.7,2.4,4.3,2.4c0.2,0,0.4,0,0.6,0
				c0.2,0,0.4,0,0.5,0c0.3,0,0.5,0,0.8-0.1c0.4-0.1,0.9-0.1,1.4-0.2c1.5-0.2,3-0.5,4.5-1c3.8-1.3,6.7-4.3,7.8-8.2
				c0.5-1.8,1-3.6,1.5-5.4c0.3-1.2,0.6-2.3,0.9-3.5c0.3-1.2,0.7-2.4,1-3.6c0.4-1.3,0.8-2.7,1.1-4c0.3-1.1,0.6-2.3,0.9-3.4l0,0
				c0.5-1.9,1-3.9,1.5-5.7c0.2-0.6,0.5-1.2,0.9-1.7c0,0.3,0,0.5,0,0.8c-0.1,2.5-0.2,5.1-0.3,7.6c-0.2,4.5-0.4,9.2-0.5,13.8
				c-0.2,3.7-0.8,7.3-1.8,10.9l0,0.1c-0.1,0.4-0.2,0.9-0.3,1.3c-0.2,0.7-0.4,1.5-0.5,2.2c-0.6,2.2-1,4.5-1.3,6.7
				c-0.1,1.2,0.4,2.3,1.2,3.2c0.5,0.5,1.3,0.8,2,0.8h0.1c2.6,0,4.6-1.5,5.7-4.2c1-2.3,1.8-4.7,2.5-7.1c0.3-1,0.6-1.9,0.9-2.9
				c1.1-3.1,1.8-6.3,2.3-9.6c0.6-5.5,1.1-11.1,1.5-16.6v0c0.3-3.5,0.5-7.2,0.9-10.8c0.2-1.9,0.4-4.2,0.6-6.6
				c0.5-5.8,1-12.5,1.7-16.9c0.5-2.8,1.1-5.7,1.9-8.5l0,0c0.3-1.3,0.7-2.6,1-3.9c0.2-1,0.5-1.9,0.7-2.9l0,0c0.6-2.7,1.3-5.4,1.9-8.2
				c0.1-0.6,0.2-1.2,0.4-1.8c0.5-2.3,1.1-5,1.4-7.5c0.2-0.7,0.3-1.3,0.2-2v-0.1c0,0,0-0.2,0-0.3c0.3,0.8,0.6,1.6,0.8,2.4
				c0.5,1.5,1.2,2.9,1.9,4.4c0.4,1,0.9,1.9,1.3,2.9c0.6,1.4,1.2,2.7,1.9,4c0.2,0.4,0.4,0.8,0.6,1.2c0.5,0.9,1,1.8,1.3,2.8
				c2,5.2,4.3,8.4,7.3,10.2c0.1,0.2,0.2,0.4,0.3,0.6v1.9c0.1,2.1,0,4.2-0.2,6.2c-0.2,1.4-0.4,3.2-0.6,5.2c-0.4,4.2-0.9,8.9-1.4,11.8
				c-0.7,4.4-1.3,9-2,13.4c-0.5,3.2-0.9,6.5-1.4,9.7c-0.8,5.6-2.1,9.7-4,13c-0.9,1.6-1.9,3.1-2.8,4.6l-0.1,0.1
				c-1.1,1.5-1.5,3.3-1.4,5.1c0.3,2.1,2.5,2.9,4.2,2.9c1.1,0,2.1-0.7,3.3-2.1c2.2-2.8,3.9-5.8,5.3-9c1-2.5,1.9-5,2.5-7.6
				c0.3-0.9,0.5-1.8,0.8-2.7c1.7-5.8,2.9-11.8,3.5-17.8c0.1-0.9,0.3-1.7,0.5-2.6c0-0.1,0.1-0.1,0.2-0.2c0.1,0.1,0.1,0.3,0.2,0.4
				c0.1,0.5,0.2,1,0.2,1.5c0,0.3,0.1,0.5,0.1,0.8c0.1,0.8,0.2,1.5,0.4,2.2c0.3,1.5,0.5,3.1,0.7,4.7c0.3,2.3,0.5,4.6,0.8,6.8
				c0.4,3.5,0.8,7.1,1.3,10.7c0.5,4.4,2,8.7,4.3,12.4c1.2,1.9,5,3.4,7.5,3.4c0.8,0,1.6-0.2,2.3-0.6c0.8-0.6,1.2-1.6,1.2-2.6
				c-0.4-1.6-1-3.2-1.8-4.7c-2.3-4.1-3.8-8.7-4.4-13.4c-0.3-3-0.5-6-0.6-9l0-0.1c0-1-0.1-1.9-0.1-2.9c-0.1-1.4-0.2-2.9-0.3-4.3
				c-0.2-3.6-0.5-7.2-0.4-10.8c0.1-6.8,0.6-17.5,1.2-23.7c0.6-4.5,2.2-8.7,4.6-12.5c0.3-0.6,0.7-1.1,1-1.7l0.1-0.2
				c2.2-3.3,4.1-6.9,5.7-10.5c0.8-2.1,1.6-4.1,2.5-6.3c0.2-0.4,0.3-0.9,0.5-1.3c0.2,0.8,0.4,1.6,0.6,2.5c0.7,2.6,1.3,5.2,1.9,7.9
				c0.9,5,2.3,9.9,4.3,14.6c3.1,6.8,3.7,18.2,2.5,25.4c-0.4,2.4-0.9,4.8-1.4,7.2c-0.5,2.5-1,5.1-1.5,7.6c-0.4,2.7-0.7,5.4-1,8
				c-0.1,1.2-0.2,2.4-0.4,3.7c0,0.4-0.1,0.9-0.1,1.3c-0.1,1-0.2,2-0.4,3c-0.4,1.7-0.8,3.5-1.2,5.2l0,0c-0.3,1.1-0.4,1.9-0.5,2.7
				c-0.1,0.7-0.2,1.4-0.4,2.3c-0.1,0.5-0.5,2.4-0.7,3.4l-0.1,0.5c-0.1,0.4-0.2,0.8-0.2,1.3c-0.4,2.1-0.7,3.9-1.8,5.1
				c-1.1,1.2-1.5,2.9-1,4.4c0.3,1,1,2.1,4.1,2.8c1.6,0.2,3.1-0.6,3.8-1.9c0.4-0.5,0.8-1.1,1-1.7c0.4-1.2,0.7-2.4,0.9-3.7
				c1.4-3.4,2.6-6.9,3.5-10.5c1.3-5.4,2.4-10.9,3.4-16.3c0.4-2.3,0.9-4.7,1.3-7c0.7-3.1,1.8-6.2,3.2-9.1l0,0
				c0.3-0.7,0.6-1.4,0.9-2.1c0.3,0.9,0.7,1.9,0.9,2.7l0,0c0.5,1.3,1,2.7,1.4,4.1c0.8,2.6,1.8,5.7,2.7,8.9c0.5,1.8,1,3.7,1.5,5.5
				c0.6,2.3,1.3,4.8,1.9,7.1c1.1,3.9,2.4,7.7,3.6,11.4c0,0,0.6,1.9,0.8,2.6c0.2,0.5,0.3,1,0.5,1.6l0,0c0.4,1.5,1,3,1.6,4.5
				c0.6,1.4,1.9,2.3,3.4,2.4c0.6,0,1.1-0.1,1.6-0.4C-116.7-263.9-113.7-270.4-114.1-274.9 M-211.7-368.6c-0.6,5.4-1.8,10.7-2.9,16
				c-0.3,1.7-1.2,3.2-1.6,4.8c-0.8,3.1-1.5,6.3-2.4,9.4c-1.3,4.8-2.1,14.1-2.5,19.2c-0.7,9.3-1.4,18.6-2.3,27.9
				c-0.2,3.9-0.8,7.8-1.6,11.6c-1.3,5.1-3,9.9-4.7,14.8c-0.7,1.9-1.8,3.5-3.7,3.5c-1.6-0.4,0.3-5.9,1-8.6c1.1-4.3,1.8-8.8,2-13.2
				c0.4-5.9,0.8-11.8,0.9-17.7c0-2.7-0.2-5.5-0.8-8.1c-0.4-1.9-1.5-2-2.4-0.4c-1.4,2.6-2.6,5.4-3.6,8.2c-0.9,2.7-1.3,5.7-2,8.6
				c-1,3.8-2.1,7.5-3.3,11.1c-0.9,2.7-1.6,5.7-3.7,7.2c-2.9,2.1-6.5,3.1-10.1,2.9c-1.1,0-4-2.7,0.3-3.2c2.9-0.4,5.5-2.2,6.9-4.8
				c2.1-3.6,3.7-7.5,4.8-11.5c1.1-3.7,2.3-7.3,3.5-10.9v0c0.4-1.1,0.7-2.2,1.1-3.2c0.2-0.7,0.4-1.3,0.3-2l1-3.6c0,0,0,0,0.1,0
				c0-0.1,0-0.2,0-0.3l1-3.6c0,0,0-0.1,0-0.1c0.1-0.2,0.1-0.5,0.2-0.7l0,0l0,0c0.4-1.5,0.8-3.1,1-4.7c0.8-4.6,1.2-9.3,1.3-14
				c-0.2-4.1-0.7-8.5-4.2-10.3c-0.2-0.1-0.4-0.4-0.6-0.6c-1.9-2.1-3.7-4.4-5.6-6.4c-5.9-6.2-11.5-12.7-16.6-19.5
				c-1.3-1.9-1.7-9.6,3.8-0.3c1.4,2.3,9.1,11.2,10.9,12.8c4,3.6,6.8,6.6,11,9.7c1.1,0.8,2.3,0.8,3.3-1c-0.4-0.5-0.9-0.9-1.2-1.5
				c-0.7-0.8-1.2-1.6-1.7-2.6c-1.9-4.4-1.7-6,0.1-10.3c1.2-2.9,3.4-4.4,6-3.4c2.8,1.1,3.6,2.6,4.2,6.3c0.5,2,0.4,4.1-0.3,6
				c-0.6,1.4-1.2,2.7-1.8,4.1c-0.6,1.4-0.2,2.3,1,2.4c1.7,0.2,3.4-0.8,4.1-2.4c0.9-1.6,1.8-3.3,2.7-5c1.7-3.4,2.8-7.1,3.3-10.8
				c0.4-3.6,1-7.2,1.5-10.8c0.1-0.4,0.4-0.7,0.8-0.8c0.2,0,0.6,0.4,0.7,0.7C-212.2-374.6-211.4-371.5-211.7-368.6 M-160.7-376.8
				c-0.1,0.8-0.3,1.6-0.5,2.4c-0.6,3.8-1.9,7.4-3.8,10.8c-2.5,4.8-5.3,9.5-8.1,14.1c-2.6,4.2-4.1,8.9-4.5,13.8
				c-0.5,4.9-1,14.1-0.9,18.9c0.3,9.5,0.8,18.9,1.5,28.4c0.4,5.7,2.1,11.2,4.9,16.1c0.4,0.9,0.7,1.7,1,2.7c0.6,1.4-0.2,1.7-0.9,2.1
				c-1.8,1-3.4-0.6-4.9-1.7c-1.2-0.8-1.9-3-2.6-4.7c-1.7-4.8-2.9-9.7-3.4-14.8c-0.7-5.2-1.4-10.4-2.1-15.6c-0.2-1.4-0.3-2.8-0.5-4.1
				c-0.2-1.4-0.7-2.6-1.9-2.5c-1.6,0.1-2.8,1.4-2.9,3c-0.4,5.9-1.5,11.7-3,17.3c-2,7-4,14.1-8.1,19.6c-0.5,0.7-1.1,1.3-1.7,1.9
				c-1,1-5.5,0.1,0.7-7.4c2.7-3.2,3.4-6.7,4.2-10.7c0.9-5,1.7-10.1,2.4-15.1c0.9-6.1,1.6-12.2,2.4-18.2c0.2-1.7,0.6-7.8,0.7-9.5
				c0.1-1.9,0.1-3.9,0.1-5.8c-0.1-0.7,0-1.5,0.3-2.2c0.6-0.8,0.5-2-0.2-2.7c-0.6-0.8-1.2-1.6-1.9-2.3c-2.1-1.7-3.7-4-4.6-6.6
				c-1.5-3.9-3.4-7.5-5.1-11.3c-1.3-3.1-2.6-6.2-3.7-9.4c-0.6-1.7-2.3-4.8-2.6-6.6c-0.2-2.9,1.9,0.9,2,0.9c0.7,1.3,1.4,2.6,2.2,3.8
				c0.8,1.3,7.2,11.4,9,16c1.1,2.9,2.9,5.9,5.1,7.6c0.7,0.5,1.4,0.9,2.1,1.3c0.1-0.2,0.2-0.3,0.3-0.5c-0.5-1.1-1.1-2.1-1.6-3.3
				c-2.2-4.8-0.4-9.2,1.8-12.8c1.2-2,5.6-3.6,7.7-0.6c1.9,2.7,2.9,4.6,2.2,7.8c-0.5,1.9-1.2,3.6-2.2,5.3c-0.6,1.2-0.7,2.1,0.4,2.5
				c0.7,0.2,1.5,0.1,2.1-0.3c0.8-0.5,1.5-1.1,2-1.8c3.9-5.5,7.8-11,11.5-16.6c1.4-2.2,2.4-5,3.5-7.5c0.2-0.4,0.4-1.1,0.6-1.4
				C-161.2-377.7-160.7-377.3-160.7-376.8 M-116.5-271.8c-0.6,1.6-1.3,3.1-2.2,4.5c-2.7,4-3.9,3.5-5.3-0.8
				c-1.2-3.8-2.5-7.6-3.6-11.4c-1.7-5.7-3.3-11.4-5-17.1c-1.1-3.8-2.1-7.7-3.4-11.4c-0.9-2.5-2-4.9-3.3-7.2c-0.6-1.2-1.3-1.1-2,0.2
				c-0.6,1.1-1.1,2.2-1.5,3.4c-1.2,3.1-2.3,6.3-3.1,9.6c-1,4.1-1.4,8.4-2.2,12.6c-0.7,3.3-1.8,6.4-2.5,9.7c-0.7,3.5-2.5,6.4-3.1,9.5
				c-1.4,8.4-4.1,7.9-4.1,7.9c-2.8,0.1-2.3-2.2-2.3-2.2c0.2-1.8,2.1-3,2.5-3.9c0.7-1.6,0.7-3.6,1-5.6c0.3-2,0.3-2.3,0.8-4.3
				c0.6-2.8,1.4-5.4,1.9-8.2c0.4-2.1,0.5-4.4,0.8-6.5c0.5-4.1,0.9-8.2,1.4-12.3c0.2-1.8,0.5-3.7,1-5.4c1.5-5.1,2-14.7,2.2-20.1
				c0-3.8-0.7-7.6-2.2-11.1c-2.1-5.1-3.7-10.5-4.9-15.9c-1-4.9-2.3-9.7-3.4-14.6c-0.3-1.4-0.5-2.8-0.6-4.3c-0.1-0.8,0.5-0.8,0.7-0.5
				c0.2,0.4,0.4,0.9,0.5,1.4c2.4,6,5.4,18.9,7,22.8c1.4,3.5,2.8,4.3,4,5.6c0.2,0.3,0.7,0.2,1,0.3c0-0.4,0-0.8,0-1.2
				c-0.1-1.1-0.3-2.2-0.5-3.3c-0.6-2.3-0.5-4.7,0.2-7c0.6-2.2,2.7-5.1,5.1-4.3c1.2,0.4,2.3,1,3.3,1.7c2.3,1.6,2.7,5.6,1,8.2
				c-0.8,1.1-1.6,2.1-2.3,3.2c-0.4,0.7-1.3,1.4-0.5,2.7c0.7,1.2,1.5,1.2,2.3,0.4c1.4-1.2,2.6-2.6,3.7-4.1c3.7-5.6,5.3-12.5,6.6-19.6
				c0.6-3.2,0.5-6.5,0.8-9.8c0.1-0.8-0.2-1.9,0.9-2c1-0.1,1.8,0.2,1.8,1.8c0.1,1.8,0.1,3.7,0,5.6c-0.1,2.6-0.5,5.3-1.1,7.8
				c-1.3,4.6-3.1,8.9-4.6,13.4c-1.6,4.9-4.1,9.4-4.3,15c-0.2,5.4-0.2,15.2-0.1,20.6c0,2.7,0.5,5.5,1.6,8c1.7,3.8,4.9,15.8,5.3,17.3
				c1.5,5.5,3,10.9,4.6,16.3c0.6,2,1.5,4.8,3.2,4.1C-115.3-274.4-115.9-273.3-116.5-271.8 M-268.2-373.3c-0.7-0.4-1.2-0.6-1.5-1
				c-0.3-0.6-0.5-1.2-0.7-1.8c0.5-0.1,1-0.3,1.4-0.3c0.2,0,0.5,0.2,0.7,0.2c0.6,0,1.3,0.2,1.1,1.2
				C-267.4-374.4-267.8-373.8-268.2-373.3 M-220.8-387.3c0.7,0.7,1.3,1.5,1.9,2.2c0.2,0.5,0.3,1,0.4,1.5c-0.4,0-1,0.3-1.3,0
				C-220.9-384.4-221.3-385.9-220.8-387.3 M-164.5-385.1c-0.8-1-0.9-2.3-0.3-3.4c0.6,0.7,1.1,1.4,1.5,2.2c0.2,0.4-0.1,1.2-0.2,1.8
				C-163.8-384.7-164.2-384.8-164.5-385.1 M-216.3-386.5c-0.3-0.8-0.6-1.5-0.8-2.2c0.5,0.1,0.9,0.5,1.2,0.9c0.5,0.5,1,1,1.4,1.6
				c0.2,0.4,0.4,0.8,0.3,1.2c-0.1,0.4-0.4,0.9-0.7,0.9c-0.2,0-0.4-0.2-0.5-0.4c0,0.1,0,0.1,0,0.2c-0.2-0.6-0.4-1.1-0.6-1.6
				C-216.1-386-216.2-386.2-216.3-386.5 M-266.1-379.2c-0.8-0.8-1.6-1.6-1.2-3.3C-265.9-381.5-265.6-380.6-266.1-379.2
				 M-131.3-387.4c-0.2-1.2-0.4-2.1-0.6-3c0.4,0.1,0.8-0.1,1,0.2C-130.3-389.4-130.3-388.5-131.3-387.4 M-263.1-386
				c0.2,1.5,0.3,2.6,0.5,4C-263.8-383-264.1-384.8-263.1-386 M-161-388.6c0.1,1.2,0.2,2.2,0.3,3.4
				C-161.9-386.5-161.9-387.4-161-388.6 M-157.2-385.3c-0.9-1-0.9-2.5,0-3.5V-385.3z M-206.3-384.7c-0.2,0-0.4,0-0.6-0.1
				c0.1-0.8,0.1-1.7,0.1-2.5c0.2,0,0.4,0,0.6,0.1C-206.2-386.4-206.2-385.5-206.3-384.7 M-211.4-387.4c0,0,0.1,0,0.1,0v-1.1l0.5,0v1
				h0l0.1,3.1l-0.4,0l-0.1-1.1l-0.1,0v-0.9C-211.3-386.6-211.4-387-211.4-387.4 M-266.1-285.2c-0.3,1.4-0.5,2.9-0.6,4.3
				c0.1,1.4,0.2,2.9,0.5,4.3c-1-0.5-1.8-2.6-1.7-4.9C-267.9-283.4-267.3-284.7-266.1-285.2 M-261.5-283c0.1,0.2,0.1,0.7,0.1,1
				c0,0.1-0.1,0.3-0.2,0.4c-0.6,1.5-1.2,3.1-1.9,4.8c-0.9-1.8,0-5.9,1.3-6.4C-262-283.3-261.7-283.2-261.5-283 M-108.6-274.4
				c0.1,0.6,0,1.2-0.2,1.8c0,0.1-0.6,0.3-0.6,0.2c-0.2-0.5-0.4-1.1-0.6-1.6c0.1-0.1,0.3-0.2,0.4-0.3c-0.4-1-0.9-2-1.3-3.1
				c-0.1-0.4-0.1-0.8-0.2-1.3c0.4,0.1,0.9,0.1,1,0.4C-109.3-277-108.9-275.7-108.6-274.4 M-105.4-271.7c-0.6-0.8-0.3-5.8,0.6-7.1
				C-104.2-276.4-104.5-273.1-105.4-271.7 M-127.6-392.6c0,1.2,0.1,2.1,0.1,3.3c-0.9-0.7-1.1-2.1-0.3-3
				C-127.7-392.5-127.7-392.5-127.6-392.6 M-183.6-359.1c0.2,2-0.8,4-2.5,5.1c-1.3,0.7-2.4,0.3-3.1-1.3c-0.6-1.3-0.5-2.8,0.3-3.3
				c0.8,2.9,2.2,3.2,3.8,0.9c0.4-0.6,0.8-1.2,1.2-1.7C-183.7-359.2-183.6-359.2-183.6-359.1 M-228.9-356c-1.3,0.7-2.4,0.3-3.1-1.3
				c-0.6-1.3-0.5-2.8,0.3-3.3c0.8,2.9,2.2,3.2,3.8,0.9c0.4-0.6,0.8-1.2,1.2-1.7c0.2,0.2,0.3,0.3,0.3,0.3
				C-226.2-359-227.2-357-228.9-356 M-140.6-353.2c-0.7,1.5-1.8,2-3.1,1.3c-1.7-1.1-2.7-3-2.5-5.1c0-0.1,0.1-0.1,0.3-0.3
				c0.4,0.5,0.8,1.1,1.2,1.7c1.5,2.4,3,2,3.8-0.9C-140.2-356-140-354.6-140.6-353.2"/>
		</g>
	</g>
</g>
</svg>
