<?xml version="1.0" encoding="UTF-8"?><svg id="Ebene_2" xmlns="http://www.w3.org/2000/svg" viewBox="0 0 178.04903 88.37064"><defs><style>.cls-1{fill:#003477;}.cls-2{fill:#009289;}.cls-3{fill:#fff;}.cls-4{fill:#ffbf00;}.cls-5{fill:#db0059;}.cls-6{fill:#d70017;}.cls-7{fill:#161615;}</style></defs><g id="Ebene_1-2"><g id="Gruppe_163"><path id="Pfad_45" class="cls-3" d="M138.83745,58.103c-.007,.068-.01,.112-.007,.078-.227-.181-.469-.364-.7-.562-.059-.052-.126-.188-.1-.225,.281-.4-.13-.391-.3-.5-.2505-.15964-.51256-.30037-.784-.421-.16722-.05317-.33945-.08902-.514-.107-.013-.054-.042-.186-.082-.36l-.356,.643c.042,.027,.085,.052,.128,.078,.061-.073,.123-.145,.268-.311,.3,.5,.585,.962,.875,1.435-.54-.064-.574-.112-.434-.592l-.336-.159-.133,.052c.123,.381,.247,.762,.395,1.217l-.49-.237c.043-.028,.087-.054,.128-.082-.19262-.32041-.32987-.67098-.406-1.037-.02-.624-.592-.308-.772-.673-.124,.53-.043,.622,.4,.6l.167,.826-.123,.141c-.064-.216-.126-.433-.19-.648q-.346,.528,.719,1.089c-.13,.031-.218,.081-.293,.066-.29878-.0178-.59107-.09461-.86-.226-.74383-.41-1.5526-.68906-2.391-.825-.509-.159-1.027-.308-1.521-.511-.22825-.11451-.4294-.27646-.59-.475-.19-.208-.183-.389,.022-.664,.26447-.38737,.45595-.81981,.565-1.276,.04-.138-.205-.357-.331-.555,.147-.281,.907-.334,.364-.946,1.2188-.01271,2.43484,.11819,3.62301,.39,1.4256,.33484,2.88462,.5066,4.349,.512,1.44564-.13341,2.85862-.50863,4.18-1.11,1.34763-.4543,2.6162-1.11591,3.76-1.961,.24593-.1991,.47689-.41602,.691-.649,.448-.487,.444-.648,.021-1.175-.329-.412-.329-.416-.077-.726l.865,.586c.02-.02,.04-.038,.063-.057-.23198-.36554-.48612-.71653-.761-1.051-.28011-.36515-.63504-.66621-1.041-.883-.431-.17-.565-.6-.921-.787l-.124,.373c-.084-.144-.167-.29-.225-.389-.19567-.02884-.38818-.07605-.575-.141-.36543-.16621-.72221-.35078-1.069-.553-.13763-.10253-.26134-.22254-.368-.357-.039-.038-.073-.114-.112-.117-.44363-.05156-.86442-.22458-1.216-.5-.107-.077-.315,.006-.466-.032-.579-.141-1.149-.334-1.733-.445-.465-.089-.949-.087-1.424-.135-.07759-.01507-.14657-.05903-.193-.123-.451-.653-1.192-.578-1.841-.694-.1-.017-.26,.343-.426,.575-.134-.075-.3-.169-.466-.261l.025-.071,.4,.015c-.071-.843-.846-.562-1.23-.89l-.127,.141,.717,.763c-.14233-.00153-.2841-.01795-.423-.049-.468-.163-.936-.328-1.393-.518-2.2569-.78415-4.26199-2.15967-5.806-3.983-.69464-1.00674-1.17148-2.1474-1.4-3.349-.30836-1.5135-.36949-3.06695-.181-4.6,.26888-2.3683,.88692-4.68373,1.834-6.871,.38788-.8774,.82456-1.73241,1.308-2.561,.276-.518,.569-1.026,.875-1.524,.10904-.13632,.23779-.25563,.382-.354,.064-.053,.173-.075,.208-.138,.79729-1.35715,1.76295-2.60806,2.874-3.723,1.343-1.4,2.614-2.882,4.014-4.226,1.31525-1.25862,2.69689-2.44599,4.139-3.557,2.09364-1.69981,4.33335-3.21135,6.693-4.517,1.6824-.99768,3.62286-1.4741,5.576-1.369,1.52088,.11881,2.98362,.63617,4.241,1.5,.121,.085,.156,.364,.147,.55-.017,.3,.1,.394,.385,.43,.20412,.01446,.39523,.10555,.535,.255,.335,.5,.613,1.03,.913,1.549l-.109,.087-.35-.113c.433,.77,1.291,1.255,1.136,2.257-.04826-.00068-.0964-.00503-.144-.013-.06642-.02334-.13094-.05175-.193-.085,.815,2.049-.174,3.677-.963,5.351-.063-.018-.126-.033-.187-.052,.1-.265,.188-.536,.294-.8,.3-.74,.628-1.465,.889-2.216,.12-.342,.106-.729-.421-.832-.2,.325-.395,.641-.05,1.026,.068,.075,.022,.257,.024,.3-.2,.057-.374,.056-.442,.141-.14295,.17835-.25484,.37949-.331,.595-.225,.62-.426,1.248-.639,1.873-.0285,.05941-.06409,.11516-.106,.166-.14,.205-.37,.4-.4,.62-.20093,.76138-.5187,1.487-.942,2.151-.179,.374-.3,.776-.475,1.246,.262-.033,.378-.047,.541-.067-.19656,.69639-.53725,1.34371-1,1.9-.39964,.47833-.62712,1.07698-.646,1.7-.00848,.36926-.10554,.73107-.283,1.055-.507,.815-1.068,1.6-1.638,2.373-1.17342,1.663-2.58909,3.14104-4.2,4.385-1.05839,.96742-2.40949,1.55375-3.839,1.666-1.07071,.09923-2.01913-.68831-2.11836-1.75903-.02045-.22065-.00307-.44317,.05136-.65797,.16439-.63259,.40833-1.24179,.726-1.813,.22094-.45108,.48341-.8806,.784-1.283,1.076-1.458,1.86-3.149,3.322-4.3,.48638-.39735,.90602-.87,1.243-1.4,2.00443-2.85233,3.80875-5.84015,5.4-8.942,.3-.632,.575-1.281,.858-1.925,.01475-.05384,.02314-.10921,.025-.165-.43092-.09739-.88242-.03856-1.274,.166-2.69074,1.09461-5.16325,2.66313-7.3,4.631-1,.837-1.941,1.743-2.889,2.639-.913,.868-1.8,1.761-2.7,2.646-1.23912,1.24813-2.39178,2.57921-3.45,3.984-1.70512,2.10747-2.98572,4.52536-3.77102,7.12-.34457,1.17045-.49921,2.38858-.458,3.608,.0221,1.51813,.9018,2.89288,2.271,3.549,.94785,.44088,1.91971,.82816,2.911,1.16,.56715,.27479,1.15786,.49802,1.765,.667,.5815,.23239,1.18121,.41635,1.793,.55,.68793,.14827,1.34763,.40588,1.954,.763,.10612,.03583,.21573,.0603,.327,.073,.084,.015,.184-.011,.251,.028,.818,.469,1.615,.98,2.452,1.411,.645,.331,1.347,.548,2.007,.853,.54693,.21613,1.06543,.49821,1.544,.84,1.14955,.87076,2.09096,1.98638,2.756,3.266,.939,1.955,1.477,3.971,.576,6.11-.07608,.20116-.16838,.3958-.276,.582-.71306,1.19614-1.69545,2.20935-2.869,2.959-1.029,.618-2.1,1.165-3.161,1.725-.49293,.29292-1.01425,.53516-1.556,.723-.51285,.10891-1.03483,.16917-1.559,.18-.068,.006-.14-.025-.208-.024-1.056,.028-2.11,.078-3.167,.078-.57775,.01779-1.15562-.03154-1.722-.147-.54868-.17073-1.08356-.38301-1.6-.635m2.067-2.908c.054,.423-.074,.6-.456,.6-.211,0-.5-.148-.622-.054-.557,.428-.5-.243-.734-.374l.3,.095c-.066-.434-.97-.521-1.634-.193,.027,.133,.053,.261,.078,.392l-.1,.113c.78219,.2066,1.57925,.35204,2.384,.435,.93626,.03191,1.87295-.04867,2.79-.24,.92247-.18977,1.81816-.49203,2.667-.9,1.0099-.42105,1.97366-.94516,2.876-1.564,.516-.395,1.062-.748,1.592-1.123,.0423-.03749,.0793-.08055,.11-.128l-.3-.181c-.21641,.10634-.42089,.2354-.61,.385-.66201,.60891-1.42778,1.09424-2.261,1.433-.434,.2-.853,.424-1.34,.671-.10959-.01308-.22068-.00458-.327,.025-.169,.067-.307,.207-.473,.287-.08623,.02364-.1778,.01873-.261-.014-.025-.007-.054-.128-.036-.144,.174-.154,.368-.428,.539-.416,.468,.032,.779-.352,1.213-.367,.029,0,.052-.151,.082-.227,.007-.02,.032-.032,.052-.05,.031,.075,.059,.147,.1,.264l1.33-.874c-.02-.032-.04-.064-.06-.095l-.237,.038c.013-.095,.022-.167,.033-.241-.165,.625-.724,.515-1.168,.627,.05-.073,.1-.147,.154-.219-.12811,.049-.23974,.13325-.322,.243-.0877,.10896-.19443,.20112-.315,.272-.27853,.13761-.57172,.24328-.874,.315-.479,.088-.588,.394-.634,.811-.017,.152-.188,.421-.267,.413-.511-.054-.92,.352-1.474,.23-.354-.077-.78,.181-1.216,.3-.02-.045-.067-.148-.14-.307,.466-.148,.888-.278,1.306-.419,.19-.064,.49-.106,.535-.232,.187-.522,.664-.487,1.044-.645,.061-.025,.1-.113,.152-.181-.04569-.02396-.09449-.04147-.145-.052-.81883,.1361-1.62258,.3511-2.4,.642-.04755,.03287-.10581,.04646-.163,.038-.39028-.21745-.8753-.16494-1.21,.131-.042,.038-.14,0-.208,.02-.2,.04-.406,.091-.607,.137,.142,.664,.7,.8,1.248,.325m9.422-6.222c.37919-.22427,.5057-.71289,.283-1.093-.272-.415-.578-.809-.872-1.209-.214-.289-.431-.281-.641,.007-.116-.095-.232-.187-.346-.282,.16898,.29171,.36127,.56928,.575,.83,.353,.548,1.1,.856,1,1.746m-16.128,8.4c-.006,.053-.01,.106-.015,.159,.176,.031,.388,.138,.516,.074,.15982-.11702,.28129-.27886,.349-.465,.02316-.10423-.00896-.21304-.085-.288-.46213-.22106-.93972-.40822-1.429-.56-.46178-.09966-.92937-.17013-1.4-.211-.211-.032-.437-.092-.451,.282,1.05962,.03473,2.09145,.34753,2.992,.907-.011,.04-.022,.08-.035,.119l-.447-.018m18.52202-49.28199c-.018-.031-.038-.061-.057-.092-.184,.085-.378,.158-.555,.258-.29328,.14814-.57214,.32322-.833,.523-.32683,.28956-.63229,.60238-.914,.936-.04894,.10218-.04059,.22256,.022,.317,.10754,.05008,.23264,.04524,.336-.013,.247-.18,.607-.265,.585-.7-.006-.112,.166-.254,.282-.348,.373-.3,.755-.589,1.135-.881m-5.923,38.4c.787,.62,1.513,1.195,2.209,1.745,0-.487-1.269-1.555-2.209-1.745m-2.117-36.777c-.833-.156-1.324,.084-1.274,.985l.553-.565c.216-.011,.385,.031,.47-.035,.10469-.11333,.18954-.24348,.251-.385m1.026-2.059c.51067-.38133,1.02233-.76233,1.535-1.143-.68422,.0664-1.27528,.50652-1.535,1.143m-11.684,47.459c-.014,.052-.028,.1-.04,.156,.169,.05,.341,.094,.508,.151,.2,.067,.385,.145,.7,.267-.222-.264-.373-.44-.514-.607l-.656,.033m13.78,2.512c.035,.06,.071,.12,.106,.179,.434-.26,.867-.522,1.3-.783-.027-.043-.05-.084-.077-.126-.442,.244-.888,.487-1.33,.73m.593-5.162q.555,.107,.858-.533l-.858,.533m-15.148,4.443l-.081,.188,.883,.35c.021-.053,.045-.1,.067-.158l-.869-.381m8.625-12.983l.879,.147c.008-.047,.015-.095,.022-.144-.276,.066-.486-.426-.9,0"/><path id="Pfad_46" class="cls-3" d="M128.84545,54.333c-.10001-.233-.233-.451-.339-.681-.03799-.1143-.0638-.23228-.077-.352l-.417,.053c.113-.71-.754-.617-.964-1.149l.505,.262c-.025-.165-.017-.327-.056-.338-.583-.194-1.037-.481-1.05-1.186,0-.073-.173-.142-.265-.214-.006,.053-.013,.106-.02,.158-.16061,.04813-.32652,.07634-.494,.084-.061,0-.119-.107-.08-.29,.06-.287-.176-.638-.287-.96l-.2,.081c0-.435-.013-.447-.382-.31-.022,.008-.063-.043-.1-.06-.292-.138-.315-.461-.465-.667-.5216-.6385-1.08234-1.244-1.679-1.813-.733-.784-1.491-1.552-2.173-2.377-.371-.449-.569-1.03-1.09-1.379-.20907-.17331-.3899-.37809-.536-.607-.029-.039,.025-.14,.042-.212l.791,.794c.031-.027,.06-.052,.092-.077-.184-.233-.368-.465-.551-.7-1.043-1.33-2.093-2.654-3.122-4-.29-.381-.519-.807-.775-1.213s-.532-.815-.769-1.239c-.539-.962-1.048-1.939-1.6-2.895-.59007-.98773-1.33681-1.87294-2.211-2.621-.486-.434-.441-.692,.078-1.03,.551-.359,1.068-.775,1.594-1.174,.06107-.06899,.1107-.14732,.147-.232-.091-.028-.18-.053-.392-.116,.6-.426,1.13-.8,1.661-1.183,.166-.119,.322-.253,.528-.414,.09913-.01148,.19427-.04571,.278-.1,.712-.678,1.223-1.53,1.993-2.169,.5603-.53014,1.09141-1.0903,1.591-1.678,.183-.19,.437-.313,.613-.505,.17937-.26612,.37369-.52187,.582-.766,.60683-.53809,1.15216-1.14177,1.626-1.8,.18342-.22522,.3521-.46204,.505-.709,.287-.509,.546-1.038,.819-1.556,.548-1.036,1.158-2.042,1.633-3.109,.40485-.90162,.7168-1.84214,.931-2.807,.35255-.90306,.45616-1.88422,.3-2.841-.006-.02,.021-.05,.036-.082,.114-.029,.233-.06,.373-.1-.024-.1-.017-.2-.066-.255-.22565-.21401-.27677-.55411-.124-.825,.0246-.14563-.02532-.29391-.133-.395-.27117-.19998-.39285-.54519-.307-.871,.08687-.34718-.12415-.69904-.47133-.78591-.09892-.02475-.20227-.02581-.30167-.00309-.47823-.45688-.81317-1.04304-.964-1.687-.10732-.12409-.23477-.22922-.377-.311-.32959-.1904-.63915-.41353-.924-.666-.49305-.64506-1.16546-1.13032-1.93302-1.395-1.03342-.22131-2.11111-.09219-3.063,.367-1.56943,.68482-3.0024,1.64724-4.23,2.841-2.36563,2.25182-4.32742,4.89279-5.8,7.808-.09473,.15928-.19823,.31318-.31,.461-.064-.024-.128-.045-.191-.067,.036-.681-.033-.755-.109-.789,.07814-.38271,.03731-.78017-.117-1.139,.024-.472,.01-.377-.018-.039-.03963-.07413-.08653-.14414-.14-.209-.47298-.60096-.97595-1.17769-1.507-1.728-.71738-.33872-1.56673-.22521-2.17,.29-.45728,.7249-.82655,1.50171-1.1,2.314-1.031,3.715-.794-1.746-1.309,2.078-.377,2.8-.36,3.168-.638,5.647-.144-.024-.287-.047-.431-.057-.528-.036-1.059,.008-1.588-.011-2.721-.109-5.306,.674-7.923,1.23-.313,.066-.491,.054-.6-.251q.4-.29-.054-.853c.43789-.52244,.40314-1.29309-.08-1.774,.341-.359,.535-1,.3-1.2-.359-.3-.212-.53,.01-.816-.286-.227-.535-.468-.163-.812,.036-.035,.017-.14,.007-.209-.01658-.24145-.06019-.48027-.13-.712-.20045-.39307-.22765-.85201-.075-1.266,.017-.04-.106-.128-.14-.207-.30262-.47858-.35978-1.07249-.154-1.6-.255-.271-.516-.535-.194-.957-.47-.135-.318-.441-.247-.624-.4-.79-.759-1.509-1.121-2.225l-.061,.021c.052,.214,.1,.426,.163,.66-.286-.278-.272-.814-.847-.784-.145,.006-.3-.265-.519-.466,.054,.193,.088,.3,.119,.416l-.052,.021c-.045-.07-.095-.137-.133-.209-.06837-.22181-.17204-.43116-.307-.62-.433-.4-.617-.4-1.2-.071-1.66942,.91829-3.10619,2.20694-4.2,3.767-.222,.327-.438,.659-.652,.992-.067-.024-.133-.046-.2-.067,.014-.04,.029-.082,.042-.121l.208-.028,.024-.142c-.608-.137-1.221-.251-1.844-.359-.641-.109-1.21-.554-1.925-.361,.1-.352,.334-.529,.628-.433,.26367,.10042,.54288,.15389,.825,.158,.254-.008,.508,.025,.762,.042,.22441,.0013,.44851,.01666,.671,.046,.433,.084,.861,.2,1.291,.3l.038-.137c-.5-.134-.994-.306-1.5-.392-2.70689-.43274-5.44957-.6002-8.189-.5-2.14026,.0233-4.2749,.22399-6.382,.6-1.534,.3-3.086,.523-4.625,.8-.36252,.0956-.74395-.06494-.929-.391-.77304-1.34548-1.84158-2.4978-3.125-3.37-.308-.169-.544-.646-1.026-.331-.027,.017-.113-.07-.177-.1-.3-.123-.607-.241-.913-.363-.011,.027-.024,.052-.036,.078l.466,.509c-.015,.014-.033,.028-.052,.042l-.32-.173c.1,.173,.162,.269,.221,.367-.029,.029-.061,.057-.091,.085-.2-.172-.4-.334-.581-.518-.454-.465-.893-.423-1.136,.173-.27173,.59956-.47857,1.22646-.617,1.87-.359,2.085-.656,4.178-.969,6.271-.05,.338-.409,.525-.829,.336l.638-.322c-.331-.024-.7,.145-.927,.028-.572-.3-.765,.555-1.26,.328-.276,.452-.622,.25-.9,.13l-.8,.328c-.035,.131,.1,.522-.384,.5,.01-.04,.021-.081,.028-.12,.017-.116,.035-.232,.052-.348-.117,.04-.233,.088-.354,.12-.354,.088-.71,.183-1.07,.247-.056,.01-.137-.124-.169-.156-.183,.088-.36,.17-.6,.282l-.283,.394c-.028-.021-.057-.043-.087-.063,.038-.127,.074-.255,.128-.435-.241,.183-.426,.325-.635,.483l-.246-.377-.487,.315v-.137c-.31877-.07013-.64012,.10702-.751,.414-.183-.052-.327-.147-.437-.116-.427,.117-.849,.254-1.271,.384,.05936-.22163,.10676-.44628,.142-.673,.038-.258,.373-.463,.454-.727,.226-.748,.38-1.516,.588-2.268,.08554-.33095,.21467-.64907,.384-.946,.075-.128,.308-.162,.56-.281,0-.031,.036-.262-.059-.356-.461-.459-.239-.872-.021-1.323,.6,.307,.755,.614,.585,1.168-.4,1.3-.821,2.593-1.231,3.89,.159-.147,.4-.264,.458-.441,.336-.969,.663-1.943,.923-2.932,.33895-.97337,.26301-2.04326-.21003-2.959-.06096-.15993-.09476-.32893-.1-.5l.336,.018c.14-1.291-1.043-1.786-1.62-2.71,.2,.043,.324,.067,.445,.094l.114-.123c-.43-.624-.836-1.27-1.308-1.862-.1931-.17033-.44253-.26298-.7-.26-.368-.015-.5-.13-.509-.509,.01204-.25245-.081-.49861-.257-.68-1.66889-.95875-3.55933-1.4648-5.484-1.468-2.28409,.04657-4.50894,.73516-6.42,1.987-.88048,.53832-1.73323,1.12073-2.555,1.745-2.45524,1.8482-4.79309,3.8474-7,5.986-2.2638,2.11301-4.36384,4.39491-6.282,6.826-.814,1.05-1.7,2.043-2.481,3.118-1.11056,1.38043-2.06096,2.88236-2.833,4.477-.038,.087-.155,.14-.227,.215-.18963,.16744-.3576,.35791-.5,.567-.272,.507-.488,1.045-.745,1.56C1.32331,30.24993,.23806,34.38433,.05345,38.607c-.16821,2.11263,.06143,4.23806,.677,6.266,.43661,1.57561,1.21968,3.03378,2.292,4.268,2.10698,1.99769,4.67839,3.43909,7.482,4.194,.593,.2,1.2,.357,1.8,.516,.17034,.02299,.34266,.02768,.514,.014-.364-.342-.66-.622-.955-.9,.045-.054,.089-.107,.135-.162,.529,.35,1.474-.056,1.644,.987l-.518,.02-.027,.1c.229,.095,.456,.191,.617,.257,.191-.321,.357-.768,.47-.755,.809,.094,1.715-.091,2.353,.646,.07133,.0956,.17521,.16177,.292,.186,.583,.02,1.174-.04,1.75,.025,.765,.085,1.518,.271,2.279,.394,.194,.031,.444-.089,.592-.006,.47024,.30968,1.01721,.48277,1.58,.5,.05,0,.1,.095,.154,.14,.16671,.16216,.35006,.30629,.547,.43,.43832,.21622,.88835,.40785,1.348,.574,.24713,.06355,.49948,.10472,.754,.123,.068,.109,.181,.29,.3,.472,.042-.149,.087-.3,.128-.448,.875,.618,1.795,1.234,2.671,1.906,.29951,.28805,.56583,.60871,.794,.956-.574,.359-.629-.254-.934-.356-.412,.317-.225,.59,.052,.882,.685,.727,.71,.895,.073,1.64-.40823,.48352-.86309,.92566-1.358,1.32-1.79239,1.29469-3.74115,2.35777-5.8,3.164-1.42426,.69223-2.99166,1.03894-4.575,1.012-1.588-.074-3.172-.237-4.76-.339-1.327-.084-2.654-.135-3.984-.2,.682,.832-.257,.984-.4,1.333,.187,.254,.512,.5,.476,.688-.07545,.57484-.26846,1.128-.567,1.625-.289,.41-.232,.66,.056,.924,.22996,.22667,.50874,.3977,.815,.5,.86,.236,1.732,.44,2.611,.589,.79655,.07492,1.57214,.29773,2.287,.657,.47245,.28434,1.05059,.33169,1.563,.128-.515-.318-1.263-.253-1.37-.927,.107-.133,.215-.265,.321-.4l.322,.909c.049-.081,.1-.16,.147-.243-.067-.315-.124-.632-.212-.943-.04389-.08353-.12874-.13757-.223-.142-.576,.133-.476-.24-.508-.655,.427,.169,.77,.306,1.114,.44,.1-.308,.194-.62,.334-1.07l.17,.47c.24578,.03493,.48922,.08469,.729,.149,.24943,.09522,.49317,.20474,.73,.328,.336,.165,.895,.133,.7,.786-.015,.049,.12,.207,.19,.209,.4,.015,.535,.3,.67,.606,.024,.053,.1,.085,.193,.167-.018-.138-.025-.207-.029-.232,.784,.211,1.566,.444,2.359,.632,.74155,.1223,1.49834,.11959,2.239-.008,1.04-.1,2.082-.184,3.123-.286,.20798-.05929,.41982-.10406,.634-.134,1.13031,.12302,2.25909-.24475,3.1-1.01,.13799-.11598,.28821-.21658,.448-.3,.874-.5,1.757-.984,2.622-1.5,.375-.222,.713-.508,1.069-.765,.48844-.30514,.95309-.64678,1.39-1.022,.52697-.51399,1.00194-1.07873,1.418-1.686,.52755-.70619,.96743-1.47381,1.31-2.286,1.026-2.791,.131-5.323-1.27-7.729-.96961-1.54495-2.27069-2.85491-3.809-3.83501-.63588-.38372-1.31625-.68831-2.026-.907-.86-.318-1.765-.522-2.608-.875-1.1-.463-2.148-1.027-3.224-1.537-.088-.042-.212,0-.32-.011-.14037-.0033-.27992-.02242-.416-.057-.79707-.39105-1.65209-.65073-2.532-.769-.7804-.10176-1.55013-.27311-2.3-.512-.83356-.1669-1.65123-.40511-2.444-.712-1.22932-.30284-2.44003-.6768-3.626-1.12-1.78425-.69285-3.02595-2.33182-3.21-4.237-.451-3.6,.634-6.883,2.046-10.076,.67403-1.35555,1.43912-2.66387,2.29-3.916,1.13719-1.84426,2.4242-3.59182,3.848-5.225,1.068-1.225,2.114-2.47,3.2-3.677,1.114-1.235,2.226-2.48,3.415-3.644,2.47212-2.65584,5.40046-4.84685,8.646-6.469,.50397-.18932,1.01973-.34565,1.544-.468,.045,.063,.088,.126,.131,.188-.465,1.23-.9,2.47-1.4,3.684-1.03381,2.43514-2.1985,4.81261-3.489,7.122-.49919,.36429-.97948,.75379-1.439,1.167-.28683,.29345-.28147,.76386,.01198,1.05069,.04307,.0421,.09109,.0788,.14302,.10931l-.741,1.327c-.36155,.68723-.83464,1.30968-1.4,1.842-1.708,1.559-2.507,3.736-3.717,5.636-.36473,.58289-.67568,1.19776-.929,1.837-.33607,.71579-.57808,1.47208-.72,2.25-.26562,1.34254,.60739,2.64621,1.94992,2.91183,.32064,.06344,.65067,.06282,.97108-.00183,1.72987-.29277,3.31824-1.13836,4.527-2.41,1.93457-1.74516,3.5955-3.77152,4.927-6.011,.622-1,1.237-2.006,1.772-3.052,.21606-.45147,.31412-.95035,.285-1.45-.04594-.69941,.13617-1.39487,.519-1.982,.54031-.77603,.94037-1.64079,1.182-2.555l6.385-1.618c1.218-.308,2.435-.624,3.655-.929,.589-.148,1.179-.283,1.8-.433-.123,1.231-.183,2.447-.373,3.643-.62061,4.38891-.78348,8.83043-.486,13.253,.137,2.765,.385,5.522,.618,8.282,.26404,3.85219,.77745,7.68322,1.537,11.469,.49207,2.69273,1.31427,5.31451,2.448,7.806,.49868,.98115,1.15166,1.87587,1.934,2.65,.49963,.53129,1.19375,.83665,1.923,.846,.219,0,.441-.23,.663-.356-.02-.04-.04-.082-.061-.123h-.357l.215-.215-.535-.3c.26878-.22755,.55059-.43924,.844-.634,.5565-.33698,.98501-.84958,1.218-1.457,.034-.077,.092-.2,.06-.239-.272-.363-.01-.578,.2-.825,.271-.328,.483-.02,.717,.05,.022,.007,.054-.008,.107-.02,.1-.2,.207-.406,.334-.653-.45015-.08909-.8146-.41894-.948-.858-.234-.481-.385-1-.6-1.495-.269-.6-.229-1.323-.713-1.842-.04918-.07173-.07471-.15704-.073-.244-.013-.359-.008-.719-.028-1.076-.013-.209-.039-.4-.3-.5-.1-.039-.126-.294-.186-.451l.085-.039,.23,.19-.127-.992c-.087,.184-.121,.261-.2,.428-.033-.271-.054-.434-.061-.484,.109-.071,.211-.1,.219-.149,.00155-.10099-.00953-.20177-.033-.3-.09466-.92133-.18966-1.84233-.285-2.763l.092-.01c.34067,1.99133,.68033,3.98333,1.019,5.976,.07462-.23754,.09276-.48921,.053-.735-.223-1.661-.462-3.32-.671-4.982-.05-.394,.022-.8-.013-1.2-.067-.752-.212-1.5-.251-2.251-.117-2.342-.216-4.688-.283-7.033-.13582-.6943-.04174-1.41395,.268-2.05,.052-.08-.017-.264-.067-.384-.2956-.50262-.33278-1.11637-.1-1.651,.16943-.23449,.16496-.55237-.011-.782-.17576-.25144-.19397-.58072-.047-.85,.08-.181,.154-.49,.061-.6-.267-.317-.16-.613-.081-.928,.031-.124,.126-.282,.08-.367-.367-.7,.024-1.435-.154-2.166-.04787-.55481-.05221-1.11251-.013-1.668-.05-.8,0-1.6,.01-2.4,.014-1.488,.032-2.975,.038-4.465,0-.311-.045-.624-.064-.936-.01394-.13999-.01394-.28101,0-.421,.207-1.285,.421-2.569,.628-3.855,.03344-.33237,.26724-.61024,.589-.7,3.52105-1.30774,7.15888-2.27647,10.864-2.893,2.324-.37,4.663-.649,6.995-.953,.49-.064,.983-.1,1.474-.133-.59067,.95333-1.15367,1.92-1.689,2.9-.892,1.644-1.643,3.365-2.441,5.056s-1.58898,3.36699-2.34898,5.06299c-.38887,.83003-.72781,1.68255-1.015,2.553-.11221,.4111-.40996,.74621-.805,.906-1.136,.544-2.283,1.076-3.366,1.714-1.618,.953-3.186,1.989-4.769,3-.1425,.12339-.26704,.2661-.37,.424,.3385,.42558,.86446,.65772,1.407,.621,.52467-.03185,1.04941,.06138,1.531,.272,1.13261,.50735,2.4015,.62482,3.608,.334,.15698-.02873,.31643-.04179,.476-.039-.031,.156-.043,.255-.07,.349-.77097,2.8049-1.34932,5.65922-1.731,8.543-.109,.765-.147,1.546-.32,2.3-.2,.858-.544,1.682-.762,2.537-.09467,.47528-.14456,.9584-.149,1.443-.033,.595-.017,1.19-.07,1.782-.024,.261,.039,.4,.272,.488,.346,.133,.7,.257,1.031,.416,.99484,.47996,2.19041,.06257,2.67037-.93227,.12881-.26699,.19666-.55929,.19863-.85572,.03184-.56964,.11314-1.13544,.243-1.691,.1-.48,.268-.946,.373-1.426,.077-.352,0-.77,.172-1.056,.14159-.23389,.20008-.50872,.166-.78,0-.032,.085-.064,.11-.109,.092-.159,.247-.327,.243-.488-.00192-.22608,.04409-.45,.135-.657,.2315-.6807,.42085-1.37502,.567-2.079,.126-.5,.219-1,.368-1.492,.147-.473,.346-.929,.516-1.4,.013-.033-.027-.087-.021-.126,.11-.643,.215-1.29,.341-1.932,.095-.486,.216-.967,.331-1.45,.045-.194,.106-.385,.154-.579,.078-.315,.144-.636,.227-.95,.12012-.63689,.30612-1.25957,.555-1.858,.117-.229,.664-.234,1.016-.343,.109-.033,.221-.064,.329-.1,1.76667-.582,3.53333-1.163,5.3-1.743,.138-.045,.288-.064,.473-.106-.01,.212-.008,.354-.025,.494-.116,1.037-.24,2.071-.353,3.107-.21857,1.92169-.31876,3.85501-.3,5.789,.04,3.094,.006,6.188,.017,9.284,.006,1.39-.018,2.786,.08,4.17,.21582,3.41016,.78555,6.78865,1.7,10.081,.43781,1.74439,1.26557,3.36675,2.421,4.745,.4231,.60396,1.25254,.75667,1.863,.343-.286-.089-.641-.135-.359-.568l-.537-.434,1.424,.433,.127-.088c-.1-.218-.2-.434-.353-.748,.357,.177,.662,.329,.9,.448,.294-.306,.537-.562,.832-.868,.074-.23,.177-.555,.268-.837l-.412-1.087,.1-.036c.167,.3,.334,.592,.55,.973-.191-.758-.354-1.408-.516-2.059l.1-.025,.353,.914c.09046-.36036,.14473-.72886,.162-1.1-.036-.8-.117-1.6-.229-2.4-.036-.243,.059-.618-.37-.7-.038-.007-.078-.3-.056-.308,.293-.121,.183-.409,.265-.61,.02672-.1082,.03783-.21966,.033-.331h-.131c-.064,.2-.128,.408-.221,.7-.07272-.20569-.12498-.41805-.156-.634-.007-.237,.087-.479,.074-.715-.049-.879-.117-1.758-.193-2.636-.008-.091-.1-.176-.156-.262l-.1,.052,.038,.722h-.064c-.04-.081-.081-.163-.149-.3-.007,.233-.011,.4-.015,.561l-.1-.006c-.034-.162-.068-.325-.106-.508l-.279,.147c.09469-.27017,.16334-.54877,.205-.832-.00696-.28092-.03874-.56068-.095-.836l.163-.014c.01,.187,.021,.374,.032,.56l.11,.02c.025-.179,.053-.356,.08-.533h.047c.025,.211,.053,.42,.08,.631,.32446-.54091,.3093-1.22012-.039-1.746-.08399-.1476-.11069-.32096-.075-.487,.14856-.42065,.13213-.88198-.046-1.291-.028-.046,.029-.145,.053-.216,.04015-.07495,.06881-.15552,.085-.239-.008-.278-.031-.554-.057-.83-.071-.745-.149-1.489-.216-2.236,.01369-.10042,.0434-.19799,.088-.289,.113,.156,.247,.257,.254,.366-.03094,.4463-.01283,.89465,.054,1.337,.07451,.57204,.08524,1.15059,.032,1.725,.008,.257-.113,.585,.261,.733,.036,.014,.033,.173,.017,.257-.05875,.17478-.10159,.35451-.128,.537,.008,.543,.052,1.086,.077,1.542l.888,.167c.015-.04631,.02604-.09382,.033-.142,.04395-.5849,.0573-1.1717,.04-1.758,.07051-.5607,.0789-1.12746,.025-1.69-.077-.268,.08-.6-.331-.7,.4439-.4926,.41872-1.24806-.057-1.71,.47-.084,.613-.454,.335-.868-.25533-.40554-.28109-.91476-.068-1.344,.10983-.26091,.08711-.55876-.061-.8-.06593-.20239-.08541-.41704-.057-.628,.01971-.15893,.05318-.31585,.1-.469l-.5,.061c.024-.1,.014-.269,.084-.311,.426-.257,.318-.615,.244-.987-.04894-.15299-.03932-.3187,.027-.465,.3-.353,.131-.662-.031-1.05l-.512,.334c-.02-.269-.04-.514-.06-.758,.036-.008,.07-.018,.1-.025,.056,.085,.114,.172,.236,.357,.13898-.34647,.2373-.70788,.293-1.077,.007-.2-.211-.576-.342-.583-.522-.027-.348-.294-.3-.525l.67-.159c.112-.44-.835-.759,0-1.246-.156-.218-.264-.529-.468-.618-.374-.163-.4-.109-.272-.387,.219,.024,.416,.046,.735,.08-.156-.791-.292-1.477-.4-2.035,.152-.074,.3-.116,.3-.147-.01771-.2902-.05513-.57887-.112-.864-.011-.056-.14-.089-.219-.135l-.126,.421h-.119l-.131-1.033c.166,.1,.233,.145,.285,.176,.091-.287,.179-.544,.253-.807,.028-.1,.075-.268,.027-.317-.325-.322-.163-.681-.114-1.034,.015-.11,.08-.254,.033-.324-.244-.361-.043-.585,.2-.812,.08437-.08724,.16351-.17941,.237-.276-.491-.343-.571-.529-.374-1.056,.16251-.61075,.6299-1.09366,1.23502-1.27601,.833-.233,1.652-.522,2.473-.8,.95-.321,1.9-.646,2.84-.989,.659-.239,1.288-.579,1.961-.749,.45653-.1033,.90662-.23319,1.348-.389-.14799,1.52667-.28468,3.055-.41,4.585-.16,1.986-.215,3.98-.289,5.973-.071,1.915-.167,3.832-.148,5.747,.032,3.285,.155,6.571,.221,9.856,.024,1.117-.031,2.236-.014,3.354,.012,.31754,.09179,.62883,.234,.913,.121,.25,.395,.42,.533,.663,.442,.783,1.023,1.269,1.905,1.037,.064-.659,.128-1.324,.193-2l.325,.514,.106-.057c-.028-.148-.054-.3-.095-.519l.243,.292c.3-.257,.738-.367,.822-.846,.01-.053,.134-.11,.209-.123,.173-.01943,.34692-.02978,.521-.031,.082-.353,.16-.684,.234-1.008l.488,.269c.02-.035,.038-.07,.057-.1l-.255-.456,.629-.032-.167-.237c.16161,.03293,.32536,.05431,.49,.064,.20116-.01404,.40145-.03874,.6-.074-.117-.095-.194-.155-.271-.215l.127-.024c-.01026-.15417-.03064-.3075-.061-.459-.042-.156-.187-.308-.169-.448,.035-.289,.173-.564,.218-.851,.013-.089-.141-.2-.221-.3-.032,.021-.067,.039-.1,.059,.034-.159,.068-.317,.1-.477,.025-.018,.047-.036,.071-.056,.027,.078,.056,.158,.091,.26,.071-1.13,.138-2.176,.2-3.221,.018-.3,0-.6,.04-.888,.022-.155,.187-.294,.2-.448,.081-1.516,.137-3.033,.215-4.55,.061-1.21,.141-2.419,.214-3.629,.007-.1,.038-.208,.061-.341,.04395,.03513,.08387,.07504,.119,.119,.483,.762,.983,1.517,1.44,2.294,2.45976,4.34015,5.60962,8.25096,9.326,11.579,2.93178,2.69737,6.4109,4.73061,10.2,5.961,.41131,.1006,.82843,.17574,1.24899,.225,.00999-.05,.01801-.1,.028-.151-.367-.073-.737-.134-1.1-.222-.10832-.04361-.20946-.10327-.3-.177,.043-.053,.088-.106,.191-.233-.205,.043-.346,.074-.484,.1,0-.039-.006-.114-.008-.184-.557,.253-.254-.419-.554-.455l-.2,.121c-.087-.156-.156-.287-.247-.455,.07829,.0085,.15607,.02118,.233,.038,.719,.209,1.436,.424,2.155,.629,.454,.128,.505,.084,.514-.409,0-.147-.013-.293-.02-.44h.12399c-.00418,.04691-.00418,.09409,0,.141,.013,.1,0,.248,.05901,.287,.09686,.05244,.21269,.05651,.313,.011,.05-.031,.054-.209,.01801-.294M13.53945,69.565l-1.485-.375c.713-.43,1.34-.212,1.485,.375m-1.1,2.388l-1.128-.348c.029-.082,.057-.165,.085-.246l1.126,.388c-.027,.068-.056,.137-.084,.205m.9,.124c-.166,.1-.462-.011-.7-.029v-.208l.576-.015,.033-.152c-1.19267-.61141-2.52276-.90518-3.862-.853l-.063-.17801c.173-.074,.348-.218,.519-.215,.62938-.00923,1.25847,.03291,1.881,.126,.61307,.13788,1.2148,.32207,1.8,.551,.11097,.07222,.17677,.19663,.174,.329-.05144,.24757-.17866,.47299-.364,.645m16.59-1.033l-.149-.211,1.6-1.051c.039,.053,.08,.1,.119,.158l-1.571,1.1m.9-5.984c-.4,.359-.738,.805-1.171,1.116-.465,.334-1.031,.523-1.52,.83-1.4562,.93636-3.02542,1.68401-4.67,2.225-1.13816,.32636-2.31032,.51965-3.493,.576-.79881-.00111-1.59548-.08252-2.378-.243-.349-.046-.345-.073-.72-.812,.7-.089,1.364-.173,2.05-.262,.04,.163,.07,.281,.113,.458l-.456-.131c.05438,.10983,.12482,.21094,.209,.3,.152,.121,.328,.286,.5,.293,.26512-.01895,.52682-.07102,.779-.155,.226-.049,.452-.095,.68-.141,.135-.027,.274-.047,.477-.082-.038-.061-.091-.154-.149-.243-.07-.1-.145-.207-.248-.352-.261,.512-.722,.459-1.125,.357-.194-.049-.327-.346-.47-.514,.583-.292,1.055-.558,1.552-.762,.2106-.04195,.4274-.04195,.638,0,.269,.011,.6,.26,.727-.247,.021-.085,.413-.057,.621-.12,.694-.208,1.382-.437,2.074-.649,.10382-.01469,.20918-.01469,.313,0,.013,.033,.024,.066,.033,.1-.37057,.17487-.72993,.37259-1.076,.592-.433,.306-.709,.794-1.3,.931-.45647,.15598-.8963,.35697-1.313,.6,.07,.156,.123,.275,.177,.394,.052,0,.1,.01,.12-.007,.26-.331,.61-.332,1-.364,.49472-.07881,.98135-.20197,1.454-.368,.28542-.04397,.56193-.13344,.819-.265,.15023-.1642,.23555-.37749,.24-.6,.047-.441,.071-.828,.632-.967,.42931-.12576,.83746-.31484,1.211-.561,.177-.109,.254-.368,.4-.546,.07953-.07879,.18813-.12114,.3-.117-.068,.094-.135,.188-.2,.282,.022,.032,.042,.066,.064,.1,.377-.155,.755-.31,1.132-.466,.028-.188,.054-.366,.1-.688l.336,.674c-.43,.313-.911,.666-1.432,1.048-.061-.133-.107-.23-.11-.233-.123,.126-.232,.313-.389,.381-.438,.188-.911,.3-1.345,.5-.20963,.12813-.39345,.29431-.542,.49-.0327,.07454-.02976,.1599,.008,.232,.1041,.04688,.22161,.05469,.331,.022,.2-.116,.36-.31,.565-.41,.16535-.05185,.33772-.07783,.511-.077,.207-.145,.4-.294,.6-.428,1.065-.7,2.137-1.386,3.192-2.1,.26901-.20551,.51841-.43549,.745-.687,.243-.24,.487-.426,.847-.091-.47,.387-.973,.776-1.446,1.2m-.857-.72l1.009-.773c.033,.046,.07,.091,.1,.137-.332,.232-.342,.883-1.114,.636m-.109-7.84898c.159,.149,.315,.3,.479,.454,.205-.341,.445-.5,.733-.188,.476,.512,.946,1.033,1.377,1.583,.22934,.41757,.13226,.93895-.232,1.246-.09531-.35265-.24151-.68953-.434-1-.41416-.43168-.85076-.84124-1.308-1.227-.255-.241-.488-.507-.733-.761,.04-.035,.078-.07,.117-.1m.528,2.391l-2.876-1.933c.872-.033,2.758,1.276,2.876,1.933M20.95145,11.316c-.349,.033-.167,.708-.608,.624,.087-.265,.144-.437,.2-.608l-.138-.054c-.25,.3-.5,.6-.749,.9,.166-.373-.264-.916,.29-1.136,.343-.137,.713-.208,1.217-.352-.089,.276-.134,.617-.211,.624m1.188-3.109c.24277-.8391,.96057-1.45396,1.827-1.565l-1.828,1.566m7.619,1.027c-.20297,.11493-.33451,.32426-.35,.557,.056,.6-.514,.634-.777,.932-.053,.061-.287-.038-.5-.073,.59924-1.23305,1.63582-2.19905,2.908-2.71-.517,.343-.636,1.061-1.282,1.294m11.5,6.311v-.233c.208,.011,.3,.014,.391,.018,0,.029,.01,.057,.014,.087l-.4,.128m8.952-2.282c-.038,0-.078-.006-.116-.01,.043-.43,.089-.861,.133-1.292l.14,.011c-.052,.431-.1,.86-.156,1.291m.438-.3c-.064-.011-.127-.021-.191-.029l.134-.885,.145,.015-.088,.9m3.828,34.609l.12-.015c.117,1.3,.233,2.6,.324,3.612-.022-.042-.1-.2-.179-.346-.094,.124-.188,.248-.281,.373,.004-1.20866,.009-2.41634,.015-3.623m-.367,2.515c-.01933-.56267-.038-1.12334-.056-1.682,.33584,.50477,.35752,1.15601,.056,1.682m-2.72399-9.968c.02055,.035,.03508,.07319,.043,.113,.02752,.68131,.01182,1.36368-.047,2.043l-.123-2.146,.127-.01m1.773,10.135c-.029-.081-.06-.159-.14-.375-.078,.237-.117,.361-.177,.544-.172,.059-.377-.078-.389-.357-.013-.311-.014-.308-.341-.49-.036-.02-.022-.12-.06-.155-.134-.124-.281-.236-.423-.353-.045,.022-.088,.045-.131,.068-.011-.3-.022-.59-.035-.925-.06,.059-.1,.1-.144,.138l-.1-.029c.08505-.21424,.14447-.4378,.177-.666,.00729-.38678-.01477-.77356-.066-1.157-.02299-.19308-.01455-.38861,.025-.579,.126-.664,.163-1.345,.232-2.01l-.459-.088c.159-.158,.267-.264,.41-.409,.05267,.13329,.08633,.27333,.1,.416-.01934,.69222,.1106,1.38049,.381,2.018,.056,.154-.049,.36-.064,.546-.02734,.23823-.01141,.47943,.047,.712,.274-1.153,.159-2.342,.354-3.511,.114,.9,.229,1.795,.348,2.727,.039-.49,.078-.955,.114-1.421l.134-.01c.126,.974,.25,1.95,.377,2.953l.124-.174c.025,.035,.068,.066,.07,.1,.014,.642,.032,1.284,.028,1.925,0,.321-.056,.639-.087,.96,0,.014-.006,.038,0,.04,.423,.246,.06,.5-.032,.763-.085-.66-.169-1.317-.253-1.976h-.039c.018,.253,.039,.5,.059,.755l-.04,.017m.558,5.606c-.088-.306-.176-.614-.264-.921l-.057,.011c0,.145,.01,.29,.014,.437h-.045c-.05438-.16337-.09682-.33048-.127-.5,.00929-.09916,.03675-.19577,.08101-.285,.081,.054,.212,.094,.236,.167,.109,.348,.187,.706,.276,1.061-.039,.011-.077,.022-.114,.031m.144-8.73c.08933,1.30333,.17767,2.607,.265,3.911-.34906-1.27282-.43917-2.60273-.265-3.911m1.407,14.732c-.374-.64466-.74667-1.289-1.118-1.933l.074-.05,1.17,1.909-.126,.074m.134-5.733l.1-.04c.31,.883,.62,1.767,.962,2.744-.54406-.81356-.90754-1.73421-1.066-2.7m1.65899,3.46799c-.218-.50933-.43633-1.01933-.655-1.53,.042-.017,.084-.035,.127-.054,.212,.51333,.42333,1.02633,.634,1.539l-.106,.045Zm.815-3.711l.442,1.431-.1-.007-.456-1.389c.039-.011,.077-.022,.114-.035m25.335-39.6c-.289,1.678-.523,3.365-.744,5.054,.00053,.3545-.23955,.66418-.583,.752-1.757,.655-3.5,1.359-5.248,2.038-.227,.088-.472,.137-.814,.233,.387-1.043,.745-2.006,1.1-2.967-.024-.02-.047-.036-.07-.054l-.269,.186c-.024-.176-.04-.307-.057-.442,.155,0,.174-.07,.18-.19,.04443-.15798,.11182-.30859,.2-.447,.034,.269,.053,.414,.071,.56h.07c.077-.367,.155-.735,.233-1.111l-.325-.08c-.078,.156-.144,.294-.212,.433l-.075-.027c.2-.56,.4-1.121,.638-1.764,0,.029,.007,.057,.01,.084,.18-.377,.321-.635,.419-.907,.05345-.20801,.08693-.42064,.1-.635,.015,.007,.064,.027,.113,.049,.472-.93333,.945-1.86667,1.419-2.8l-.116-.066-.253,.473c-.032-.02-.067-.036-.1-.056,.126-.227,.253-.455,.381-.68,.06184-.07782,.11297-.16358,.152-.255,.17506-.56402,.49302-1.07318,.923-1.478,.045-.05,.1-.126,.094-.179-.04419-.59047,.17553-1.17017,.6-1.583,.28217-.35595,.4921-.76358,.618-1.2,.05-.214,.013-.48,.209-.593,.237-.137,.586-.307,.783-.223,.215,.095,.345,.449,.452,.715,.09901,.2713,.16613,.55319,.2,.84,.30812,2.09959,.27435,4.23521-.1,6.324m2.042-8.57l-.857-1.069c.107-.063,.165-.1,.194-.112-.209-.261-.4-.5-.579-.726,.8139,.26003,1.33284,1.05641,1.242,1.906m1.486,34.322c.14-.11,.292-.2,.466-.322,.088,.586,.06,.638-.356,.595-.07101-.00964-.13498-.04795-.177-.106-.02-.032,.025-.133,.067-.166m.352-28.109c.038-.645,.077-1.29,.113-1.936h.1c-.02,.646-.04,1.291-.06,1.939l-.149-.006m.01302,37.967c.05866,.01933,.11733,.04033,.176,.063l-.29,.858c-.112-.082-.225-.162-.264-.191l.378-.73m-.114,2.276v-1.329c.16061,.42844,.16061,.90056,0,1.329m-.1,.964l.1-.9c.0912,.1893,.16516,.38643,.221,.589,.021,.106-.081,.236-.127,.354-.063-.015-.127-.028-.19-.043m.621,5.479c-.077-.392-.155-.783-.23-1.174,.038-.008,.075-.017,.114-.024,.07934,.39067,.15833,.78133,.237,1.172l-.12099,.026Zm-.015-4.4h.1c.021,.374,.039,.747,.063,1.167l.345-.17c.082,.636,.158,1.242,.239,1.862l.2-.057c.007,.038,.025,.068,.02,.094-.0968,.80827-.08099,1.62607,.047,2.43,.028,.416,.013,.835,.018,1.34-.067-.1-.085-.114-.088-.133-.05098-.28031-.0721-.56524-.063-.85-.05872-.45735-.1975-.90078-.41-1.31-.09315-.25557-.16016-.51992-.2-.789-.121-1.16-.222-2.321-.327-3.483,0-.031,.033-.067,.052-.1m-.162,.856c.17574,.63921,.17781,1.31372,.006,1.954l-.188-.007c.061-.65,.121-1.3,.183-1.947m-.16298-46.576c-.13-.939-.246-1.881-.366-2.822l.165-.02c.131,1.023,.26,2.045,.4,3.129-.082-.114-.186-.194-.2-.287m1.574,35.99c.01667,.28467,.03234,.569,.047,.853l-.11,.018c-.036-.28867-.07267-.57767-.11-.867h.173m-.067,5.588c.032-.124,.278-.194,.426-.29,.046,.061,.095,.123,.141,.184l-.392,.417c.084,.229,.186,.512,.3,.837l-.614-.04c.01821-.37221,.064-.74256,.137-1.108m-.3-17.392c.176,.327,.308,.576,.442,.823-.592-.126-.646-.243-.442-.823m.1-2.971l-.12,.017c-.112-.162-.225-.322-.348-.5l.515-.25c-.02,.293-.033,.512-.047,.733m18.117-4.608c-.14346,.02592-.28952,.03431-.435,.025-.02554-.51213,.00195-1.02552,.082-1.532,.23511-.88554,.52978-1.75419,.882-2.6,.44186-1.12432,.95044-2.22127,1.523-3.285,.7-1.241,1.532-2.407,2.313-3.6,.15829-.26507,.34616-.51131,.56-.734l.828-.613-.068-.081c-.073,.024-.147,.049-.261,.085,.054-.092,.078-.186,.135-.219,.10603-.05207,.21733-.09264,.332-.121l.126,.1c.081-.265,.149-.539,.251-.8,.07632-.15908,.16563-.31159,.267-.456l.11,.066-.226,.4c.036,.022,.074,.047,.112,.07,.272-.4,.546-.8,.849-1.245,.022,.008,.1,.027,.106,.01,.165-.306,.662-.416,.532-.9-.014-.053,.087-.169,.16-.207,.52099-.24159,.90475-.70586,1.044-1.263,0-.013,0-.031,.011-.039,.343-.317,.692-.627,1.03-.949,.15804-.15865,.30758-.32555,.448-.5,.036-.039,.034-.114,.068-.151,.59928-.60757,1.29502-1.11172,2.059-1.492,.31739,1.70321,.17482,3.46024-.413,5.09-1.03733,3.05879-2.55646,5.9323-4.5,8.512-.818,1.1-1.856,2.032-2.719,3.1-.81088,.97016-1.79405,1.78212-2.9,2.395-.74123,.36898-1.51025,.67926-2.3,.928m3.387,14.365c-.33334-.486-.66666-.97067-1-1.454l.12-.084c.32666,.49133,.652,.982,.976,1.472l-.096,.066Zm15.549,13.483c-.022,.046-.043,.094-.063,.141l-1.528-.685c.015-.036,.031-.071,.045-.107l1.546,.652m2.6-.759c-.158-.216-.313-.426-.488-.667l.909,.328c-.159,.13-.285,.23-.42,.339"/><path id="Pfad_47" class="cls-7" d="M77.34045,18.961c-.05488,.15512-.12985,.30237-.223,.438l.1,.054c.06-.11,.121-.219,.181-.328l.067,.015-.144,.593,.1,.031c.165-.451,.328-.9,.5-1.38l-.6,.19c.02875,.12695,.0345,.25802,.017,.387"/><path id="Pfad_48" class="cls-7" d="M77.32445,18.575v-.028l-.015,.035,.02-.007"/><path id="Pfad_49" class="cls-7" d="M14.86845,70.928h-.006l-.006,.018,.012-.018Z"/><path id="Pfad_51" class="cls-5" d="M137.75045,85.149l-.032,.315c-.0209,.19661-.19724,.33904-.39384,.31814-.06725-.00715-.1311-.0332-.18416-.07514l-.525-.413c.148-.215,.294-.441,.454-.657,1.18333-1.622,2.369-3.24333,3.557-4.864,.20574-.19799,.21203-.52527,.01405-.73101-.01656-.0172-.03428-.03323-.05305-.04799-.988-1.023-1.976-2.049-2.9-3.129-.57538-.68631-1.09188-1.41991-1.544-2.193-.20673-.44784-.60925-.77466-1.09-.885-.354-.078-.815-.127-.888-.662-.057-.415,.068-.678,.5-.729,.2-.021,.395,.015,.595,.014,.472-.006,.943-.024,1.415-.024,.25,0,.6-.073,.733,.061,.681,.694,1.608,.648,2.434,.874,1.387,.38,2.8,.684,4.2,1,.19092,.0463,.39252,.00162,.546-.121,1.24332-1.65154,2.27312-3.45346,3.065-5.363,.085-.246,.128-.507,.232-.742,.19071-.44985,.69183-.68137,1.158-.53501,.45863,.07299,.77804,.49475,.724,.956,.063,2.335,.13,4.67,.225,7,.04619,.20981,.19117,.38424,.389,.468,1.943,.539,3.9,1.041,5.845,1.569,.451,.121,.955,.172,1.189,.691,.25916,.59253-.01109,1.28296-.60361,1.54212-.04662,.02039-.09452,.03772-.14339,.05188-1.137,.463-2.286,.893-3.428,1.341-.842,.331-1.687,.652-2.516,1.015-.17917,.09069-.29843,.26787-.315,.468-.046,1.608-.052,3.217-.091,4.825-.0136,.40229-.06516,.8024-.154,1.195-.23618,.5693-.88916,.83935-1.45846,.60316-.14321-.05941-.27248-.14801-.37954-.26015-1.206-1.1-2.338-2.285-3.5-3.433-.03884-.04138-.07243-.08739-.1-.137-.327-.581-.724-.607-1.3-.31-1.30066,.66666-2.62566,1.286-3.975,1.858-.34815,.09184-.71806,.0501-1.037-.117-.261-.123-.421-.458-.66-.737"/><path id="Pfad_52" class="cls-4" d="M167.26845,70.115c-.368,1.29-.684,2.509-1.082,3.7-.13586,.31977-.39407,.57185-.717,.7-.331,.121-.643-.064-.723-.505-.327-1.8-.733-3.581-.99-5.388-.148-1.033-.977-1.273-1.64-1.661-.871-.5-1.846-.825-2.755-1.271-.25043-.124-.43626-.34873-.511-.618,.02441-.26551,.17716-.50229,.409-.634,.9-.428,1.828-.811,2.759-1.172,.509-.2,.782-.387,.624-1.047-.236-.976-.3-1.992-.442-2.989-.057-.392-.028-.733,.424-.864,.475-.137,.751,.119,.978,.5,.535,.886,1.089,1.761,1.618,2.65,.177,.3,.356,.331,.691,.225,1.581-.507,3.178-.978,4.772-1.454,.409-.123,.829-.149,1.036,.322,.212,.488-.109,.8-.47,1.05-1.15826,.87207-2.05092,2.04935-2.578,3.4-.1452,.28512-.07334,.6328,.173,.837,1.21133,1.46267,2.41133,2.93467,3.6,4.416,.15686,.18107,.26463,.39936,.313,.634,.077,.528-.361,.9-.957,.729-1.263-.36-2.507-.791-3.754-1.206-.257-.085-.5-.219-.775-.343m2.862-.294l.082-.14c-.286-.349-.572-.7-.888-1.084-.113,.3-.2,.526-.3,.79l1.1,.434"/><path id="Pfad_53" class="cls-1" d="M108.47045,76.798c-2.5-.8-4.857-1.534-7.2-2.306-.65539-.1939-1.28369-.46975-1.87-.821-.93859-.76518-2.18205-1.04512-3.358-.756-.314,.091-.768-.307-1.158-.48,.172-.381,.243-.977,.529-1.108,1.645-.756,3.343-1.4,5.021-2.084,.133,.19,.265,.378,.4,.569l-1.372,1.407c.506,.45158,1.28227,.40747,1.73386-.09853,.22802-.2555,.339-.5946,.30614-.93547,.074-1.16,.7-1.326,1.531-1.555,1.564-.428,3.13-.861,4.66-1.391,.43089-.17246,.75494-.5384,.874-.987,.13-2.66,.155-5.324,.215-8.1,.16-.075,.488-.232,1-.473-.469-.4-.9-.635-1.1-1-.127-.227,.092-.648,.156-.981,.789,.384,1.866,.561,2.315,1.188,1.664,2.317,3.169,4.752,4.628,7.206,.26868,.62752,.9952,.91842,1.62273,.64973,.02376-.01017,.0472-.02109,.07027-.03273,2.541-.713,5.1-1.387,7.642-2.084,.816-.223,1.644-.514,2.227,.42,.45466,.73441,.31682,1.68919-.327,2.265-1.733,2.131-3.457,4.273-5.114,6.465-.27151,.42536-.33235,.95193-.165,1.428,1.027,2.057,2.213,4.036,3.232,6.1,.294,.6,.546,1.668,.243,2-.57358,.55148-1.36194,.82061-2.153,.735-2.54599-.51-5.04599-1.247-7.75199-1.947-1.516,2.173-3.164,4.491-4.759,6.846-.558,.822-1.153,1.513-2.226,1.142-1.043-.36-1.05-1.211-.924-2.177,.392-2.957,.7-5.924,1.072-9.1"/><path id="Pfad_54" class="cls-2" d="M172.33546,50.757c-.754,.673-1.506,1.327-2.239,2-.3,.281-.632,.509-1.01,.258-.394-.262-.173-.657-.053-.988,.279-.773,.578-1.538,.867-2.308,.20839-.35734,.08765-.81595-.26969-1.02434-.03681-.02147-.07539-.03975-.11531-.05466-.942-.547-1.8-1.237-2.713-1.842-.163-.107-.424-.059-.614-.141-.17178-.09564-.33128-.21183-.475-.346,.13412-.1371,.28419-.25763,.447-.359,.23286-.1007,.47327-.18295,.719-.246,.109-.035,.239-.113,.329-.084,1.179,.381,2.353-.1,3.53-.025,.135,.008,.375-.342,.431-.561,.282-1.083,.519-2.177,.789-3.338,.557-.209,.688-.155,.892,.487,.311,.973,.631,1.941,.923,2.918,.04203,.30307,.32178,.51468,.62486,.47264l.02814-.00465c.886-.06,1.774-.094,2.66-.145,.367-.022,.754-.088,.918,.361s-.15601,.666-.44901,.89c-.67999,.523-1.35001,1.063-2.047,1.562-.33804,.16362-.47943,.57029-.31583,.90833l.01582,.03067c.24777,.72308,.44492,1.46254,.59,2.213,.049,.219,.021,.582-.117,.684-.22575,.15242-.5094,.19157-.768,.106-.787-.378-1.537-.833-2.3-1.262-.085-.047-.169-.1-.278-.167"/><path id="Pfad_55" class="cls-6" d="M161.16545,37.297c-.769,.487-1.235,1.608-2.428,1.934-.00066-.32594,.03286-.65105,.1-.97,.059-.172,.264-.3,.413-.433,.113-.107,.241-.2,.363-.3-.15829-.07044-.32056-.13155-.486-.183-.13342-.011-.26768-.0063-.4,.014,.04642-.85655,.13788-1.71006,.274-2.557,.07168-.23598-.00333-.492-.191-.652-.476-.544-1.189-.924-1.26-1.881,.625,.134,1.22,.241,1.8,.391,1.209,.308,1.209,.318,1.788-.761,.15556-.25608,.28584-.52669,.389-.808,.218-.7,.885-.659,1.394-.846,.265-.1,.477,.349,.247,.6-.755,.823-.107,1.657,.042,2.437,.047,.241,.858,.329,1.316,.5,.2,.075,.542,.174,.548,.283,.02,.3,.008,.738-.181,.907-.47842,.39714-.99925,.74022-1.553,1.023-.25605,.09258-.38857,.37521-.29598,.63126,.00855,.02367,.01891,.04665,.03098,.06874,.246,.615,.535,1.211,.765,1.83,.16554,.45865,.29265,.93028,.38,1.41-.01441,.16978-.11428,.32053-.265,.4-.16985,.04004-.34855-.0051-.479-.121-.769-.936-1.511-1.894-2.313-2.911"/></g></g></svg>